<?xml version="1.0" encoding="utf-8"?>
<!-- Generator: Adobe Illustrator 18.1.1, SVG Export Plug-In . SVG Version: 6.00 Build 0)  -->
<!DOCTYPE svg PUBLIC "-//W3C//DTD SVG 1.1//EN" "http://www.w3.org/Graphics/SVG/1.1/DTD/svg11.dtd">
<svg version="1.1" id="Layer_1" xmlns="http://www.w3.org/2000/svg" xmlns:xlink="http://www.w3.org/1999/xlink" x="0px" y="0px"
	 viewBox="0 0 100 100" enable-background="new 0 0 100 100" xml:space="preserve">
<g>
	<g>
		<path fill="#231F20" d="M-63.5,24.9c-2.2,3.4-3.5,7.4-3.5,11.8c0,11.9,9.6,21.5,21.5,21.5c11.9,0,21.5-9.6,21.5-21.5
			c0-4.7-1.5-9-4.1-12.6L-46,31.8L-63.5,24.9z"/>
		<path fill="#231F20" d="M-39.2,61h-14c-16.6,0-30,14.1-30,32h74C-9.2,75.1-22.7,61-39.2,61z"/>
		<polygon fill="#231F20" points="-46,28.4 -13.3,14.2 -43.5,2.3 -76.2,16.5 		"/>
	</g>
	<polygon fill="#231F20" points="-16,38 -18,38 -18,13.2 -16,14.2 	"/>
</g>
<g>
	<path fill="#231F20" d="M30.7,25.1c-2.4,3.7-3.9,8.2-3.9,13c0,13.1,10.6,23.6,23.6,23.6c13,0,23.6-10.6,23.6-23.6
		c0-5.2-1.7-9.9-4.5-13.8l-19.6,8.5L30.7,25.1z"/>
	<path fill="#231F20" d="M57.5,64.8H42.1c-18.2,0-33,15.5-33,35.2h81.4C90.5,80.3,75.7,64.8,57.5,64.8z"/>
	<polygon fill="#231F20" points="80.8,15.5 80.8,39.5 83,39.5 83,14.6 86,13.3 52.8,0.2 16.8,15.8 50,28.9 	"/>
</g>
<path d="M122.4,43.6c-4.3,0-7.8-3.5-7.8-7.8c0-4.3,3.5-7.8,7.8-7.8c4.3,0,7.8,3.5,7.8,7.8C130.2,40.1,126.7,43.6,122.4,43.6z"/>
<path fill="none" stroke="#000000" stroke-width="5.5803" stroke-linecap="round" stroke-miterlimit="10" d="M135.2,52.5"/>
<g>
	<g>
		<path d="M131,58.9l-1.1-1.4c-0.8-0.9-2-1.5-3.4-1.5c-0.1,0-2.2-0.2-4,1.6l-0.5,0.5l-0.5-0.5c-2.1-2.1-5.3-2.1-7.5,0l-1,1V45.9
			l0.1-0.2c2.7-2.5,6.6-2.6,9.2-0.4c1.3-1,2.8-1.6,4.4-1.5c1.7,0.1,3.1,0.8,4.2,2L131,46V58.9z M117.8,54.6c1.5,0,3,0.5,4.3,1.5
			c2.1-1.8,4.6-1.5,4.7-1.5c1.1,0,2.3,0.4,3.3,1v-9.1c-1-0.8-2-1.3-3.2-1.3c-1.5,0-2.9,0.5-4,1.6c-0.1,0.1-0.4,0.2-0.5,0.2
			c-0.2,0-0.4-0.1-0.6-0.2c-2-2-6.7-2.1-7.7-0.2v9.2C115,55,116.5,54.6,117.8,54.6z"/>
	</g>
	<g>
		<path d="M122.5,53.8c-0.2,0-0.5-0.1-0.5-0.3v-4.9c0-0.2,0.3-0.3,0.5-0.3c0.2,0,0.5,0.1,0.5,0.3v4.9
			C123,53.7,122.7,53.8,122.5,53.8z"/>
	</g>
</g>
<g>
	<path d="M129,56c-0.8-1-1.5-0.5-2.3-0.6c-0.1,0-1.4-0.4-3,0.6H129z"/>
	<path d="M121.8,46.7c0.1,0.1,0.3,0.2,0.5,0.2c0.2,0,0.4-0.1,0.5-0.2c0.8-0.8,1.8-1.4,3-1.6c-0.3,0-0.6-0.1-1-0.1h-5
		c-0.3,0-0.6,0.1-0.9,0.1C119.8,45.3,120.9,45.9,121.8,46.7z"/>
	<path d="M130,46.5V56h5.6c0-5-2.5-8-6.3-9.5C129.5,46.6,130,46.3,130,46.5z"/>
	<path d="M114,46.6c-3,1.7-5.2,5.4-5.2,9.4h5.2V46.6z"/>
	<path d="M120.5,56c-0.8-1-1.7-0.6-2.6-0.6c-0.9,0-1.9-0.4-2.7,0.6H120.5z"/>
</g>
</svg>
