<?xml version="1.0" encoding="utf-8"?>
<!-- Generator: Adobe Illustrator 18.1.1, SVG Export Plug-In . SVG Version: 6.00 Build 0)  -->
<!DOCTYPE svg PUBLIC "-//W3C//DTD SVG 1.1//EN" "http://www.w3.org/Graphics/SVG/1.1/DTD/svg11.dtd">
<svg version="1.1" id="Layer_1" xmlns="http://www.w3.org/2000/svg" xmlns:xlink="http://www.w3.org/1999/xlink" x="0px" y="0px"
	 viewBox="0 0 100 100" enable-background="new 0 0 100 100" xml:space="preserve">
<g>
	<path fill="#231F20" d="M61.5,64.2c6.9-6.9,8-17.7,3.9-25.7l-8,8c1,3.9-0.3,7.6-3.1,10.4l-6.8,6.8c-0.3,0.3,1,1.8,1.7,2.6
		c2.3,2.3,5.2,2.6,8.3,1.9L61.5,64.2z"/>
	<path fill="#231F20" d="M42.9,82.8c-2.9-1.9-4.1-2.6-5.9-4.4c-0.7-0.7-2.1-2.2-2-2.3l-4.4,4.4c-4.5,4.5-12.2,4.2-16.7-0.3
		c-4.5-4.5-4.8-12.2-0.3-16.7l23.7-23.7c1.1-1.1,2.2-2.2,4.4-1.9L52,27.6c-7.5-2.2-16.2-0.8-22,5L6.3,56.3
		C-2.2,64.8-1.9,79,6.6,87.5c8.5,8.5,22.7,8.8,31.2,0.3L42.9,82.8z"/>
	<path fill="#231F20" d="M93.7,21.1c-8.5-8.5-22.1-8.2-30.6,0.3L39.4,45c-8.5,8.5-8.8,22.1-0.3,30.6c8.5,8.5,22.1,8.2,30.6-0.3
		l23.7-23.7C101.9,43.2,102.2,29.6,93.7,21.1z M62.4,68.1c-4.5,4.5-11.6,4.8-16.1,0.3c-4.5-4.5-4.2-11.6,0.3-16.1l23.7-23.7
		c4.5-4.5,11.6-4.8,16.1-0.3c4.5,4.5,4.2,11.6-0.3,16.1L62.4,68.1z"/>
</g>
</svg>
