<?xml version="1.0" encoding="utf-8"?>
<!-- Generator: Adobe Illustrator 16.0.0, SVG Export Plug-In . SVG Version: 6.00 Build 0)  -->
<!DOCTYPE svg PUBLIC "-//W3C//DTD SVG 1.1//EN" "http://www.w3.org/Graphics/SVG/1.1/DTD/svg11.dtd">
<svg version="1.1" id="Layer_1" xmlns="http://www.w3.org/2000/svg" xmlns:xlink="http://www.w3.org/1999/xlink" x="0px" y="0px"
	 width="110px" height="110px" viewBox="0 0 110 110" enable-background="new 0 0 110 110" xml:space="preserve">
<g>
	<g>
		<path fill="#231F20" d="M99.2,69.94c-0.038-1.09-1.505-0.753-1.58-1.807c1.382-4.581,2.193-9.918,2.354-15.357
			c-0.161-5.441-0.973-10.778-2.354-15.359c0.075-1.053,1.542-0.716,1.58-1.806c-0.546-3.148,0.715-5.879,0.679-8.583
			c-0.015-1.019-0.679-1.917-0.679-2.936c-0.001-1.008,0.659-2.055,0.679-3.162c0.066-3.918-2.79-7.3-2.259-10.842
			c0.241-1.611,1.956-3.11,2.032-4.742c0.097-2.027-1.133-3.944-2.484-4.517c-1.838-0.777-3.808,0.678-5.646,0.677
			c-1.902,0-3.819-1.224-5.647-1.355c-3.906-0.281-8.581-0.227-12.647,0.678c-0.979,0.219-1.854,0.769-2.936,0.903
			c-3.737,0.466-8.635-1.06-12.675-1.121c-4.039,0.061-8.937,1.586-12.673,1.121c-1.083-0.134-1.957-0.684-2.937-0.903
			c-4.065-0.905-8.741-0.959-12.647-0.678c-1.828,0.132-3.746,1.355-5.647,1.355c-1.84,0.001-3.809-1.455-5.646-0.677
			c-1.352,0.573-2.581,2.49-2.484,4.517c0.077,1.632,1.791,3.131,2.033,4.742c0.531,3.542-2.326,6.923-2.259,10.842
			c0.02,1.106,0.679,2.153,0.677,3.162c0,1.019-0.663,1.917-0.677,2.936c-0.036,2.705,1.224,5.436,0.677,8.583
			c0.039,1.09,1.506,0.753,1.582,1.806c-1.384,4.582-2.194,9.918-2.355,15.359c0.161,5.439,0.971,10.776,2.355,15.357
			c-0.076,1.054-1.542,0.717-1.582,1.807c0.547,3.148-0.713,5.879-0.677,8.582c0.015,1.021,0.677,1.919,0.677,2.937
			c0.002,1.009-0.657,2.056-0.677,3.163c-0.067,3.919,2.79,7.299,2.259,10.842c-0.242,1.609-1.956,3.109-2.033,4.741
			c-0.096,2.026,1.132,3.944,2.484,4.518c1.837,0.777,3.807-0.679,5.646-0.677c1.902,0,3.82,1.223,5.647,1.354
			c3.906,0.282,8.582,0.229,12.647-0.677c0.98-0.22,1.854-0.771,2.937-0.902c3.736-0.467,8.634,1.059,12.673,1.118
			c4.04-0.06,8.938-1.585,12.675-1.118c1.082,0.132,1.957,0.683,2.936,0.902c4.066,0.905,8.741,0.959,12.647,0.677
			c1.828-0.131,3.745-1.354,5.647-1.354c1.839-0.002,3.809,1.454,5.646,0.677c1.352-0.573,2.581-2.491,2.484-4.518
			c-0.076-1.632-1.791-3.132-2.032-4.741c-0.531-3.543,2.325-6.923,2.259-10.842c-0.02-1.107-0.68-2.154-0.679-3.163
			c0-1.018,0.664-1.916,0.679-2.937C99.915,75.819,98.654,73.089,99.2,69.94z M93.779,83.492c-0.62-0.157-1.901-1.112-2.032-2.033
			c-0.354-2.497,4.306-4.333,4.743-0.904c-0.757,0.634-1.922-0.89-2.937,0c0.9,3.002,3.576,0.268,3.84-0.901
			c0.713-3.163-3.334-8.57,0.227-9.486C98.74,74.677,100.155,85.112,93.779,83.492z M96.038,85.976
			c-1.034,0.132-1.053-0.753-1.58-1.129c0.091-0.662,1.325-0.18,1.58-0.677C97.011,84.176,96.352,85.821,96.038,85.976z
			 M96.49,76.038c0.098,0.777-0.089,1.267-0.226,1.808c-0.715,0.311-0.756,0.049-1.582,0C93.806,76.533,95.199,75.141,96.49,76.038z
			 M98.693,52.776c-0.063,15.396-6.777,30.009-15.528,37.267c4.517-7.905,9.634-15.212,11.067-26.201
			c2.349,1.035-0.038,4.597,0.45,6.325c1.903-5.488,2.786-11.202,2.124-17.391c0.662-6.189-0.221-11.905-2.124-17.392
			c-0.488,1.729,1.898,5.29-0.45,6.325c-1.434-10.99-6.551-18.295-11.067-26.2C91.916,22.768,98.63,37.38,98.693,52.776z
			 M57.616,90.56c-7.579,0.089-15.01-1.803-19.675-4.584c-9.803-5.84-17.167-17.65-17.044-33.199
			c-0.123-15.55,7.242-27.362,17.044-33.202c4.666-2.78,12.096-4.671,19.675-4.583c7.579-0.089,15.01,1.803,19.677,4.583
			c9.803,5.84,17.167,17.652,17.044,33.202c0.123,15.549-7.241,27.359-17.044,33.199C72.626,88.757,65.195,90.648,57.616,90.56z
			 M66.226,91.396c-0.148,0.831-0.832,1.126-1.355,1.582c-1.17-0.186-2.282-0.428-3.388-0.679
			C62.724,91.658,64.501,91.554,66.226,91.396z M53.751,92.3c-1.104,0.251-2.218,0.493-3.388,0.679
			c-0.523-0.456-1.208-0.751-1.355-1.582C50.732,91.554,52.51,91.658,53.751,92.3z M26.422,91.171
			c-1.368-0.438-3.744,0.13-4.743-0.677C22.459,88.615,25.939,89.964,26.422,91.171z M26.196,88.687
			c2.46,0.928,5.035,1.74,6.776,3.388C30.183,92.994,27.523,90.65,26.196,88.687z M39.974,98.399
			c-3.089-0.51-6.35-1.871-9.712-2.711c-3.161-0.792-7.57-0.466-8.808-3.614C29.303,90.878,34.719,95.546,39.974,98.399z
			 M32.747,92.753c2.548-0.708,5.037,1.304,7.001,1.128c-2.992-2.052-7.521-2.566-8.356-6.775c4.604-0.227,8.456,3.428,11.292,4.969
			c-0.575-1.16-2.375-2.288-2.033-3.613c3.143,0.997,5.086,3.197,7.001,5.42c-2.821,0.276-4.284,3.604-7.001,3.614
			C38.093,97.506,34.208,93.969,32.747,92.753z M33.198,86.654c-3.262-0.763-4.833-4.523-6.549-7.453
			c-1.318-2.251-2.407-4.832-3.163-7.454c-0.197-0.684-0.87-2.55-0.451-1.807C25.423,76.512,29.588,81.305,33.198,86.654z
			 M31.843,82.813c1.423,1.74,3.578,2.748,4.743,4.744c-1.558,0.194-2.301-1.528-3.163-2.483
			C32.788,84.367,31.134,83.538,31.843,82.813z M37.264,86.654c0.565,0.869,3.018,1.042,2.258,2.484
			C38.924,88.412,36.489,87.264,37.264,86.654z M20.776,63.391c-0.841-0.238-0.729,0.476-1.129,0.677
			c-0.706-3.237-1.054-7.593-0.623-11.291c-0.431-3.701-0.083-8.056,0.623-11.293c0.399,0.202,0.288,0.918,1.129,0.677
			c-0.52,4.06-0.997,6.99-1.115,10.616C19.779,56.4,20.256,59.332,20.776,63.391z M26.422,14.379
			c-0.483,1.208-3.963,2.558-4.743,0.678C22.679,14.251,25.055,14.82,26.422,14.379z M21.454,13.477
			c1.238-3.149,5.647-2.825,8.808-3.613c3.362-0.841,6.623-2.203,9.712-2.712C34.719,10.006,29.303,14.672,21.454,13.477z
			 M32.972,13.477c-1.741,1.647-4.315,2.459-6.776,3.388C27.523,14.902,30.183,12.557,32.972,13.477z M32.747,12.798
			c1.462-1.216,5.346-4.753,7.905-4.742c2.718,0.011,4.18,3.337,7.001,3.615c-1.916,2.223-3.859,4.421-7.001,5.419
			c-0.342-1.324,1.458-2.452,2.033-3.613c-2.837,1.542-6.688,5.194-11.292,4.968c0.835-4.208,5.365-4.722,8.356-6.774
			C37.784,11.495,35.294,13.507,32.747,12.798z M37.264,18.897c-0.774-0.609,1.66-1.758,2.258-2.485
			C40.282,17.856,37.829,18.027,37.264,18.897z M36.585,17.994c-1.165,1.995-3.319,3.004-4.743,4.742
			c-0.709-0.725,0.945-1.552,1.58-2.258C34.285,19.522,35.027,17.8,36.585,17.994z M33.198,18.897
			c-3.609,5.349-7.775,10.142-10.163,16.713c-0.419,0.744,0.254-1.124,0.451-1.808c0.755-2.621,1.845-5.203,3.163-7.453
			C28.364,23.42,29.936,19.659,33.198,18.897z M49.008,14.153c0.148-0.829,0.833-1.124,1.355-1.58
			c1.17,0.185,2.283,0.426,3.388,0.677C52.51,13.892,50.732,13.997,49.008,14.153z M61.482,13.25
			C62.588,13,63.7,12.758,64.87,12.573c0.523,0.457,1.207,0.751,1.355,1.58C64.501,13.997,62.724,13.892,61.482,13.25z
			 M88.812,14.379c1.367,0.44,3.743-0.128,4.742,0.678C92.773,16.937,89.294,15.588,88.812,14.379z M89.037,16.865
			c-2.461-0.929-5.035-1.741-6.775-3.388C85.05,12.557,87.71,14.902,89.037,16.865z M75.259,7.152
			c3.09,0.509,6.35,1.871,9.713,2.712c3.16,0.789,7.569,0.464,8.808,3.613C85.931,14.672,80.514,10.006,75.259,7.152z
			 M82.487,12.798c-2.549,0.709-5.038-1.304-7.002-1.127c2.991,2.053,7.521,2.566,8.355,6.774c-4.604,0.226-8.454-3.427-11.29-4.968
			c0.573,1.161,2.373,2.289,2.031,3.613c-3.143-0.998-5.086-3.196-7.002-5.419c2.822-0.278,4.283-3.604,7.002-3.615
			C77.142,8.045,81.026,11.583,82.487,12.798z M82.036,18.897c3.262,0.762,4.834,4.522,6.549,7.453
			c1.317,2.25,2.406,4.832,3.162,7.453c0.198,0.684,0.872,2.551,0.452,1.808C89.811,29.039,85.645,24.247,82.036,18.897z
			 M83.391,22.736c-1.423-1.738-3.578-2.747-4.743-4.742c1.56-0.194,2.301,1.528,3.164,2.484
			C82.445,21.184,84.101,22.012,83.391,22.736z M77.97,18.897c-0.564-0.87-3.018-1.041-2.258-2.485
			C76.31,17.139,78.743,18.288,77.97,18.897z M94.458,42.16c0.841,0.241,0.729-0.476,1.128-0.677
			c0.706,3.237,1.054,7.593,0.623,11.293c0.431,3.698,0.083,8.054-0.623,11.291c-0.398-0.201-0.287-0.915-1.128-0.677
			c0.519-4.059,0.996-6.99,1.115-10.614C95.454,49.15,94.977,46.22,94.458,42.16z M92.199,69.94c0.42-0.743-0.254,1.123-0.452,1.807
			c-0.756,2.622-1.845,5.203-3.162,7.454c-1.715,2.93-3.287,6.69-6.549,7.453C85.645,81.305,89.811,76.512,92.199,69.94z
			 M81.812,85.074c-0.863,0.955-1.604,2.678-3.164,2.483c1.165-1.996,3.32-3.004,4.743-4.744
			C84.101,83.538,82.445,84.367,81.812,85.074z M75.712,89.139c-0.76-1.442,1.693-1.615,2.258-2.484
			C78.743,87.264,76.31,88.412,75.712,89.139z M74.582,88.461c0.342,1.325-1.458,2.453-2.031,3.613
			c2.836-1.541,6.687-5.195,11.29-4.969c-0.834,4.209-5.364,4.724-8.355,6.775c1.964,0.176,4.453-1.836,7.002-1.128
			c-1.461,1.216-5.346,4.753-7.905,4.742c-2.719-0.011-4.18-3.338-7.002-3.614C69.496,91.658,71.439,89.458,74.582,88.461z
			 M93.779,92.074c-1.238,3.148-5.647,2.822-8.808,3.614c-3.363,0.84-6.623,2.201-9.713,2.711
			C80.514,95.546,85.931,90.878,93.779,92.074z M88.812,91.171c0.482-1.207,3.962-2.556,4.742-0.677
			C92.555,91.301,90.179,90.732,88.812,91.171z M82.262,92.074c1.74-1.647,4.314-2.46,6.775-3.388
			C87.71,90.65,85.05,92.994,82.262,92.074z M94.683,27.707c0.826-0.05,0.867-0.311,1.582,0c0.137,0.54,0.323,1.03,0.226,1.806
			C95.199,30.41,93.806,29.016,94.683,27.707z M97.62,35.385c-3.561-0.916,0.486-6.323-0.227-9.486
			c-0.264-1.17-2.939-3.905-3.84-0.903c1.015,0.89,2.18-0.632,2.937,0c-0.438,3.429-5.098,1.593-4.743-0.904
			c0.131-0.921,1.412-1.875,2.032-2.032C100.155,20.44,98.74,30.875,97.62,35.385z M94.458,20.704
			c0.527-0.375,0.546-1.261,1.58-1.129c0.313,0.157,0.973,1.801,0,1.806C95.783,20.885,94.549,21.366,94.458,20.704z M98.071,17.768
			c0.741,1.063,1.079,2.849,0.226,4.968c-0.774-0.58-1.095-1.615-0.903-3.162c-0.749-2.857-7.08-2.411-6.55,0.678
			c1.965-0.143,1.902-2.312,4.292-2.032c0.328,2.587-6.703,5.226-6.551,1.354C88.696,16.756,95.912,14.67,98.071,17.768z
			 M96.265,9.186c-0.073,1.792,1.462,6.786-1.355,6.549C95.632,13.882,93.481,9.362,96.265,9.186z M97.847,6.475
			c-2.388,6.117-17.567,1.984-21.459-0.226C81.03,3.742,91.408,9.018,94.683,3.99c-0.677-0.007-1.411-0.294-1.807-1.129
			C95.664,1.175,99.256,2.858,97.847,6.475z M68.033,3.313c-2.273,2.031-6.897-0.555-9.713-0.902
			C62.182,2.088,64.824,2.983,68.033,3.313z M65.773,4.668c-1.001,0.878-4.328,3.492-5.646,2.936
			c-0.748-0.316-1.599-0.63-2.511-0.936c-0.912,0.306-1.761,0.62-2.511,0.936c-1.316,0.556-4.644-2.058-5.646-2.936
			c2.427-0.677,5.226-1.177,8.156-1.469C60.547,3.492,63.348,3.992,65.773,4.668z M58.32,8.508
			c-0.246,0.046-0.474,0.112-0.704,0.176c-0.229-0.063-0.456-0.129-0.703-0.176c0.22-0.163,0.456-0.32,0.703-0.475
			C57.864,8.188,58.101,8.346,58.32,8.508z M56.913,2.411c-2.814,0.348-7.439,2.934-9.712,0.902
			C50.409,2.983,53.052,2.088,56.913,2.411z M57.616,9.581c7.199-1.885,12.309-7.588,19.902-7.623
			c-5.568,3.298-12.25,7.357-19.902,8.875c-7.65-1.518-14.333-5.578-19.901-8.875C45.308,1.992,50.419,7.696,57.616,9.581z
			 M28.681,1.506c8.779-1.292,13.47,4.219,19.649,7.002c2.823,1.271,5.889,2.289,9.286,2.876c3.397-0.587,6.464-1.605,9.286-2.876
			c6.18-2.783,10.871-8.294,19.65-7.002c2.498,0.368,5.311,1.561,5.873,3.613c-1.954-0.174-3.202-1.403-4.971-1.806
			c-8.268-1.882-13.897,5.201-19.649,7.453c-3.095,1.212-6.641,2.043-10.189,2.47c-3.548-0.426-7.094-1.258-10.189-2.47
			c-5.751-2.252-11.381-9.335-19.649-7.453c-1.768,0.402-3.015,1.632-4.968,1.806C23.371,3.067,26.183,1.874,28.681,1.506z
			 M17.389,6.475c-1.412-3.617,2.181-5.3,4.969-3.614C21.96,3.696,21.229,3.983,20.55,3.99c3.275,5.027,13.653-0.249,18.294,2.259
			C34.954,8.459,19.775,12.592,17.389,6.475z M20.324,15.735c-2.817,0.237-1.281-4.757-1.354-6.549
			C21.752,9.362,19.602,13.882,20.324,15.735z M17.163,17.768c2.159-3.098,9.374-1.012,9.486,1.807
			c0.152,3.872-6.878,1.233-6.55-1.354c2.388-0.28,2.327,1.889,4.291,2.032c0.53-3.088-5.801-3.535-6.549-0.678
			c0.191,1.547-0.128,2.582-0.903,3.162C16.083,20.617,16.421,18.831,17.163,17.768z M20.776,20.704
			c-0.091,0.662-1.326,0.182-1.581,0.677c-0.973-0.005-0.313-1.649,0-1.806C20.23,19.443,20.248,20.329,20.776,20.704z
			 M21.454,22.059c0.62,0.157,1.901,1.111,2.032,2.032c0.355,2.498-4.305,4.333-4.742,0.904c0.756-0.632,1.921,0.89,2.936,0
			c-0.901-3.002-3.576-0.267-3.84,0.903c-0.713,3.163,3.335,8.57-0.226,9.486C16.493,30.875,15.078,20.44,21.454,22.059z
			 M18.744,29.513c-0.099-0.776,0.089-1.266,0.226-1.806c0.714-0.311,0.755-0.05,1.581,0C21.428,29.016,20.034,30.41,18.744,29.513z
			 M16.54,52.776c0.064-15.396,6.779-30.009,15.529-37.267c-4.517,7.905-9.634,15.21-11.067,26.2
			c-2.349-1.035,0.037-4.596-0.451-6.325c-1.903,5.486-2.785,11.203-2.122,17.392c-0.664,6.188,0.219,11.902,2.122,17.391
			c0.488-1.729-1.897-5.29,0.451-6.325c1.433,10.989,6.55,18.296,11.067,26.201C23.318,82.785,16.604,68.172,16.54,52.776z
			 M20.55,77.846c-0.826,0.049-0.867,0.311-1.581,0c-0.137-0.541-0.324-1.03-0.226-1.808C20.034,75.141,21.428,76.533,20.55,77.846z
			 M17.614,70.167c3.561,0.916-0.487,6.323,0.226,9.486c0.264,1.169,2.939,3.903,3.84,0.901c-1.015-0.89-2.18,0.634-2.936,0
			c0.437-3.429,5.097-1.593,4.742,0.904c-0.131,0.921-1.412,1.876-2.032,2.033C15.078,85.112,16.493,74.677,17.614,70.167z
			 M20.776,84.847c-0.528,0.376-0.546,1.261-1.581,1.129c-0.313-0.154-0.973-1.8,0-1.806C19.45,84.667,20.685,84.185,20.776,84.847z
			 M17.163,87.784c-0.742-1.064-1.079-2.849-0.226-4.971c0.775,0.58,1.094,1.617,0.903,3.162c0.749,2.858,7.079,2.412,6.549-0.678
			c-1.964,0.144-1.903,2.313-4.291,2.034c-0.328-2.59,6.703-5.227,6.55-1.356C26.537,88.796,19.321,90.881,17.163,87.784z
			 M18.969,96.364c0.073-1.791-1.463-6.785,1.354-6.548C19.602,91.67,21.752,96.188,18.969,96.364z M17.389,99.076
			c2.386-6.117,17.565-1.984,21.456,0.227c-4.641,2.508-15.02-2.77-18.294,2.258c0.678,0.009,1.41,0.296,1.807,1.131
			C19.57,104.377,15.977,102.692,17.389,99.076z M47.201,102.238c2.273-2.032,6.898,0.556,9.712,0.902
			C53.052,103.463,50.409,102.568,47.201,102.238z M49.46,100.883c1.001-0.879,4.329-3.492,5.646-2.937
			c0.75,0.316,1.599,0.631,2.511,0.936c0.912-0.305,1.763-0.619,2.511-0.936c1.318-0.556,4.646,2.058,5.646,2.937
			c-2.426,0.678-5.227,1.178-8.157,1.47C54.686,102.061,51.887,101.561,49.46,100.883z M56.913,97.043
			c0.247-0.046,0.475-0.111,0.703-0.176c0.23,0.064,0.458,0.13,0.704,0.176c-0.22,0.164-0.456,0.321-0.704,0.476
			C57.369,97.364,57.133,97.207,56.913,97.043z M58.32,103.141c2.815-0.347,7.439-2.935,9.713-0.902
			C64.824,102.568,62.182,103.463,58.32,103.141z M57.616,95.971c-7.197,1.885-12.308,7.588-19.901,7.622
			c5.569-3.297,12.251-7.355,19.901-8.876c7.652,1.521,14.334,5.579,19.902,8.876C69.925,103.559,64.815,97.855,57.616,95.971z
			 M86.553,104.046c-8.779,1.29-13.471-4.22-19.65-7.003c-2.822-1.271-5.889-2.287-9.286-2.877c-3.397,0.59-6.463,1.605-9.286,2.877
			c-6.179,2.783-10.87,8.293-19.649,7.003c-2.499-0.367-5.311-1.562-5.872-3.614c1.953,0.175,3.2,1.404,4.968,1.807
			c8.269,1.883,13.898-5.201,19.649-7.454c3.096-1.211,6.641-2.043,10.189-2.471c3.549,0.428,7.095,1.26,10.189,2.471
			c5.752,2.253,11.382,9.337,19.649,7.454c1.769-0.402,3.017-1.632,4.971-1.807C91.863,102.484,89.051,103.679,86.553,104.046z
			 M97.847,99.076c1.409,3.616-2.183,5.301-4.971,3.615c0.396-0.835,1.13-1.122,1.807-1.131c-3.274-5.027-13.652,0.25-18.295-2.258
			C80.279,97.092,95.459,92.959,97.847,99.076z M94.909,89.816c2.817-0.237,1.282,4.757,1.355,6.548
			C93.481,96.188,95.632,91.67,94.909,89.816z M98.071,87.784c-2.159,3.097-9.375,1.012-9.486-1.809
			c-0.152-3.87,6.879-1.233,6.551,1.356c-2.39,0.279-2.327-1.891-4.292-2.034c-0.53,3.09,5.801,3.536,6.55,0.678
			c-0.191-1.545,0.129-2.582,0.903-3.162C99.15,84.936,98.812,86.72,98.071,87.784z"/>
	</g>
	<g>
		<defs>
			<ellipse id="SVGID_1_" cx="56.749" cy="52.769" rx="36.905" ry="39.532"/>
		</defs>
		<clipPath id="SVGID_2_">
			<use xlink:href="#SVGID_1_"  overflow="visible"/>
		</clipPath>
		<g clip-path="url(#SVGID_2_)">
			<path d="M86.438,5.789H36.769c-8.326,0-15.503,5.017-18.667,12.187C10.444,20.913,4.994,28.344,4.994,37.023v47.5
				c0,11.244,9.147,20.392,20.392,20.392H68.55c11.244,0,20.392-9.147,20.392-20.392v-7.95c10.067-1.237,17.889-9.842,17.889-20.238
				V26.181C106.83,14.937,97.683,5.789,86.438,5.789z M105.866,56.335c0,10.194-7.893,18.58-17.888,19.368v8.82
				c0,10.713-8.717,19.429-19.429,19.429H25.386c-10.713,0-19.428-8.716-19.428-19.429v-47.5c0-8.411,5.373-15.591,12.867-18.288
				c2.927-7.029,9.868-11.983,17.944-11.983h49.668c10.715,0,19.429,8.716,19.429,19.429V56.335z"/>
			<path d="M68.55,102.025H25.386c-4.136,0-7.938-1.444-10.938-3.853h-1.485c3.282,2.99,7.643,4.816,12.423,4.816H68.55
				c4.779,0,9.14-1.826,12.423-4.816h-1.486C76.488,100.581,72.686,102.025,68.55,102.025z"/>
			<path d="M20.292,20.276c0.66-1.837,1.628-3.525,2.828-5.021V13.76c-1.517,1.665-2.735,3.606-3.566,5.741
				c-2.465,0.823-4.692,2.161-6.573,3.873h1.474C16.169,21.998,18.141,20.932,20.292,20.276z"/>
			<path d="M36.769,8.679h49.668c4.138,0,7.939,1.445,10.938,3.853h1.486c-3.281-2.99-7.644-4.816-12.424-4.816H36.769
				c-4.775,0-9.128,1.83-12.41,4.816h1.482C28.839,10.126,32.636,8.679,36.769,8.679z"/>
			<path d="M7.884,84.523v-47.5c0-4.132,1.449-7.927,3.853-10.924v-1.481C8.751,27.9,6.92,32.249,6.92,37.023v47.5
				c0,4.779,1.826,9.141,4.816,12.424v-1.486C9.328,92.462,7.884,88.659,7.884,84.523z"/>
			<path d="M100.088,15.244c2.408,2.999,3.853,6.802,3.853,10.938v30.154c0,4.136-1.444,7.938-3.853,10.938v1.48
				c2.988-3.283,4.815-7.641,4.815-12.418V26.181c0-4.78-1.825-9.141-4.815-12.424V15.244z"/>
			<path d="M86.438,73.837h-0.387v10.687c0,4.136-1.445,7.938-3.852,10.938v1.486c2.99-3.284,4.815-7.645,4.815-12.424v-9.732
				c4.553-0.14,8.692-1.938,11.842-4.808h-1.481C94.377,72.392,90.575,73.837,86.438,73.837z"/>
			<path d="M9.81,84.523v-47.5c0-2.713,0.702-5.265,1.927-7.488V27.71c-1.817,2.656-2.89,5.859-2.89,9.313v47.5
				c0,3.457,1.069,6.67,2.89,9.326v-1.832C10.51,89.792,9.81,87.239,9.81,84.523z"/>
			<path d="M21.803,21.863c0.321-1.111,0.771-2.166,1.317-3.16v-1.832c-0.877,1.282-1.588,2.687-2.08,4.192
				c-1.8,0.49-3.476,1.282-4.977,2.311h1.842C19.118,22.707,20.422,22.189,21.803,21.863z"/>
			<path d="M86.438,71.911h-2.312v12.612c0,2.716-0.701,5.269-1.927,7.494v1.832c1.821-2.656,2.889-5.869,2.889-9.326V72.874h1.35
				c3.458,0,6.671-1.068,9.327-2.891h-1.833C91.708,71.21,89.152,71.911,86.438,71.911z"/>
			<path d="M68.55,100.1H25.386c-2.716,0-5.27-0.7-7.494-1.927h-1.833c2.657,1.821,5.869,2.889,9.327,2.889H68.55
				c3.457,0,6.668-1.067,9.326-2.889h-1.832C73.818,99.399,71.265,100.1,68.55,100.1z"/>
			<path d="M102.015,26.181v30.154c0,2.715-0.7,5.27-1.927,7.494v1.832c1.82-2.657,2.89-5.868,2.89-9.326V26.181
				c0-3.458-1.069-6.67-2.89-9.327v1.833C101.314,20.912,102.015,23.466,102.015,26.181z"/>
			<path d="M36.769,10.605h49.668c2.715,0,5.271,0.7,7.494,1.926h1.833c-2.656-1.821-5.869-2.89-9.327-2.89H36.769
				c-3.452,0-6.653,1.074-9.308,2.89h1.821C31.506,11.307,34.057,10.605,36.769,10.605z"/>
			<path d="M25.386,99.137H68.55c1.835,0,3.589-0.344,5.21-0.964H20.176C21.796,98.793,23.551,99.137,25.386,99.137z"/>
			<path d="M101.051,56.335V26.181c0-1.835-0.343-3.59-0.963-5.209v40.571C100.708,59.925,101.051,58.169,101.051,56.335z"/>
			<path d="M23.12,20.997c-0.209,0.548-0.397,1.106-0.539,1.683c-0.832,0.163-1.637,0.397-2.412,0.693h2.951V20.997z"/>
			<path d="M10.773,37.023v47.5c0,1.835,0.343,3.589,0.963,5.21V31.821C11.118,33.438,10.773,35.191,10.773,37.023z"/>
			<path d="M36.769,11.568c-1.829,0-3.576,0.346-5.19,0.963h60.069c-1.618-0.62-3.374-0.963-5.21-0.963H36.769z"/>
			<path d="M82.199,89.733c0.62-1.621,0.963-3.375,0.963-5.21V70.947h3.275c1.836,0,3.592-0.342,5.21-0.964h-9.448V89.733z"/>
			<path d="M24.734,13.495h-0.65v0.658C24.295,13.929,24.51,13.707,24.734,13.495z"/>
			<path d="M98.477,69.021h0.648v-0.649C98.914,68.596,98.698,68.811,98.477,69.021z"/>
			<path d="M12.699,96.562v0.647h0.647C13.125,97,12.91,96.783,12.699,96.562z"/>
			<path d="M80.588,97.21h0.647v-0.647C81.026,96.783,80.81,97,80.588,97.21z"/>
			<path d="M13.349,24.337h-0.649v0.659C12.912,24.772,13.125,24.549,13.349,24.337z"/>
			<path d="M99.125,14.142v-0.647h-0.648C98.698,13.705,98.914,13.921,99.125,14.142z"/>
			<path d="M26.183,13.495h-1.449c-0.224,0.212-0.438,0.435-0.65,0.658v1.436C24.719,14.828,25.423,14.13,26.183,13.495z"/>
			<path d="M79.146,97.21h1.441c0.222-0.21,0.438-0.427,0.647-0.647V95.12C80.603,95.878,79.902,96.576,79.146,97.21z"/>
			<path d="M97.035,69.021h1.441c0.222-0.211,0.438-0.426,0.648-0.649v-1.44C98.491,67.688,97.792,68.388,97.035,69.021z"/>
			<path d="M12.699,95.12v1.442c0.21,0.221,0.426,0.438,0.647,0.647h1.442C14.032,96.576,13.333,95.878,12.699,95.12z"/>
			<path d="M99.125,15.584v-1.442c-0.211-0.221-0.427-0.438-0.648-0.647h-1.441C97.792,14.128,98.491,14.827,99.125,15.584z"/>
			<path d="M14.802,24.337h-1.454c-0.224,0.212-0.437,0.436-0.649,0.659v1.447C13.337,25.68,14.039,24.974,14.802,24.337z"/>
			<path d="M97.035,13.495h-1.576c0.553,0.395,1.079,0.823,1.575,1.284h0.807v0.806c0.461,0.496,0.89,1.023,1.284,1.576v-1.577
				C98.491,14.827,97.792,14.128,97.035,13.495z"/>
			<path d="M13.983,26.429v-0.808h0.813c0.498-0.462,1.027-0.889,1.583-1.284h-1.577c-0.763,0.637-1.465,1.343-2.103,2.106v1.571
				C13.095,27.459,13.521,26.927,13.983,26.429z"/>
			<path d="M14.79,95.926h-0.806V95.12c-0.461-0.496-0.89-1.024-1.284-1.577v1.577c0.633,0.758,1.333,1.456,2.09,2.09h1.577
				C15.812,96.815,15.286,96.388,14.79,95.926z"/>
			<path d="M97.841,66.931v0.806h-0.807c-0.496,0.462-1.022,0.891-1.575,1.285h1.576c0.757-0.634,1.456-1.334,2.09-2.09v-1.577
				C98.73,65.908,98.302,66.435,97.841,66.931z"/>
			<path d="M79.952,95.12v0.806h-0.806c-0.498,0.462-1.024,0.89-1.577,1.284h1.577c0.756-0.634,1.456-1.332,2.089-2.09v-1.577
				C80.842,94.096,80.414,94.624,79.952,95.12z"/>
			<path d="M25.368,15.589v-0.811h0.814c0.497-0.462,1.026-0.889,1.581-1.284h-1.58c-0.76,0.635-1.464,1.333-2.099,2.094v1.578
				C24.478,16.613,24.906,16.086,25.368,15.589z"/>
			<path d="M95.562,14.779h1.473c-0.496-0.461-1.022-0.89-1.575-1.284h-1.783C94.339,13.874,94.97,14.304,95.562,14.779z"/>
			<path d="M79.952,93.647v1.473c0.462-0.496,0.89-1.024,1.283-1.577v-1.782C80.855,92.424,80.428,93.055,79.952,93.647z"/>
			<path d="M93.676,69.021h1.783c0.553-0.395,1.079-0.823,1.575-1.285h-1.473C94.97,68.212,94.339,68.641,93.676,69.021z"/>
			<path d="M99.125,18.943v-1.782c-0.395-0.553-0.823-1.08-1.284-1.576v1.472C98.315,17.65,98.745,18.281,99.125,18.943z"/>
			<path d="M29.536,13.495h-1.773c-0.555,0.395-1.084,0.822-1.581,1.284h1.463C28.238,14.303,28.872,13.875,29.536,13.495z"/>
			<path d="M97.841,65.458v1.473c0.461-0.496,0.89-1.022,1.284-1.576v-1.781C98.745,64.235,98.315,64.865,97.841,65.458z"/>
			<path d="M13.983,27.908v-1.479c-0.462,0.498-0.889,1.03-1.284,1.585v1.769C13.078,29.123,13.511,28.499,13.983,27.908z"/>
			<path d="M12.699,91.761v1.782c0.395,0.553,0.823,1.081,1.284,1.577v-1.473C13.508,93.055,13.08,92.424,12.699,91.761z"/>
			<path d="M18.158,24.337h-1.779c-0.555,0.395-1.084,0.822-1.583,1.284h1.479C16.869,25.147,17.496,24.716,18.158,24.337z"/>
			<path d="M75.787,97.21h1.782c0.553-0.395,1.079-0.822,1.577-1.284h-1.473C77.08,96.401,76.449,96.83,75.787,97.21z"/>
			<path d="M16.262,95.926H14.79c0.496,0.462,1.023,0.89,1.576,1.284h1.782C17.485,96.83,16.855,96.401,16.262,95.926z"/>
			<path d="M25.368,17.065v-1.476c-0.461,0.497-0.89,1.024-1.284,1.577v1.79C24.463,18.292,24.892,17.66,25.368,17.065z"/>
			<path d="M99.125,63.573v-44.63c-0.38-0.663-0.81-1.293-1.284-1.887v48.401C98.315,64.865,98.745,64.235,99.125,63.573z"/>
			<path d="M12.699,29.783v61.978c0.38,0.663,0.809,1.294,1.284,1.887v-65.74C13.511,28.499,13.078,29.123,12.699,29.783z"/>
			<path d="M79.952,93.647c0.476-0.593,0.903-1.224,1.283-1.887V69.021h12.44c0.663-0.381,1.294-0.81,1.886-1.285H79.952V93.647z"/>
			<path d="M25.368,17.065c-0.476,0.595-0.904,1.227-1.284,1.891v5.38h-5.925c-0.662,0.379-1.29,0.81-1.882,1.284h9.092V17.065z"/>
			<path d="M18.148,97.21h57.639c0.662-0.38,1.293-0.809,1.887-1.284H16.262C16.855,96.401,17.485,96.83,18.148,97.21z"/>
			<path d="M27.645,14.779h67.917c-0.592-0.475-1.223-0.905-1.886-1.284h-64.14C28.872,13.875,28.238,14.303,27.645,14.779z"/>
			<path d="M26.331,15.742v0.241c0.079-0.081,0.157-0.162,0.237-0.241H26.331z"/>
			<path d="M15.182,26.584h-0.235v0.226C15.023,26.733,15.104,26.66,15.182,26.584z"/>
			<path d="M96.877,15.97v-0.228h-0.228C96.727,15.817,96.802,15.893,96.877,15.97z"/>
			<path d="M96.649,66.773h0.228v-0.228C96.802,66.622,96.727,66.698,96.649,66.773z"/>
			<path d="M14.947,94.735v0.228h0.228C15.098,94.888,15.022,94.812,14.947,94.735z"/>
			<path d="M78.762,94.963h0.227v-0.228C78.914,94.812,78.838,94.888,78.762,94.963z"/>
			<path d="M26.331,15.983v10.602H15.182c-0.078,0.076-0.159,0.148-0.235,0.226v67.925c0.075,0.076,0.151,0.152,0.228,0.228h63.587
				c0.076-0.075,0.152-0.151,0.227-0.228V66.773h17.661c0.077-0.075,0.152-0.151,0.228-0.228V15.97
				c-0.075-0.077-0.15-0.152-0.228-0.228H26.567C26.487,15.821,26.409,15.902,26.331,15.983z M95.593,17.026v48.463h-17.89v28.188
				H16.231V27.869h11.384V17.026H95.593z"/>
			<path d="M17.195,92.715H76.74V64.526h17.89V17.989H28.578v10.843H17.195V92.715z M18.479,30.116h11.384V19.273h63.482v43.969
				H75.457v28.188H18.479V30.116z"/>
			<path d="M73.529,84.523v4.98H68.55H25.386h-4.981v-4.98v-47.5v-4.98h5.692h0.711c0.888,0,1.72-0.235,2.441-0.643h-9.487v58.748
				h54.41V63.854c-0.408,0.723-0.644,1.554-0.644,2.442V84.523z"/>
			<path d="M86.438,21.201h4.982v4.98v30.154v4.98h-4.982h-7.927c-0.889,0-1.72,0.234-2.441,0.642h15.992V20.558H73.423
				c1.023,0.175,2.002,0.386,2.936,0.643H86.438z"/>
			<path d="M31.789,26.622v-5.421h4.98h17.648c1.141-0.256,2.31-0.468,3.499-0.643H31.147v8.945
				c0.407-0.722,0.642-1.554,0.642-2.442V26.622z"/>
			<path d="M26.097,32.042h5.692v-5.421v0.439c0,0.888-0.235,1.72-0.642,2.442V31.4H29.25c-0.722,0.408-1.553,0.643-2.441,0.643
				H26.097z"/>
			<path d="M76.069,61.957c0.722-0.407,1.553-0.642,2.441-0.642h-4.981v4.98c0-0.889,0.235-1.72,0.644-2.442v-1.896H76.069z"/>
			<path d="M32.431,23.739v-1.897h1.897c0.721-0.407,1.553-0.642,2.44-0.642h-4.98v5.421v-0.44
				C31.789,25.293,32.023,24.461,32.431,23.739z"/>
			<path d="M90.777,60.674H88.88c-0.722,0.407-1.554,0.642-2.442,0.642h4.982v-4.98c0,0.889-0.236,1.719-0.643,2.44V60.674z"/>
			<path d="M90.777,21.842v1.897c0.406,0.722,0.643,1.554,0.643,2.442v-4.98h-4.982c0.889,0,1.721,0.235,2.442,0.642H90.777z"/>
			<path d="M21.047,88.861v-1.896c-0.407-0.723-0.642-1.555-0.642-2.442v4.98h4.981c-0.888,0-1.72-0.235-2.441-0.643H21.047z"/>
			<path d="M72.888,88.861h-1.896c-0.723,0.407-1.554,0.643-2.441,0.643h4.979v-4.98c0,0.888-0.234,1.72-0.642,2.441V88.861z"/>
			<path d="M21.047,32.684h1.897c0.722-0.407,1.554-0.642,2.442-0.642h0.711h-5.692v4.98c0-0.888,0.235-1.72,0.642-2.442V32.684z"/>
			<path d="M22.944,32.684h9.487v-8.945c-0.408,0.722-0.643,1.554-0.643,2.442v0.44v5.421h-5.692h-0.711
				C24.498,32.042,23.666,32.277,22.944,32.684z"/>
			<path d="M88.88,60.674H72.888v26.291c0.407-0.722,0.642-1.554,0.642-2.441V66.296v-4.98h4.981h7.927
				C87.326,61.315,88.158,61.081,88.88,60.674z"/>
			<path d="M21.047,34.581c-0.407,0.722-0.642,1.554-0.642,2.442v47.5c0,0.888,0.235,1.72,0.642,2.442V34.581z"/>
			<path d="M88.88,21.842c-0.722-0.407-1.554-0.642-2.442-0.642H76.358c0.688,0.189,1.344,0.408,1.984,0.642H88.88z"/>
			<path d="M51.866,21.842c0.836-0.239,1.688-0.449,2.552-0.642H36.769c-0.887,0-1.719,0.235-2.44,0.642H51.866z"/>
			<path d="M90.777,35.542c0.159,0.919,0.247,1.855,0.247,2.811c0,1.019-0.083,2.031-0.247,3.037v17.387
				c0.406-0.722,0.643-1.552,0.643-2.44V26.181c0-0.888-0.236-1.72-0.643-2.442V35.542z"/>
			<path d="M30.773,88.861l-1.937,0.439l0.099-0.439h-5.991c0.722,0.407,1.553,0.643,2.441,0.643H68.55
				c0.888,0,1.719-0.235,2.441-0.643H30.773z"/>
			<path d="M65.946,19.98c-2.787,0-5.461,0.2-8.03,0.578h15.507C71.17,20.173,68.693,19.98,65.946,19.98z"/>
			<path d="M71.814,45.088c1.46-2.159,2.17-4.409,2.17-6.879c0-0.583-0.057-1.109-0.159-1.598h-0.988
				c0.121,0.475,0.186,1,0.186,1.598c0,2.272-0.657,4.346-2.006,6.34c-1.381,2.042-2.881,3.447-4.459,4.179
				c-0.98,0.455-1.895,0.769-2.734,0.938l1.995-7.429l0.017-0.068c0.53-2.097,1.04-3.953,1.522-5.558h-1.004
				c-0.464,1.556-0.948,3.33-1.451,5.321l-2.374,8.845c1.204-0.017,2.576-0.371,4.076-1.025c0.78-0.564,1.604-1.073,2.462-1.523
				C70.028,47.416,70.949,46.37,71.814,45.088z"/>
			<path d="M57.804,73.385l0.315-1.222v-3.852l-1.248,4.832c-0.08,0.315-0.174,0.634-0.255,0.95h1.001
				C57.679,73.857,57.744,73.62,57.804,73.385z"/>
			<path d="M39.195,60.908c2.569,1.896,3.872,4.053,3.872,6.41c0,1.755-0.706,3.38-1.988,4.577c-1.229,1.146-2.766,1.75-4.444,1.75
				c-0.275,0-0.548-0.019-0.819-0.046v0.494h3.545c0.175-0.068,0.351-0.134,0.521-0.216c-0.061,0.084-0.115,0.154-0.166,0.216h1.178
				c0.589-0.943,1.351-2.616,2.089-5.567l7.082-28.128l-3.977,0.612l1.146-4.298c-3.332,2.106-5.996,4.628-7.941,7.522
				c-2.029,3.019-3.191,5.98-3.476,8.827v2.584c0.1,0.869,0.302,1.639,0.621,2.282C36.751,58.566,37.486,59.6,39.195,60.908z
				 M40.091,44.772c1.44-2.142,3.293-4.074,5.537-5.777l-0.851,3.192l3.999-0.616l-5.613,22.294
				c-0.705-1.335-1.836-2.582-3.389-3.729c-1.557-1.191-2.205-2.09-2.475-2.635c-0.395-0.798-0.594-1.832-0.594-3.073
				C36.705,51.364,37.844,48.115,40.091,44.772z"/>
			<path d="M39.36,74.094h-3.545V73.6c-0.324-0.032-0.646-0.079-0.962-0.151v0.982c0.583,0.116,1.175,0.178,1.781,0.178
				C37.592,74.608,38.506,74.429,39.36,74.094z"/>
			<path d="M40.894,74.094h-1.178c-0.127,0.155-0.223,0.245-0.273,0.287c-0.023,0.018-0.425,0.313-1.689,0.676h2.378
				C40.317,74.886,40.58,74.594,40.894,74.094z"/>
			<path d="M35.742,54.429c0,0.43,0.03,0.831,0.074,1.218v-2.584C35.77,53.521,35.742,53.977,35.742,54.429z"/>
			<path d="M58.119,72.163l0.964-3.729v-2.138c0-0.752,0.048-1.492,0.131-2.22l-1.095,4.235V72.163z"/>
			<path d="M66.964,49.602c0.721-0.333,1.422-0.797,2.103-1.373c-0.857,0.451-1.682,0.959-2.462,1.523
				C66.725,49.699,66.841,49.659,66.964,49.602z"/>
			<path d="M57.362,75.057c0.087-0.321,0.171-0.642,0.255-0.963h-1.001c-0.085,0.321-0.174,0.642-0.26,0.963H57.362z"/>
			<path d="M67.654,35.648h-1.008c-0.097,0.311-0.194,0.632-0.293,0.963h1.004C67.458,36.279,67.557,35.958,67.654,35.648z"/>
			<path d="M72.462,35.648c0.162,0.296,0.285,0.615,0.375,0.963h0.988c-0.072-0.34-0.168-0.662-0.293-0.963H72.462z"/>
			<path d="M67.654,35.648c0.104-0.333,0.208-0.656,0.311-0.963h-1.013c-0.1,0.309-0.202,0.63-0.306,0.963H67.654z"/>
			<path d="M34.853,73.448c-0.326-0.073-0.646-0.172-0.963-0.285v1.021c0.317,0.101,0.639,0.183,0.963,0.247V73.448z"/>
			<path d="M72.462,35.648h1.07c-0.144-0.344-0.325-0.663-0.54-0.963H71.74C72.036,34.98,72.273,35.3,72.462,35.648z"/>
			<path d="M40.131,75.057h-2.378c-0.657,0.188-1.543,0.395-2.741,0.591L33.89,75.83v0.189h3.99
				c1.591-0.441,2.104-0.836,2.176-0.896C40.078,75.104,40.104,75.08,40.131,75.057z"/>
			<path d="M57.199,75.676c0.058-0.207,0.108-0.412,0.163-0.619h-1.006c-0.087,0.32-0.169,0.642-0.26,0.963h3.949v-0.578
				c-0.901,0.151-1.769,0.237-2.586,0.237C57.375,75.679,57.287,75.678,57.199,75.676z"/>
			<path d="M59.913,61.366l-0.699,2.71c-0.083,0.728-0.131,1.468-0.131,2.22v2.138l1.077-4.172c0.109-0.99,0.3-1.956,0.559-2.895
				c-0.066,0.002-0.132,0.006-0.199,0.006C60.337,61.373,60.134,61.37,59.913,61.366z"/>
			<path d="M71.74,34.685h1.252c-0.244-0.344-0.538-0.664-0.883-0.963h-1.736c0.409,0.202,0.732,0.412,0.978,0.611
				C71.49,34.446,71.62,34.564,71.74,34.685z"/>
			<path d="M67.965,34.685c0.096-0.287,0.19-0.562,0.282-0.826l0.049-0.137h-1.02c-0.105,0.306-0.215,0.629-0.324,0.963H67.965z"/>
			<path d="M60.657,62.337c0.273-0.002,0.542-0.017,0.814-0.022c0.076-0.328,0.16-0.651,0.256-0.971
				c-0.337,0.01-0.671,0.022-1.009,0.023c-0.259,0.938-0.449,1.904-0.559,2.895L60.657,62.337z"/>
			<path d="M60.046,76.02h-3.949c-0.05,0.182-0.093,0.363-0.146,0.546c0.535,0.05,1.038,0.076,1.509,0.076
				c1.11,0,2.304-0.147,3.548-0.411v-0.985c-0.323,0.072-0.647,0.142-0.962,0.196V76.02z"/>
			<path d="M37.88,76.02h-3.99V75.83l-0.963,0.157v0.977l2.241-0.366C36.309,76.41,37.193,76.21,37.88,76.02z"/>
			<path d="M33.89,73.163c-0.325-0.116-0.646-0.255-0.963-0.414v1.07c0.317,0.141,0.638,0.262,0.963,0.364V73.163z"/>
			<path d="M67.276,33.721h1.02l0.228-0.646c0.767,0.185,1.369,0.41,1.85,0.646h1.736c-0.053-0.044-0.097-0.092-0.15-0.136
				c-0.385-0.313-0.849-0.588-1.379-0.827h-2.966l-0.275,0.779C67.318,33.597,67.297,33.662,67.276,33.721z"/>
			<path d="M61.472,62.314c0.332-0.007,0.665-0.013,0.994-0.027c0.083-0.33,0.174-0.655,0.276-0.977
				c-0.337,0.018-0.676,0.023-1.015,0.033C61.632,61.663,61.548,61.986,61.472,62.314z"/>
			<path d="M61.972,76.017v-0.999c-0.326,0.089-0.645,0.157-0.964,0.228v0.985C61.328,76.164,61.646,76.102,61.972,76.017z"/>
			<path d="M32.927,72.749c-0.326-0.162-0.647-0.346-0.963-0.553v1.132c0.317,0.184,0.638,0.348,0.963,0.491V72.749z"/>
			<polygon points="32.927,76.964 32.927,75.987 31.963,76.146 31.963,77.946 32.395,77.946 32.605,77.016 			"/>
			<path d="M62.466,62.287c0.34-0.016,0.677-0.041,1.014-0.064c0.091-0.335,0.193-0.664,0.305-0.989
				c-0.347,0.027-0.691,0.058-1.042,0.077C62.64,61.632,62.549,61.957,62.466,62.287z"/>
			<path d="M61.972,76.017c0.315-0.08,0.641-0.184,0.964-0.282v-1.003c-0.324,0.101-0.647,0.202-0.964,0.286V76.017z"/>
			<path d="M67.893,31.964l-0.278,0.794h2.966C69.822,32.417,68.926,32.15,67.893,31.964z"/>
			<polygon points="31.963,77.946 31.963,76.146 31.809,76.171 31.189,78.909 32.177,78.909 32.395,77.946 			"/>
			<path d="M31.963,72.196c-0.326-0.215-0.647-0.449-0.963-0.709v1.221c0.316,0.229,0.638,0.433,0.963,0.62V72.196z"/>
			<path d="M62.936,74.731v1.003c0.253-0.076,0.501-0.14,0.759-0.225l0.204-0.068v-1.017l-0.51,0.17
				C63.235,74.646,63.088,74.684,62.936,74.731z"/>
			<path d="M64.503,62.144c0.101-0.339,0.213-0.675,0.338-1.004c-0.35,0.038-0.703,0.065-1.057,0.094
				c-0.111,0.325-0.214,0.654-0.305,0.989C63.821,62.198,64.165,62.176,64.503,62.144z"/>
			<polygon points="31.189,78.909 30.971,79.872 31.958,79.872 32.177,78.909 			"/>
			<path d="M31,71.487c-0.327-0.269-0.647-0.565-0.963-0.885v1.326c0.316,0.279,0.636,0.543,0.963,0.779V71.487z"/>
			<path d="M64.503,62.144c0.119-0.012,0.239-0.021,0.358-0.034v-0.972c-0.007,0-0.014,0.001-0.021,0.002
				C64.716,61.469,64.604,61.805,64.503,62.144z"/>
			<polygon points="30.971,79.872 30.752,80.836 31.74,80.836 31.958,79.872 			"/>
			<polygon points="63.898,75.441 64.861,75.119 64.861,74.103 63.898,74.425 			"/>
			<path d="M30.037,71.929v-1.326c-0.327-0.328-0.648-0.685-0.963-1.067v1.454C29.39,71.326,29.71,71.64,30.037,71.929z"/>
			<polygon points="64.861,75.119 65.825,74.797 65.825,73.782 64.861,74.103 			"/>
			<path d="M39.495,28.906v0.063c0.028-0.021,0.057-0.042,0.086-0.063H39.495z"/>
			<path d="M64.861,62.109c0.324-0.033,0.643-0.081,0.964-0.123v-0.969c-0.32,0.042-0.641,0.085-0.964,0.12V62.109z"/>
			<path d="M28.355,39.748c-0.084,0.14-0.163,0.281-0.245,0.421v2.014c0.422-0.821,0.883-1.633,1.383-2.435H28.355z"/>
			<path d="M83.714,53.61v-0.873c-0.296,0.296-0.597,0.589-0.913,0.873H83.714z"/>
			<path d="M29.074,69.535c-0.327-0.396-0.648-0.821-0.963-1.275v1.615c0.315,0.397,0.637,0.769,0.963,1.114V69.535z"/>
			<polygon points="30.752,80.836 30.535,81.8 31.522,81.8 31.74,80.836 			"/>
			<path d="M83.714,52.737v0.873h-0.913c-0.496,0.444-1.02,0.871-1.563,1.284h1.546c0.789-0.661,1.533-1.353,2.214-2.084v-1.464
				C84.593,51.824,84.164,52.287,83.714,52.737z"/>
			<path d="M65.825,61.986c0.431-0.055,0.858-0.113,1.284-0.184v-0.98c-0.426,0.072-0.854,0.137-1.284,0.195V61.986z"/>
			<polygon points="30.535,81.8 30.243,83.083 31.231,83.083 31.522,81.8 			"/>
			<polygon points="65.825,74.797 67.109,74.369 67.109,73.354 65.825,73.782 			"/>
			<path d="M39.495,28.906h0.086c0.606-0.447,1.225-0.875,1.855-1.284H39.7c-0.503,0.354-1.002,0.715-1.489,1.094v1.247
				c0.421-0.341,0.85-0.671,1.284-0.994V28.906z"/>
			<path d="M29.493,39.748c0.269-0.431,0.548-0.859,0.839-1.284h-1.171c-0.28,0.425-0.547,0.854-0.806,1.284H29.493z"/>
			<path d="M28.11,40.168c-0.464,0.797-0.895,1.603-1.284,2.419v2.431c0.378-0.958,0.806-1.904,1.284-2.836V40.168z"/>
			<path d="M28.11,69.875V68.26c-0.035-0.051-0.071-0.099-0.106-0.15c-0.44-0.645-0.825-1.332-1.178-2.042v1.971
				c0.127,0.205,0.247,0.416,0.382,0.614C27.503,69.085,27.804,69.49,28.11,69.875z"/>
			<path d="M38.21,28.716c-0.327,0.254-0.644,0.525-0.963,0.791v1.249c0.316-0.272,0.64-0.531,0.963-0.792V28.716z"/>
			<path d="M84.997,52.81c0.335-0.359,0.655-0.728,0.964-1.104v-1.589c-0.305,0.419-0.625,0.83-0.964,1.229V52.81z"/>
			<path d="M26.826,42.587c-0.354,0.74-0.67,1.49-0.963,2.246v3.03c0.272-0.96,0.593-1.908,0.963-2.845V42.587z"/>
			<path d="M30.333,38.463c0.221-0.322,0.444-0.644,0.678-0.963h-1.185c-0.225,0.319-0.451,0.64-0.665,0.963H30.333z"/>
			<path d="M41.436,27.622c0.513-0.333,1.033-0.655,1.562-0.963h-1.853c-0.487,0.312-0.972,0.629-1.446,0.963H41.436z"/>
			<polygon points="68.072,84.046 68.072,82.82 67.811,84.046 			"/>
			<path d="M85.961,27.87v-1.212h-1.212C85.181,27.044,85.581,27.45,85.961,27.87z"/>
			<polygon points="30.243,83.083 30.025,84.046 31.013,84.046 31.231,83.083 			"/>
			<path d="M81.237,54.894c-0.435,0.332-0.883,0.652-1.35,0.964h1.67c0.421-0.313,0.83-0.633,1.226-0.964H81.237z"/>
			<path d="M67.109,61.803c0.323-0.053,0.643-0.113,0.963-0.175V60.65c-0.318,0.062-0.641,0.117-0.963,0.172V61.803z"/>
			<path d="M26.826,66.067c-0.369-0.741-0.69-1.516-0.963-2.326v2.558c0.29,0.602,0.613,1.18,0.963,1.739V66.067z"/>
			<polygon points="67.109,74.369 68.072,74.047 68.072,73.031 67.109,73.354 			"/>
			<polygon points="68.072,74.047 69.355,73.618 69.355,72.604 68.072,73.031 			"/>
			<polygon points="68.072,84.046 67.811,84.046 67.619,84.935 66.149,85.33 68.521,85.33 69.355,81.422 69.355,76.82 68.072,82.82 
							"/>
			<path d="M68.072,61.628c0.433-0.083,0.859-0.174,1.283-0.271v-0.99c-0.424,0.101-0.851,0.199-1.283,0.284V61.628z"/>
			<path d="M85.961,50.116v1.589c0.388-0.475,0.76-0.959,1.106-1.461c0.062-0.092,0.117-0.185,0.179-0.276v-1.8
				c-0.302,0.513-0.622,1.023-0.973,1.529C86.176,49.84,86.063,49.975,85.961,50.116z"/>
			<path d="M79.888,55.858c-0.673,0.449-1.379,0.877-2.116,1.283h1.907c0.655-0.408,1.277-0.839,1.879-1.283H79.888z"/>
			<path d="M85.961,26.658v1.212c0.425,0.469,0.827,0.952,1.186,1.461c0.035,0.049,0.065,0.101,0.1,0.15v-1.604
				c-0.739-0.907-1.587-1.739-2.531-2.505h-1.598c0.576,0.406,1.124,0.832,1.632,1.285H85.961z"/>
			<path d="M37.247,29.506c-0.435,0.36-0.863,0.729-1.285,1.108v1.308c0.423-0.397,0.848-0.792,1.285-1.168V29.506z"/>
			<path d="M42.998,26.658c0.78-0.455,1.577-0.883,2.39-1.285h-2.095c-0.731,0.405-1.445,0.835-2.148,1.285H42.998z"/>
			<path d="M25.863,63.741c-0.762-2.265-1.156-4.786-1.156-7.552c0-2.86,0.392-5.637,1.156-8.326v-3.03
				c-0.526,1.355-0.955,2.734-1.285,4.137v13.876c0.329,1.218,0.761,2.367,1.285,3.452V63.741z"/>
			<polygon points="30.025,84.046 29.735,85.33 30.722,85.33 31.013,84.046 			"/>
			<path d="M31.011,37.5c0.316-0.432,0.644-0.859,0.984-1.284h-1.22c-0.327,0.425-0.644,0.853-0.948,1.284H31.011z"/>
			<path d="M84.715,25.374c-0.412-0.334-0.843-0.656-1.295-0.963h-1.811c0.527,0.304,1.027,0.626,1.508,0.963H84.715z"/>
			<path d="M77.771,57.142c-0.608,0.336-1.234,0.657-1.885,0.963h2.138c0.568-0.308,1.12-0.63,1.654-0.963H77.771z"/>
			<path d="M35.962,31.923v-1.308c-0.323,0.292-0.647,0.582-0.963,0.885v1.365C35.317,32.545,35.637,32.23,35.962,31.923z"/>
			<path d="M87.246,49.968c0.345-0.514,0.664-1.031,0.962-1.552v-2.087c-0.289,0.617-0.605,1.23-0.962,1.839V49.968z"/>
			<path d="M45.388,25.374c0.691-0.339,1.392-0.662,2.107-0.963h-2.342c-0.629,0.306-1.25,0.626-1.859,0.963H45.388z"/>
			<path d="M69.355,61.356c0.323-0.073,0.646-0.146,0.964-0.228v-0.992c-0.317,0.084-0.642,0.154-0.964,0.229V61.356z"/>
			<polygon points="69.355,73.618 70.094,73.371 69.355,76.82 69.355,81.422 70.319,76.923 70.319,72.281 69.355,72.604 			"/>
			<polygon points="29.735,85.33 29.516,86.294 30.504,86.294 30.722,85.33 			"/>
			<path d="M68.521,85.33h-2.371l-0.802,0.216c-1.181,0.318-2.28,0.564-3.315,0.748h4.243l2.163-0.582L68.521,85.33z"/>
			<path d="M44.674,85.68c-2.162,0-4.399,0.21-6.67,0.614h13.973c-0.497-0.05-1.007-0.102-1.547-0.161
				C48.008,85.829,46.09,85.68,44.674,85.68z"/>
			<path d="M31.995,36.216c0.258-0.323,0.522-0.644,0.793-0.963h-1.248c-0.262,0.319-0.518,0.64-0.766,0.963H31.995z"/>
			<path d="M87.246,27.878v1.604c0.355,0.517,0.673,1.045,0.962,1.581v-1.866c-0.093-0.14-0.177-0.282-0.273-0.42
				C87.717,28.469,87.484,28.171,87.246,27.878z"/>
			<path d="M23.743,56.189c0,2.393,0.283,4.616,0.835,6.657V48.97C24.028,51.314,23.743,53.721,23.743,56.189z"/>
			<path d="M66.275,86.294h-4.243c-1.44,0.255-2.755,0.385-3.959,0.385c-1.513,0-3.523-0.127-6.097-0.385H38.004
				c-0.644,0.114-1.289,0.238-1.937,0.385l-3.981,0.899h4.395c2.797-0.617,5.552-0.936,8.192-0.936c1.376,0,3.253,0.147,5.578,0.438
				l0.072,0.009c2.241,0.247,4.104,0.406,5.648,0.488h3.644c1.772-0.137,3.744-0.499,5.983-1.102L66.275,86.294z"/>
			<path d="M70.319,60.137v0.992c0.434-0.111,0.859-0.239,1.285-0.366v-1.004C71.179,59.891,70.753,60.021,70.319,60.137z"/>
			<path d="M78.024,58.104h-2.138c-0.112,0.052-0.217,0.111-0.329,0.162c-0.921,0.42-1.869,0.786-2.834,1.122h2.651
				c0.193-0.083,0.392-0.158,0.583-0.246C76.672,58.816,77.357,58.466,78.024,58.104z"/>
			<polygon points="29.516,86.294 29.226,87.578 30.213,87.578 30.504,86.294 			"/>
			<path d="M32.788,35.253c0.396-0.464,0.802-0.925,1.226-1.381c0.322-0.347,0.655-0.675,0.985-1.007V31.5
				c-0.436,0.42-0.862,0.858-1.284,1.301v1.168h-1.079c-0.377,0.424-0.742,0.853-1.096,1.284H32.788z"/>
			<path d="M88.208,31.063c0.552,1.025,0.98,2.085,1.284,3.175v-2.761c-0.363-0.779-0.791-1.539-1.284-2.28V31.063z"/>
			<path d="M83.42,24.411c-0.676-0.46-1.397-0.887-2.159-1.284h-2.263c0.927,0.386,1.796,0.815,2.611,1.284H83.42z"/>
			<path d="M47.495,24.411c1.137-0.479,2.305-0.905,3.502-1.284h-2.909c-1.001,0.392-1.98,0.82-2.936,1.284H47.495z"/>
			<path d="M88.208,46.329v2.087c0.488-0.852,0.923-1.711,1.284-2.579v-3.032C89.189,43.992,88.755,45.167,88.208,46.329z"/>
			<polygon points="71.389,71.924 70.319,72.281 70.319,76.923 			"/>
			<path d="M89.492,34.238c0.371,1.328,0.568,2.7,0.568,4.114c0,1.497-0.192,2.983-0.568,4.453v3.032
				c0.609-1.463,1.04-2.948,1.285-4.448v-5.847c-0.243-1.402-0.675-2.758-1.285-4.064V34.238z"/>
			<path d="M36.481,87.578h-4.395l-1.975,0.446l0.102-0.446h-0.988l-0.291,1.283h1.838l5.507-1.242
				C36.347,87.603,36.414,87.593,36.481,87.578z"/>
			<path d="M78.998,23.126h2.263c-0.674-0.351-1.37-0.685-2.11-0.985c-0.262-0.107-0.537-0.201-0.808-0.299h-3.411
				c1.377,0.314,2.663,0.707,3.856,1.191C78.859,23.063,78.928,23.097,78.998,23.126z"/>
			<path d="M50.998,23.126c1.638-0.52,3.33-0.951,5.08-1.284h-4.211c-1.294,0.371-2.55,0.804-3.777,1.284H50.998z"/>
			<path d="M71.604,59.759v1.004c1.292-0.388,2.55-0.845,3.771-1.374h-2.651C72.353,59.518,71.98,59.643,71.604,59.759z"/>
			<path d="M33.715,32.801c-0.134,0.141-0.273,0.272-0.406,0.416c-0.231,0.249-0.45,0.501-0.673,0.752h1.079V32.801z"/>
			<path d="M58.073,87.642c0.496,0,1.011-0.022,1.542-0.063h-3.644C56.751,87.619,57.456,87.642,58.073,87.642z"/>
			<path d="M60.607,21.201c1.734-0.167,3.51-0.258,5.339-0.258c1.809,0,3.491,0.089,5.07,0.258h5.342
				c-0.934-0.256-1.912-0.468-2.936-0.643H57.916c-1.188,0.175-2.357,0.387-3.499,0.643H60.607z"/>
			<path d="M91.024,38.352c0-0.955-0.088-1.892-0.247-2.811v5.847C90.941,40.383,91.024,39.371,91.024,38.352z"/>
			<polygon points="28.836,89.301 30.773,88.861 28.935,88.861 			"/>
			<path d="M56.077,21.842c1.472-0.28,2.982-0.494,4.53-0.642h-6.19c-0.863,0.193-1.716,0.403-2.552,0.642H56.077z"/>
			<path d="M78.343,21.842c-0.641-0.234-1.297-0.453-1.984-0.642h-5.342c1.388,0.148,2.689,0.362,3.915,0.642H78.343z"/>
			<path d="M44.822,36.611c-0.189,0.355-0.398,0.698-0.606,1.04c0.459-0.355,0.933-0.702,1.422-1.04H44.822z"/>
			<path d="M51.319,39.231c-0.055,0.276-0.128,0.615-0.227,1.032L43.917,68.76c-0.641,2.564-1.316,4.237-1.915,5.334h1.441
				c0.576-1.194,1.168-2.815,1.72-5.022l7.174-28.495c0.384-1.617,0.426-2.228,0.426-2.415c0-0.025,0-0.078-0.126-0.201
				c-0.111-0.106-0.206-0.145-0.359-0.145c-0.062,0-0.256,0.008-0.706,0.077l-2.428,0.374l0.441-1.656h-1.329l-0.859,3.225
				L51.319,39.231z"/>
			<path d="M37.856,62.713c1.958,1.439,2.963,2.995,2.963,4.605c0,1.141-0.441,2.155-1.274,2.934
				c-0.805,0.75-1.811,1.146-2.911,1.146c-0.275,0-0.547-0.026-0.819-0.065v1.298c0.271,0.031,0.543,0.052,0.819,0.052
				c1.431,0,2.74-0.516,3.787-1.491c1.101-1.028,1.682-2.366,1.682-3.873c0-2.042-1.18-3.945-3.468-5.626
				c-1.302-0.994-2.247-1.967-2.82-2.901v2.092C36.377,61.491,37.057,62.103,37.856,62.713z"/>
			<path d="M54.694,72.582c-0.127,0.503-0.268,1.007-0.403,1.512h1.333c0.104-0.397,0.213-0.794,0.312-1.19l2.328-9.007
				c0.196-1.666,0.592-3.273,1.166-4.792c-0.369-0.013-0.781-0.028-1.241-0.052L54.694,72.582z"/>
			<path d="M62.105,51.734l-0.819-0.044l2.682-9.993c0.477-1.888,0.938-3.582,1.38-5.085H64.01c-0.414,1.428-0.844,3.02-1.287,4.77
				l-3.088,11.505l2.399,0.13c0.125,0.006,0.262,0.008,0.398,0.008c0.208,0,0.419-0.007,0.633-0.021
				c0.457-0.531,0.938-1.04,1.447-1.521c-0.729,0.169-1.425,0.259-2.08,0.259C62.316,51.74,62.199,51.738,62.105,51.734z"/>
			<path d="M36.083,45.208c-0.089,0.162-0.183,0.324-0.268,0.486v3.178c0.606-1.669,1.473-3.361,2.608-5.065
				C37.678,44.325,36.896,44.792,36.083,45.208z"/>
			<path d="M74.811,36.611c0.091,0.498,0.137,1.029,0.137,1.598c0,2.67-0.764,5.096-2.335,7.419
				c-0.373,0.551-0.756,1.06-1.149,1.532c0.681-0.251,1.379-0.462,2.092-0.641c0.04-0.059,0.082-0.112,0.121-0.172
				c1.205-1.781,1.98-3.682,2.332-5.669v-4.066H74.811z"/>
			<path d="M35.815,72.631v-1.298c-0.324-0.046-0.645-0.116-0.962-0.218v1.336C35.17,72.532,35.491,72.593,35.815,72.631z"/>
			<path d="M64.294,35.648c-0.093,0.313-0.188,0.632-0.284,0.963h1.338c0.099-0.331,0.195-0.652,0.29-0.963H64.294z"/>
			<path d="M35.815,58.791c-0.089-0.146-0.171-0.291-0.243-0.435c-0.374-0.755-0.61-1.646-0.72-2.646v3.953
				c0.267,0.405,0.586,0.812,0.962,1.22V58.791z"/>
			<path d="M42.002,74.094c-0.212,0.39-0.415,0.706-0.602,0.963h1.529c0.168-0.286,0.34-0.604,0.513-0.963H42.002z"/>
			<path d="M38.423,43.807c0.024-0.037,0.044-0.073,0.069-0.109c1.505-2.239,3.421-4.261,5.724-6.047
				c0.208-0.342,0.417-0.685,0.606-1.04h0.816c0.48-0.331,0.976-0.651,1.485-0.963h-2.328c-0.31,0.215-0.622,0.43-0.92,0.653
				c-1.606,2.955-3.951,5.443-6.792,7.223c-0.361,0.562-0.694,1.124-1,1.685C36.896,44.792,37.678,44.325,38.423,43.807z"/>
			<path d="M71.463,47.16c-0.6,0.722-1.223,1.348-1.866,1.881c0.96-0.498,1.963-0.919,3.007-1.253
				c0.323-0.399,0.642-0.82,0.951-1.27C72.842,46.697,72.144,46.908,71.463,47.16z"/>
			<path d="M35.815,45.694c-0.366,0.706-0.683,1.409-0.962,2.109v5.204c0.132-1.359,0.456-2.739,0.962-4.135V45.694z"/>
			<polygon points="49.585,36.611 49.842,35.648 48.514,35.648 48.257,36.611 			"/>
			<path d="M74.811,36.611h1.197v4.066c0.144-0.809,0.225-1.631,0.225-2.468c0-0.928-0.117-1.776-0.339-2.561h-1.339
				C74.66,35.956,74.748,36.273,74.811,36.611z"/>
			<path d="M55.371,75.057c0.087-0.321,0.169-0.642,0.254-0.963h-1.333c-0.086,0.321-0.168,0.642-0.257,0.963H55.371z"/>
			<path d="M67.066,50.609c-0.892,0.394-1.743,0.685-2.554,0.873c-0.509,0.481-0.99,0.991-1.447,1.521
				c0.487-0.034,0.989-0.109,1.504-0.218C65.339,51.991,66.172,51.263,67.066,50.609z"/>
			<path d="M58.266,63.896l0.908-3.516c0.305,0.012,0.576,0.019,0.827,0.023c0.138-0.433,0.287-0.86,0.454-1.279
				c-0.288-0.001-0.629-0.008-1.023-0.021C58.857,60.623,58.462,62.23,58.266,63.896z"/>
			<path d="M60.52,60.409c0.168,0,0.33-0.009,0.498-0.011c0.147-0.439,0.311-0.872,0.49-1.296c-0.329,0.008-0.655,0.023-0.988,0.023
				c-0.019,0-0.044,0-0.064-0.001c-0.167,0.419-0.316,0.847-0.454,1.279C60.186,60.407,60.364,60.409,60.52,60.409z"/>
			<path d="M53.764,76.02h1.335c0.09-0.321,0.184-0.643,0.272-0.963h-1.336C53.946,75.379,53.855,75.698,53.764,76.02z"/>
			<path d="M34.853,71.115c-0.325-0.105-0.646-0.243-0.963-0.405v1.42c0.317,0.13,0.639,0.236,0.963,0.321V71.115z"/>
			<path d="M41.4,75.057c-0.28,0.384-0.528,0.64-0.724,0.803c-0.052,0.044-0.125,0.099-0.219,0.16h1.825
				c0.208-0.267,0.426-0.585,0.648-0.963H41.4z"/>
			<path d="M72.604,47.788c-1.044,0.334-2.047,0.755-3.007,1.253c-0.719,0.597-1.462,1.08-2.228,1.435
				c-0.103,0.047-0.203,0.089-0.303,0.133c-0.895,0.654-1.728,1.382-2.497,2.176c0.097-0.021,0.193-0.042,0.292-0.065v-0.072h0.296
				c0.479-0.126,0.969-0.284,1.471-0.472c1.36-1.146,2.886-2.097,4.537-2.816C71.659,48.887,72.138,48.363,72.604,47.788z"/>
			<path d="M47.123,35.648c0.532-0.326,1.079-0.643,1.643-0.949l-0.252,0.949h1.329l0.257-0.963h-3.836
				c-0.502,0.313-0.992,0.633-1.467,0.963H47.123z"/>
			<path d="M74.555,35.648h1.339c-0.092-0.333-0.2-0.655-0.334-0.963h-1.431C74.298,34.989,74.439,35.31,74.555,35.648z"/>
			<path d="M65.638,35.648c0.102-0.333,0.203-0.653,0.302-0.963h-1.347c-0.099,0.311-0.198,0.632-0.299,0.963H65.638z"/>
			<path d="M37.083,43.524c2.841-1.78,5.186-4.269,6.792-7.223c-0.891,0.667-1.721,1.37-2.504,2.101
				c-0.291,0.371-0.597,0.729-0.914,1.076v1.233h-1.233c-0.084,0.077-0.167,0.155-0.253,0.23c-0.548,0.661-1.073,1.336-1.545,2.04
				C37.305,43.162,37.2,43.343,37.083,43.524z"/>
			<path d="M34.853,59.663V55.71c-0.045-0.409-0.075-0.833-0.075-1.281c0-0.471,0.028-0.945,0.075-1.421v-5.204
				c-0.42,1.052-0.74,2.096-0.963,3.134v6.53c0.143,0.516,0.31,1.01,0.532,1.458C34.542,59.169,34.69,59.416,34.853,59.663z"/>
			<path d="M75.56,34.685c-0.145-0.335-0.314-0.656-0.508-0.963h-1.591c0.258,0.303,0.48,0.623,0.668,0.963H75.56z"/>
			<path d="M41.371,38.402c-0.313,0.292-0.618,0.588-0.914,0.891v0.186C40.774,39.13,41.081,38.773,41.371,38.402z"/>
			<path d="M61.018,60.398c0.343-0.005,0.685-0.013,1.024-0.025c0.161-0.443,0.341-0.877,0.534-1.304
				c-0.353,0.018-0.711,0.023-1.068,0.033C61.328,59.526,61.165,59.959,61.018,60.398z"/>
			<path d="M39.165,40.711c-0.065,0.077-0.128,0.153-0.193,0.23c0.086-0.075,0.169-0.154,0.253-0.23H39.165z"/>
			<path d="M65.939,34.685c0.108-0.334,0.214-0.655,0.319-0.963h-1.355c-0.103,0.309-0.206,0.631-0.311,0.963H65.939z"/>
			<path d="M67.908,51.641c1.141-0.528,2.227-1.296,3.257-2.282c-1.651,0.719-3.177,1.67-4.537,2.816
				C67.048,52.018,67.475,51.842,67.908,51.641z"/>
			<path d="M33.494,54.429c0,1.113,0.142,2.122,0.396,3.039v-6.53C33.637,52.112,33.494,53.278,33.494,54.429z"/>
			<path d="M50.099,34.685l0.256-0.963h-2.45c-0.562,0.312-1.11,0.632-1.643,0.963H50.099z"/>
			<path d="M33.89,70.71c-0.325-0.166-0.646-0.369-0.963-0.594v1.539c0.317,0.184,0.638,0.34,0.963,0.475V70.71z"/>
			<path d="M53.764,76.02c-0.092,0.323-0.189,0.643-0.283,0.964h1.345c0.093-0.321,0.183-0.643,0.274-0.964H53.764z"/>
			<path d="M42.282,76.02h-1.825c-0.365,0.238-1.083,0.597-2.442,0.964h3.307c0.066-0.05,0.129-0.096,0.183-0.142
				C41.741,76.644,42.003,76.377,42.282,76.02z"/>
			<path d="M50.612,32.759h-0.843c-0.329,0.158-0.658,0.308-0.985,0.478c-0.301,0.156-0.585,0.323-0.878,0.484h2.45L50.612,32.759z"
				/>
			<path d="M62.042,60.373c0.354-0.014,0.702-0.032,1.053-0.055c0.176-0.453,0.37-0.896,0.584-1.33
				c-0.365,0.03-0.731,0.062-1.103,0.081C62.383,59.496,62.203,59.93,62.042,60.373z"/>
			<path d="M38.015,76.983c-0.71,0.19-1.59,0.386-2.692,0.565l-1.921,0.313l-0.02,0.084h5.896c1.011-0.336,1.644-0.673,2.043-0.963
				H38.015z"/>
			<path d="M32.927,70.116c-0.326-0.232-0.646-0.499-0.963-0.794v1.693c0.316,0.239,0.638,0.452,0.963,0.64V70.116z"/>
			<path d="M73.461,33.721h1.591c-0.213-0.338-0.46-0.658-0.732-0.962h-1.861c0.036,0.027,0.074,0.052,0.108,0.08
				C72.906,33.114,73.197,33.411,73.461,33.721z"/>
			<path d="M54.711,77.385c0.039-0.135,0.075-0.269,0.114-0.401H53.48c-0.095,0.32-0.186,0.643-0.284,0.963h8.775v-0.938
				c-1.594,0.395-3.105,0.597-4.512,0.597C56.634,77.605,55.715,77.53,54.711,77.385z"/>
			<path d="M64.903,33.721h1.355c0.058-0.169,0.115-0.342,0.173-0.502l0.161-0.46h-1.36l-0.013,0.034
				C65.116,33.088,65.009,33.4,64.903,33.721z"/>
			<path d="M39.278,77.946h-5.896l-0.218,0.963h1.794l0.572-0.093C37.153,78.55,38.368,78.249,39.278,77.946z"/>
			<path d="M50.634,32.676l1.11-0.107c2.194-0.213,4.243-0.471,6.136-0.774h-5.945c-0.725,0.293-1.447,0.616-2.167,0.964h0.843
				L50.634,32.676z"/>
			<path d="M31.963,69.322c-0.326-0.301-0.647-0.638-0.963-1.006v1.881c0.316,0.3,0.637,0.573,0.963,0.818V69.322z"/>
			<polygon points="66.593,32.759 66.932,31.795 65.571,31.795 65.232,32.759 			"/>
			<path d="M61.972,77.946h-8.775c-0.046,0.151-0.087,0.306-0.134,0.458c1.646,0.322,3.12,0.484,4.397,0.484
				c1.702,0,3.539-0.272,5.476-0.805v-1.332c-0.325,0.094-0.646,0.179-0.964,0.257V77.946z"/>
			<path d="M64.16,60.24c0.198-0.466,0.416-0.921,0.657-1.362c-0.377,0.043-0.756,0.08-1.139,0.11
				c-0.214,0.434-0.408,0.877-0.584,1.33C63.451,60.296,63.808,60.273,64.16,60.24z"/>
			<path d="M74.319,32.759c-0.284-0.321-0.591-0.63-0.94-0.916c-0.021-0.017-0.048-0.031-0.068-0.048h-2.523
				c0.638,0.272,1.195,0.593,1.671,0.964H74.319z"/>
			<path d="M30.037,41.315v2.046c0.416-0.823,0.874-1.636,1.374-2.438C30.961,41.073,30.505,41.208,30.037,41.315z"/>
			<path d="M31,70.197v-1.881c-0.326-0.379-0.647-0.786-0.963-1.234v2.101C30.353,69.549,30.673,69.889,31,70.197z"/>
			<path d="M62.936,78.084c0.318-0.087,0.64-0.182,0.963-0.283v-1.347c-0.324,0.106-0.646,0.206-0.963,0.298V78.084z"/>
			<polygon points="34.958,78.909 33.165,78.909 32.946,79.872 34.263,79.872 34.463,78.99 			"/>
			<path d="M81.787,51.684v-0.202c-0.069,0.067-0.134,0.136-0.206,0.202H81.787z"/>
			<path d="M64.16,60.24c0.235-0.021,0.469-0.047,0.701-0.073v-1.294c-0.014,0.001-0.03,0.004-0.044,0.005
				C64.576,59.319,64.358,59.774,64.16,60.24z"/>
			<path d="M66.932,31.795l0.32-0.909c1.368,0.182,2.545,0.488,3.535,0.909h2.523c-0.455-0.362-0.973-0.682-1.55-0.963h-5.852
				l-0.338,0.963H66.932z"/>
			<path d="M57.881,31.795c1.773-0.282,3.402-0.605,4.891-0.963h-8.158c-0.897,0.279-1.79,0.604-2.678,0.963H57.881z"/>
			<path d="M81.787,51.481v0.202h-0.206c-0.354,0.33-0.726,0.651-1.11,0.963h1.964c0.109-0.102,0.209-0.209,0.316-0.312v-1.833
				C82.443,50.837,82.12,51.163,81.787,51.481z"/>
			<path d="M62.771,30.832c0.18-0.043,0.364-0.085,0.54-0.129l2.901-0.733l-0.304,0.862h5.852c-0.844-0.411-1.827-0.729-2.929-0.963
				H58.6c-1.335,0.234-2.664,0.552-3.986,0.963H62.771z"/>
			<path d="M40.458,29.869v1.184c0.54-0.411,1.091-0.805,1.652-1.184H40.458z"/>
			<path d="M63.898,76.454v1.347c0.168-0.052,0.337-0.104,0.508-0.16l0.455-0.151v-1.354L64,76.422
				C63.966,76.434,63.933,76.442,63.898,76.454z"/>
			<path d="M30.037,67.082c-0.058-0.082-0.119-0.153-0.176-0.239c-0.285-0.417-0.543-0.857-0.787-1.31v2.421
				c0.315,0.438,0.636,0.85,0.963,1.229V67.082z"/>
			<polygon points="32.946,79.872 32.728,80.836 34.044,80.836 34.263,79.872 			"/>
			<path d="M30.037,41.315c0.468-0.106,0.924-0.242,1.374-0.392c0.044-0.071,0.088-0.142,0.133-0.212h-1.517
				c-0.339,0.562-0.654,1.131-0.953,1.704v3.038c0.29-0.705,0.614-1.401,0.963-2.092V41.315z"/>
			<path d="M39.225,40.711h1.233v-1.233C40.066,39.908,39.655,40.319,39.225,40.711z"/>
			<path d="M64.861,52.647v0.072c0.098-0.023,0.195-0.047,0.296-0.072H64.861z"/>
			<path d="M40.458,39.478v-0.186c-0.452,0.461-0.882,0.934-1.293,1.418h0.06C39.655,40.319,40.066,39.908,40.458,39.478z"/>
			<path d="M64.861,60.167c0.139-0.016,0.275-0.035,0.413-0.051c0.169-0.362,0.354-0.714,0.551-1.059v-0.305
				c-0.319,0.045-0.641,0.083-0.964,0.12V60.167z"/>
			<polygon points="32.728,80.836 32.509,81.8 33.827,81.8 34.044,80.836 			"/>
			<path d="M63.866,29.397c-1.76,0-3.519,0.165-5.267,0.472h10.232C67.387,29.561,65.739,29.397,63.866,29.397z"/>
			<path d="M82.751,52.335c0.332-0.321,0.655-0.647,0.963-0.983V49.37c-0.306,0.387-0.626,0.765-0.963,1.133V52.335z"/>
			<path d="M65.825,60.047v-0.989c-0.197,0.345-0.382,0.696-0.551,1.059C65.457,60.093,65.642,60.071,65.825,60.047z"/>
			<path d="M31.544,40.711c0.205-0.323,0.416-0.644,0.634-0.963h-1.547c-0.207,0.32-0.41,0.64-0.604,0.963H31.544z"/>
			<path d="M40.458,29.869h1.652c0.492-0.333,0.989-0.656,1.498-0.963h-2.375c-0.59,0.403-1.169,0.822-1.737,1.259v1.653
				c0.318-0.26,0.637-0.517,0.963-0.765V29.869z"/>
			<path d="M29.074,67.954v-2.421c-0.367-0.679-0.691-1.392-0.963-2.143v3.065c0.216,0.38,0.444,0.752,0.689,1.11
				C28.891,67.7,28.982,67.826,29.074,67.954z"/>
			<path d="M80.471,52.647c-0.407,0.331-0.831,0.652-1.27,0.963h2.119c0.384-0.313,0.758-0.632,1.114-0.963H80.471z"/>
			<polygon points="64.861,77.489 65.825,77.167 65.825,75.812 64.861,76.135 			"/>
			<path d="M29.074,42.415c-0.348,0.667-0.668,1.34-0.963,2.02v3.75c0.273-0.921,0.593-1.833,0.963-2.732V42.415z"/>
			<path d="M66.015,58.73c-0.063,0.009-0.127,0.014-0.189,0.022v0.305C65.888,58.948,65.949,58.837,66.015,58.73z"/>
			<polygon points="32.509,81.8 32.219,83.083 33.535,83.083 33.827,81.8 			"/>
			<path d="M65.825,59.058v0.989c0.431-0.06,0.858-0.129,1.284-0.202v-1.304c-0.364,0.065-0.726,0.135-1.095,0.189
				C65.949,58.837,65.888,58.948,65.825,59.058z"/>
			<path d="M39.495,30.165c-0.437,0.336-0.861,0.689-1.284,1.045v1.701c0.42-0.376,0.849-0.738,1.284-1.093V30.165z"/>
			<path d="M28.11,63.391c-0.768-2.123-1.156-4.532-1.156-7.201c0-2.75,0.391-5.419,1.156-8.004v-3.75
				c-0.507,1.17-0.935,2.359-1.284,3.566v15.594c0.35,1.012,0.775,1.967,1.284,2.861V63.391z"/>
			<path d="M84.997,30.22v-1.979c-0.201-0.212-0.414-0.417-0.632-0.62h-1.977C83.4,28.399,84.269,29.268,84.997,30.22z"/>
			<polygon points="65.825,77.167 67.073,76.75 65.717,83.083 67.031,83.083 67.109,82.719 67.109,75.384 65.825,75.812 			"/>
			<path d="M32.178,39.748c0.295-0.431,0.603-0.859,0.922-1.284h-1.596c-0.303,0.425-0.594,0.853-0.874,1.284H32.178z"/>
			<path d="M79.201,53.61c-0.638,0.451-1.313,0.877-2.018,1.284h2.421c0.6-0.41,1.171-0.838,1.716-1.284H79.201z"/>
			<path d="M83.714,49.37v1.982c0.457-0.501,0.883-1.021,1.283-1.556v-2.264c-0.185,0.296-0.368,0.593-0.571,0.887
				C84.2,48.745,83.959,49.058,83.714,49.37z"/>
			<path d="M43.607,28.906c0.757-0.458,1.536-0.881,2.328-1.284h-2.676c-0.688,0.408-1.367,0.833-2.027,1.284H43.607z"/>
			<path d="M25.863,52.838v6.559c0.185,1.492,0.51,2.891,0.963,4.197V48.001C26.369,49.583,26.047,51.195,25.863,52.838z"/>
			<polygon points="67.109,82.719 68.072,78.218 68.072,75.062 67.109,75.384 			"/>
			<path d="M65.717,83.083l-0.007,0.039l-0.947,0.255c-1.037,0.278-2.016,0.501-2.938,0.669h5l0.206-0.963H65.717z"/>
			<path d="M84.997,30.22c0.104,0.135,0.214,0.267,0.312,0.405c0.236,0.334,0.451,0.673,0.652,1.016v-2.274
				c-0.302-0.388-0.62-0.765-0.964-1.126V30.22z"/>
			<path d="M84.365,27.622c-0.355-0.333-0.729-0.656-1.125-0.963h-2.251c0.492,0.305,0.961,0.625,1.399,0.963H84.365z"/>
			<path d="M44.674,83.432c-2.238,0-4.545,0.208-6.886,0.614h14.296c-0.453-0.046-0.918-0.094-1.409-0.147
				C48.194,83.589,46.184,83.432,44.674,83.432z"/>
			<polygon points="32.219,83.083 32.001,84.046 33.317,84.046 33.535,83.083 			"/>
			<path d="M38.21,31.21c-0.326,0.274-0.646,0.555-0.963,0.841v1.744c0.316-0.303,0.639-0.595,0.963-0.884V31.21z"/>
			<path d="M77.184,54.894c-0.582,0.337-1.188,0.657-1.815,0.964h2.72c0.522-0.31,1.028-0.631,1.517-0.964H77.184z"/>
			<path d="M67.109,59.845c0.321-0.057,0.646-0.107,0.963-0.173V58.36c-0.317,0.067-0.642,0.122-0.963,0.181V59.845z"/>
			<path d="M84.997,49.796c0.163-0.216,0.332-0.426,0.484-0.647c0.171-0.246,0.321-0.495,0.479-0.743v-2.575
				c-0.285,0.57-0.611,1.137-0.964,1.701V49.796z"/>
			<path d="M33.101,38.463c0.243-0.322,0.491-0.644,0.747-0.963h-1.629c-0.244,0.319-0.484,0.64-0.714,0.963H33.101z"/>
			<path d="M45.935,27.622c0.669-0.341,1.352-0.662,2.045-0.963h-2.996c-0.584,0.306-1.159,0.628-1.725,0.963H45.935z"/>
			<path d="M83.24,26.658c-0.588-0.458-1.222-0.885-1.898-1.285h-2.812c0.88,0.388,1.702,0.815,2.46,1.285H83.24z"/>
			<path d="M47.98,26.658c1.096-0.477,2.221-0.906,3.378-1.285h-3.656c-0.926,0.396-1.834,0.822-2.719,1.285H47.98z"/>
			<path d="M37.247,33.795v-1.744c-0.435,0.392-0.865,0.791-1.285,1.205v1.837C36.383,34.65,36.81,34.214,37.247,33.795z"/>
			<path d="M75.368,55.858c-0.248,0.12-0.489,0.248-0.744,0.363c-0.744,0.34-1.51,0.64-2.285,0.92h3.325
				c0.845-0.403,1.654-0.828,2.424-1.283H75.368z"/>
			<path d="M66.801,84.157l0.024-0.111h-5c-1.389,0.255-2.645,0.385-3.752,0.385c-1.462,0-3.435-0.128-5.989-0.385H37.788
				c-0.736,0.129-1.474,0.273-2.215,0.44l-2.481,0.561l0.227-1.001h-1.316L31.71,85.33h6.202c2.3-0.404,4.567-0.614,6.762-0.614
				c1.456,0,3.414,0.152,5.86,0.459c0.52,0.057,1.011,0.108,1.49,0.155h9.926c0.98-0.176,2.025-0.411,3.146-0.713L66.801,84.157z"/>
			<polygon points="68.801,74.82 68.072,75.062 68.072,78.218 			"/>
			<path d="M85.961,29.367v2.274c0.552,0.937,0.979,1.907,1.285,2.908v-3.238c-0.271-0.483-0.558-0.96-0.887-1.426
				C86.234,29.708,86.094,29.54,85.961,29.367z"/>
			<path d="M25.669,56.189c0,1.111,0.065,2.181,0.194,3.208v-6.559C25.739,53.943,25.669,55.059,25.669,56.189z"/>
			<path d="M68.072,58.36v1.312c0.433-0.087,0.857-0.19,1.283-0.293v-1.32C68.933,58.167,68.505,58.268,68.072,58.36z"/>
			<path d="M85.961,45.832v2.575c0.483-0.756,0.913-1.52,1.285-2.291v-3.627C86.939,43.612,86.515,44.728,85.961,45.832z"/>
			<path d="M33.848,37.5c0.348-0.432,0.71-0.86,1.085-1.284h-1.69c-0.354,0.424-0.695,0.853-1.024,1.284H33.848z"/>
			<path d="M69.355,58.059v1.32c0.323-0.08,0.646-0.158,0.964-0.246v-1.028h3.142c0.574-0.223,1.14-0.46,1.695-0.714
				c0.176-0.079,0.337-0.167,0.508-0.249h-3.325C71.367,57.492,70.375,57.802,69.355,58.059z"/>
			<path d="M37.912,85.33H31.71l-0.218,0.964h1.91l2.453-0.555C36.543,85.584,37.229,85.451,37.912,85.33z"/>
			<path d="M51.359,25.374c1.114-0.364,2.252-0.69,3.422-0.963h-4.612c-0.838,0.293-1.658,0.619-2.465,0.963H51.359z"/>
			<path d="M58.073,85.715c1.172,0,2.458-0.128,3.877-0.385h-9.926C54.589,85.588,56.582,85.715,58.073,85.715z"/>
			<path d="M78.529,25.374h2.812c-0.575-0.341-1.179-0.665-1.815-0.963h-3.657c0.725,0.21,1.422,0.441,2.073,0.705
				C78.144,25.197,78.334,25.288,78.529,25.374z"/>
			<path d="M35.66,35.402c0.099-0.106,0.203-0.204,0.302-0.309v-1.837c-0.325,0.322-0.646,0.65-0.963,0.986v1.01h-0.927
				c-0.283,0.319-0.56,0.64-0.829,0.963h1.69C35.172,35.944,35.41,35.672,35.66,35.402z"/>
			<path d="M87.246,34.55c0.373,1.225,0.568,2.494,0.568,3.802c0,1.387-0.198,2.768-0.568,4.136v3.627
				c0.374-0.776,0.701-1.559,0.962-2.347V33.397c-0.262-0.71-0.583-1.406-0.962-2.085V34.55z"/>
			<path d="M89.099,38.352c0-1.718-0.306-3.373-0.891-4.955v10.372C88.799,41.985,89.099,40.176,89.099,38.352z"/>
			<polygon points="31.389,86.748 33.402,86.294 31.492,86.294 			"/>
			<path d="M34.999,34.243c-0.091,0.097-0.188,0.187-0.279,0.286c-0.223,0.239-0.434,0.483-0.648,0.725h0.927V34.243z"/>
			<path d="M54.781,24.411c3.478-0.811,7.203-1.221,11.166-1.221c3.819,0,7.14,0.415,9.923,1.221h3.657
				c-0.359-0.167-0.724-0.331-1.102-0.485c-0.742-0.302-1.536-0.565-2.369-0.799H54.625c-1.532,0.352-3.016,0.781-4.456,1.284
				H54.781z"/>
			<path d="M70.319,59.133c1.071-0.294,2.121-0.633,3.142-1.028h-3.142V59.133z"/>
			<path d="M65.946,21.906c-4.012,0-7.787,0.409-11.322,1.22h21.431C73.19,22.319,69.807,21.906,65.946,21.906z"/>
			<path d="M81.69,38.209c0,1.911-0.269,3.767-0.8,5.558c0.37-0.681,0.668-1.358,0.896-2.034V35.47
				c-0.165-0.403-0.363-0.8-0.604-1.191C81.52,35.512,81.69,36.826,81.69,38.209z"/>
			<path d="M82.356,38.352c0-1.009-0.19-1.962-0.569-2.882v6.263C82.168,40.607,82.356,39.485,82.356,38.352z"/>
			<path d="M56.704,41.637l-7.181,28.529c-0.363,1.448-0.763,2.755-1.202,3.928h1.309c0.243-0.874,0.489-1.748,0.709-2.622
				l3.717-14.387l-0.2-0.012l4.519-16.835c0.326-1.288,0.647-2.496,0.963-3.627H56.99c0.174,0.492,0.269,1.011,0.269,1.551
				C57.259,38.955,57.088,40.027,56.704,41.637z"/>
			<path d="M59.483,36.087c-0.818,0.14-1.665,0.271-2.538,0.394c0.018,0.042,0.03,0.087,0.045,0.129h2.348
				C59.386,36.437,59.436,36.258,59.483,36.087z"/>
			<path d="M47.934,75.057h1.436c0.092-0.321,0.171-0.642,0.261-0.963h-1.309C48.195,74.428,48.065,74.745,47.934,75.057z"/>
			<path d="M47.934,75.057c-0.141,0.334-0.287,0.653-0.435,0.963h1.577c0.096-0.321,0.2-0.64,0.293-0.963H47.934z"/>
			<path d="M47.499,76.02c-0.162,0.337-0.328,0.657-0.498,0.964h1.78c0.099-0.321,0.199-0.641,0.295-0.964H47.499z"/>
			<path d="M77.421,48.832c0.21-0.013,0.42-0.021,0.632-0.026c0.291-0.251,0.578-0.506,0.846-0.77v-1.782
				C78.477,47.133,77.985,47.993,77.421,48.832z"/>
			<path d="M47,76.983c-0.188,0.338-0.382,0.659-0.581,0.963h2.066c0.101-0.32,0.196-0.643,0.294-0.963H47z"/>
			<path d="M79.86,32.759h-0.224c0.083,0.184,0.151,0.376,0.224,0.566V32.759z"/>
			<path d="M77.421,48.832c-0.007,0.011-0.014,0.022-0.021,0.034c-0.231,0.342-0.469,0.672-0.708,0.993
				c0.012-0.001,0.025-0.003,0.037-0.004c0.468-0.336,0.904-0.688,1.323-1.049C77.841,48.811,77.631,48.818,77.421,48.832z"/>
			<path d="M78.898,48.035c0.34-0.337,0.662-0.684,0.962-1.041v-3.167c-0.262,0.824-0.582,1.633-0.962,2.426V48.035z"/>
			<path d="M76.654,49.913c0.027-0.019,0.05-0.04,0.075-0.058c-0.012,0.001-0.025,0.003-0.037,0.004
				C76.679,49.876,76.668,49.896,76.654,49.913z"/>
			<path d="M79.637,32.759h0.224v0.566c0.569,1.477,0.866,3.103,0.866,4.884c0,1.935-0.292,3.811-0.866,5.618v3.167
				c0.31-0.366,0.599-0.742,0.866-1.128c0.035-0.05,0.063-0.1,0.097-0.15V32.24c-0.145-0.152-0.304-0.298-0.462-0.445H79.15
				C79.326,32.108,79.49,32.429,79.637,32.759z"/>
			<path d="M48.486,77.946H46.42c-0.225,0.341-0.454,0.666-0.692,0.963h2.46l0.067-0.207C48.335,78.452,48.406,78.197,48.486,77.946
				z"/>
			<path d="M45.694,78.955c0.74,0.023,1.547,0.072,2.431,0.15l0.063-0.196h-2.46C45.716,78.923,45.705,78.94,45.694,78.955z"/>
			<path d="M80.823,32.24v13.476c0.362-0.533,0.683-1.062,0.964-1.591v-2.392c-0.229,0.676-0.526,1.354-0.896,2.034
				c0.531-1.792,0.8-3.647,0.8-5.558c0-1.383-0.171-2.697-0.508-3.93c0.241,0.392,0.439,0.789,0.604,1.191v-2.024
				c-0.051-0.077-0.098-0.155-0.151-0.231C81.396,32.875,81.121,32.553,80.823,32.24z"/>
			<path d="M80.361,31.795c-0.366-0.336-0.757-0.661-1.192-0.963h-0.633c0.221,0.312,0.427,0.632,0.614,0.963H80.361z"/>
			<path d="M81.787,35.47c0.379,0.919,0.569,1.873,0.569,2.882c0,1.133-0.188,2.255-0.569,3.381v2.392
				c0.401-0.754,0.721-1.506,0.964-2.257v-6.581c-0.242-0.627-0.563-1.239-0.964-1.84V35.47z"/>
			<path d="M77.98,30.097c0.197,0.238,0.379,0.485,0.556,0.735h0.633C78.796,30.575,78.403,30.328,77.98,30.097z"/>
			<path d="M83.32,38.352c0-1.073-0.192-2.088-0.569-3.066v6.581C83.127,40.702,83.32,39.535,83.32,38.352z"/>
			<path d="M55.456,41.339l-7.178,28.512c-0.399,1.599-0.843,3.008-1.332,4.242h1.375c0.439-1.173,0.839-2.479,1.202-3.928
				l7.181-28.529c0.384-1.61,0.555-2.682,0.555-3.475c0-0.54-0.095-1.059-0.269-1.551h-1.414c0.253,0.481,0.397,1,0.397,1.551
				C55.974,38.842,55.809,39.851,55.456,41.339z"/>
			<path d="M37.355,67.905c0.184-0.172,0.253-0.332,0.253-0.587c0-0.503-0.626-1.265-1.675-2.035
				c-0.041-0.031-0.077-0.062-0.118-0.092v2.85c0.276,0.09,0.549,0.147,0.819,0.147C36.927,68.188,37.143,68.103,37.355,67.905z"/>
			<path d="M58.375,40.238l-4.519,16.835l0.2,0.012l-3.717,14.387c-0.221,0.874-0.466,1.748-0.709,2.622h1.33
				c0.211-0.77,0.43-1.538,0.624-2.308l4.107-15.898l-0.184-0.012l4.107-15.305c0.359-1.422,0.712-2.735,1.059-3.96h-1.336
				C59.022,37.743,58.701,38.951,58.375,40.238z"/>
			<path d="M49.369,75.057h1.33c0.091-0.321,0.172-0.642,0.261-0.963h-1.33C49.541,74.415,49.461,74.735,49.369,75.057z"/>
			<path d="M35.815,68.041v-2.85c-0.338-0.262-0.657-0.526-0.962-0.792v3.154C35.177,67.775,35.499,67.938,35.815,68.041z"/>
			<path d="M46.946,74.094c-0.132,0.332-0.266,0.655-0.405,0.963h1.393c0.132-0.312,0.262-0.629,0.387-0.963H46.946z"/>
			<path d="M54.863,35.648c0.303,0.292,0.532,0.62,0.713,0.963h1.414c-0.015-0.042-0.027-0.087-0.045-0.129
				c0.873-0.123,1.72-0.254,2.538-0.394c-0.048,0.171-0.098,0.349-0.146,0.523h1.336c0.091-0.326,0.183-0.651,0.272-0.963H54.863z"
				/>
			<path d="M61.233,34.685H60.03c-1.664,0.302-3.447,0.568-5.352,0.796c0.063,0.054,0.125,0.109,0.185,0.167h6.083
				C61.043,35.318,61.138,34.998,61.233,34.685z"/>
			<path d="M77.935,47.84v-2.585c-0.41,0.921-0.898,1.82-1.477,2.695C76.945,47.896,77.438,47.855,77.935,47.84z"/>
			<path d="M46.541,75.057c-0.153,0.338-0.31,0.656-0.471,0.963h1.428c0.148-0.31,0.294-0.629,0.435-0.963H46.541z"/>
			<path d="M34.853,67.554v-3.154c-0.34-0.295-0.665-0.592-0.963-0.891v3.227C34.213,67.063,34.535,67.337,34.853,67.554z"/>
			<path d="M49.369,75.057c-0.093,0.323-0.197,0.642-0.293,0.963h1.343c0.094-0.321,0.188-0.641,0.281-0.963H49.369z"/>
			<path d="M78.898,33.721h-0.273c0.096,0.244,0.193,0.485,0.273,0.737V33.721z"/>
			<path d="M61.304,34.444c-0.414,0.083-0.842,0.162-1.273,0.24h1.203C61.256,34.606,61.281,34.522,61.304,34.444z"/>
			<path d="M78.898,42.497c-0.241,0.939-0.562,1.859-0.964,2.758v2.585c-0.497,0.015-0.989,0.056-1.477,0.11
				c-0.042,0.065-0.078,0.131-0.122,0.196c-0.205,0.302-0.415,0.59-0.626,0.875c0.562-0.091,1.133-0.154,1.711-0.189
				c0.564-0.839,1.056-1.699,1.478-2.579V42.497z"/>
			<path d="M78.511,48.794h0.388v-0.759c-0.268,0.264-0.555,0.519-0.846,0.77C78.205,48.802,78.356,48.794,78.511,48.794z"/>
			<path d="M49.076,76.02c-0.096,0.323-0.196,0.643-0.295,0.964h1.343c0.098-0.322,0.2-0.641,0.295-0.964H49.076z"/>
			<path d="M33.89,63.509c-0.352-0.353-0.669-0.707-0.963-1.064v3.161c0.323,0.432,0.645,0.806,0.963,1.13V63.509z"/>
			<path d="M46.07,76.02c-0.178,0.34-0.361,0.662-0.55,0.964H47c0.17-0.307,0.336-0.627,0.498-0.964H46.07z"/>
			<path d="M32.513,65.034c0.139,0.203,0.276,0.388,0.414,0.571v-3.161c-0.366-0.444-0.688-0.893-0.963-1.343v3.041
				C32.135,64.451,32.318,64.748,32.513,65.034z"/>
			<path d="M78.625,33.721h0.273v0.737c0.359,1.153,0.544,2.403,0.544,3.75c0,1.467-0.189,2.897-0.544,4.288v3.756
				c0.38-0.793,0.7-1.602,0.962-2.426V33.325c-0.072-0.19-0.141-0.382-0.224-0.566h-1.448C78.35,33.07,78.495,33.392,78.625,33.721z
				"/>
			<path d="M48.781,76.983c-0.098,0.32-0.193,0.643-0.294,0.963h1.342c0.101-0.32,0.198-0.642,0.295-0.963H48.781z"/>
			<path d="M77.421,48.832c-0.578,0.036-1.149,0.098-1.711,0.189c-0.3,0.404-0.604,0.794-0.915,1.162
				c0.619-0.143,1.253-0.253,1.897-0.324c0.239-0.321,0.477-0.651,0.708-0.993C77.407,48.854,77.414,48.843,77.421,48.832z"/>
			<path d="M45.52,76.983c-0.215,0.345-0.438,0.665-0.668,0.963h1.568c0.199-0.304,0.393-0.625,0.581-0.963H45.52z"/>
			<path d="M78.898,48.035v0.759h-0.388c-0.154,0-0.306,0.008-0.458,0.011c-0.419,0.362-0.855,0.713-1.323,1.049
				c0.586-0.062,1.179-0.097,1.781-0.097h0.403c0.33-0.287,0.646-0.58,0.946-0.881v-1.882
				C79.561,47.351,79.238,47.698,78.898,48.035z"/>
			<path d="M31.963,61.102c-0.152-0.251-0.295-0.501-0.42-0.752c-0.207-0.418-0.388-0.854-0.543-1.308V61.9
				c0.262,0.799,0.578,1.55,0.963,2.242V61.102z"/>
			<path d="M79.637,32.759c-0.146-0.33-0.311-0.651-0.486-0.964h-1.529c0.207,0.311,0.394,0.633,0.567,0.964H79.637z"/>
			<path d="M78.511,49.757c-0.603,0-1.195,0.035-1.781,0.097c-0.025,0.019-0.048,0.04-0.075,0.058
				c0.014-0.017,0.024-0.036,0.038-0.054c-0.645,0.071-1.278,0.182-1.897,0.324c-0.414,0.488-0.842,0.937-1.276,1.363
				c1.317-0.447,2.711-0.726,4.16-0.803c0.43-0.318,0.844-0.646,1.235-0.986H78.511z"/>
			<path d="M80.727,38.209c0-1.781-0.297-3.407-0.866-4.884v10.502C80.435,42.02,80.727,40.144,80.727,38.209z"/>
			<path d="M79.86,46.994v1.882c0.34-0.339,0.661-0.686,0.963-1.043v-2.117c-0.033,0.05-0.062,0.1-0.097,0.15
				C80.459,46.252,80.17,46.628,79.86,46.994z"/>
			<path d="M80.823,31.795h-0.462c0.158,0.147,0.317,0.292,0.462,0.445V31.795z"/>
			<path d="M44.852,77.946c-0.274,0.354-0.559,0.677-0.853,0.963h1.729c0.239-0.297,0.468-0.622,0.692-0.963H44.852z"/>
			<path d="M48.486,77.946c-0.08,0.251-0.151,0.506-0.232,0.756l-0.067,0.207h1.347c0.103-0.318,0.194-0.643,0.294-0.963H48.486z"/>
			<path d="M77.679,50.743c-1.449,0.077-2.843,0.355-4.16,0.803c-0.402,0.393-0.812,0.762-1.231,1.101h1.015
				c0.844-0.323,1.723-0.569,2.633-0.731C76.552,51.545,77.125,51.15,77.679,50.743z"/>
			<path d="M80.361,31.795h0.462v0.445c0.298,0.313,0.573,0.636,0.812,0.975c0.054,0.077,0.101,0.155,0.151,0.231V31.39
				c-0.18-0.191-0.368-0.376-0.566-0.558h-2.052C79.604,31.134,79.995,31.458,80.361,31.795z"/>
			<path d="M79.15,31.795c-0.188-0.331-0.394-0.651-0.614-0.963h-1.639c0.262,0.309,0.503,0.63,0.724,0.963H79.15z"/>
			<path d="M80.823,47.833c0.342-0.402,0.667-0.812,0.961-1.237c0.001-0.002,0.002-0.004,0.003-0.006v-2.465
				c-0.281,0.529-0.602,1.058-0.964,1.591V47.833z"/>
			<path d="M30.284,54.429c0-0.303,0.007-0.607,0.021-0.913c-0.094,0.882-0.14,1.773-0.14,2.673c0,2.125,0.284,4.031,0.835,5.711
				v-2.858C30.524,57.659,30.284,56.114,30.284,54.429z"/>
			<path d="M49.534,78.909h-1.347l-0.063,0.196c-0.884-0.078-1.691-0.127-2.431-0.15c0.011-0.015,0.022-0.032,0.034-0.046h-1.729
				c-0.142,0.138-0.285,0.271-0.432,0.393c-0.237,0.199-0.508,0.389-0.802,0.57h6.46l0.251-0.773
				C49.497,79.037,49.514,78.972,49.534,78.909z"/>
			<path d="M41.979,80.311c0.906-0.06,1.805-0.09,2.695-0.09c1.193,0,2.653,0.087,4.354,0.259l0.197-0.607h-6.46
				C42.521,80.024,42.263,80.17,41.979,80.311z"/>
			<path d="M76.897,30.832h1.639c-0.177-0.25-0.358-0.498-0.556-0.735c0.423,0.231,0.815,0.478,1.188,0.735h2.052
				c-0.368-0.337-0.764-0.659-1.191-0.963h-4.056C76.305,30.176,76.613,30.497,76.897,30.832z"/>
			<path d="M81.787,46.59c0.358-0.52,0.673-1.042,0.964-1.566v-3.157c-0.243,0.751-0.562,1.503-0.964,2.257V46.59z"/>
			<path d="M73.302,52.647h1.327c0.45-0.235,0.885-0.479,1.306-0.731C75.024,52.078,74.146,52.324,73.302,52.647z"/>
			<path d="M81.787,31.39v2.056c0.4,0.602,0.722,1.213,0.964,1.84v-2.711c-0.022-0.033-0.043-0.066-0.066-0.1
				C82.419,32.097,82.113,31.738,81.787,31.39z"/>
			<path d="M70.952,53.61h0.321c0.647-0.371,1.324-0.693,2.028-0.963h-1.015C71.852,52.997,71.406,53.317,70.952,53.61z"/>
			<path d="M82.751,35.286c0.377,0.978,0.569,1.993,0.569,3.066c0,1.183-0.193,2.35-0.569,3.515v3.157
				c0.379-0.684,0.7-1.371,0.963-2.06v-8.699c-0.263-0.573-0.58-1.137-0.963-1.69V35.286z"/>
			<path d="M75.974,29.869h4.056c-0.482-0.342-1.002-0.664-1.559-0.963h-3.667c0.207,0.145,0.41,0.292,0.604,0.448
				C75.607,29.518,75.787,29.695,75.974,29.869z"/>
			<path d="M74.629,52.647h-1.327c-0.704,0.27-1.381,0.592-2.028,0.963h1.292c0.242-0.102,0.486-0.2,0.725-0.308
				C73.75,53.092,74.196,52.873,74.629,52.647z"/>
			<path d="M70.952,53.61c-0.552,0.356-1.115,0.676-1.693,0.944c-0.268,0.124-0.531,0.229-0.798,0.34h0.306
				c0.323-0.083,0.642-0.171,0.958-0.265c0.492-0.372,1.01-0.711,1.549-1.019H70.952z"/>
			<path d="M84.604,38.352c0-1.444-0.298-2.793-0.89-4.087v8.699C84.299,41.432,84.604,39.89,84.604,38.352z"/>
			<path d="M78.471,28.906c-0.546-0.292-1.122-0.565-1.737-0.816c-0.421-0.17-0.866-0.324-1.326-0.468h-2.977
				c0.873,0.361,1.667,0.788,2.373,1.284H78.471z"/>
			<path d="M69.725,54.629c0.974-0.29,1.921-0.631,2.841-1.019h-1.292C70.734,53.918,70.217,54.257,69.725,54.629z"/>
			<path d="M67.997,55.092c0.26-0.06,0.515-0.131,0.77-0.198h-0.306C68.308,54.958,68.151,55.032,67.997,55.092z"/>
			<path d="M75.407,27.622c-1.395-0.44-2.968-0.762-4.718-0.963h-1.519c1.19,0.233,2.276,0.557,3.26,0.963H75.407z"/>
			<path d="M67.867,26.439c0.448,0.061,0.881,0.136,1.304,0.219h1.519C69.793,26.555,68.854,26.48,67.867,26.439z"/>
			<path d="M36.634,69.793c0.7,0,1.305-0.238,1.815-0.714c0.51-0.476,0.765-1.062,0.765-1.761c0-1.077-0.777-2.187-2.33-3.329
				c-0.382-0.291-0.733-0.582-1.068-0.876v2.078c0.041,0.029,0.077,0.061,0.118,0.092c1.049,0.771,1.675,1.532,1.675,2.035
				c0,0.255-0.069,0.415-0.253,0.587c-0.213,0.197-0.429,0.283-0.721,0.283c-0.27,0-0.542-0.058-0.819-0.147v1.66
				C36.087,69.756,36.36,69.793,36.634,69.793z"/>
			<path d="M61.166,40.987c0.404-1.596,0.796-3.05,1.174-4.376h-1.666c-0.347,1.225-0.699,2.538-1.059,3.96l-4.107,15.305
				l0.184,0.012l-4.107,15.898c-0.194,0.77-0.413,1.538-0.624,2.308h1.663c0.172-0.639,0.355-1.272,0.517-1.914l3.824-14.802
				c1.351,0.08,2.396,0.125,3.148,0.139c0.488-1.018,1.058-1.988,1.7-2.905l-4.241-0.23L61.166,40.987z"/>
			<path d="M76.008,46.057v-0.501c-0.096,0.181-0.187,0.364-0.29,0.544C75.814,46.087,75.91,46.069,76.008,46.057z"/>
			<path d="M54.369,38.162c0,0.539-0.158,1.475-0.475,2.807L46.721,69.46c-0.45,1.801-0.958,3.336-1.519,4.634h1.744
				c0.488-1.234,0.932-2.644,1.332-4.242l7.178-28.512c0.353-1.488,0.518-2.498,0.518-3.178c0-0.55-0.145-1.07-0.397-1.551h-2.067
				c0.083,0.061,0.166,0.121,0.242,0.195C54.163,37.203,54.369,37.654,54.369,38.162z"/>
			<path d="M35.815,68.041c-0.317-0.104-0.638-0.266-0.962-0.487v1.83c0.319,0.143,0.64,0.254,0.962,0.317V68.041z"/>
			<path d="M52.278,36.211c0.463,0,0.872,0.138,1.23,0.4h2.067c-0.181-0.343-0.41-0.67-0.713-0.963h-3.359l-0.176,0.658
				C51.74,36.244,52.057,36.211,52.278,36.211z"/>
			<path d="M35.815,63.113c-0.346-0.304-0.667-0.609-0.962-0.915v2.201c0.306,0.266,0.624,0.53,0.962,0.792V63.113z"/>
			<path d="M61.948,54.619l-0.136-0.007c-0.643,0.917-1.212,1.887-1.7,2.905c0.146,0.003,0.283,0.004,0.407,0.004
				c0.226,0,0.445-0.012,0.668-0.016c0.521-1.021,1.132-1.988,1.816-2.896C62.646,54.627,62.294,54.635,61.948,54.619z"/>
			<path d="M45.202,74.094c-0.146,0.337-0.293,0.66-0.447,0.963h1.786c0.139-0.308,0.273-0.631,0.405-0.963H45.202z"/>
			<path d="M60.946,35.648c-0.09,0.312-0.182,0.637-0.272,0.963h1.666c0.095-0.329,0.188-0.65,0.279-0.963H60.946z"/>
			<path d="M52.362,75.057c0.089-0.32,0.174-0.642,0.261-0.963H50.96c-0.089,0.321-0.169,0.642-0.261,0.963H52.362z"/>
			<path d="M76.008,46.057c-0.098,0.012-0.193,0.03-0.29,0.043c-0.208,0.363-0.431,0.722-0.668,1.078
				c0.63-0.114,1.272-0.199,1.921-0.25v-3.588c-0.261,0.753-0.582,1.492-0.963,2.217V46.057z"/>
			<path d="M77.935,45.255v-10.57h-0.659c0.369,1.07,0.562,2.241,0.562,3.524c0,1.778-0.296,3.487-0.867,5.13v3.588
				c-0.648,0.051-1.291,0.136-1.921,0.25c-0.016,0.022-0.027,0.045-0.043,0.068c-0.258,0.38-0.52,0.741-0.785,1.089
				c0.73-0.175,1.477-0.302,2.236-0.386C77.036,47.075,77.524,46.176,77.935,45.255z"/>
			<path d="M33.89,44.115v1.87c0.384-0.825,0.814-1.653,1.31-2.482C34.771,43.722,34.336,43.929,33.89,44.115z"/>
			<path d="M50.699,75.057c-0.092,0.322-0.187,0.642-0.281,0.963h1.679c0.092-0.319,0.175-0.643,0.265-0.963H50.699z"/>
			<path d="M34.853,64.399v-2.201c-0.359-0.371-0.68-0.744-0.963-1.12v2.431C34.188,63.808,34.513,64.104,34.853,64.399z"/>
			<path d="M62.619,35.648c0.098-0.33,0.196-0.651,0.291-0.963h-1.677c-0.096,0.313-0.19,0.633-0.287,0.963H62.619z"/>
			<path d="M54.679,35.481c1.904-0.228,3.688-0.495,5.352-0.796h-8.27l-0.256,0.963h3.359C54.803,35.59,54.742,35.535,54.679,35.481
				z"/>
			<path d="M61.188,57.505c0.371-0.006,0.742-0.009,1.106-0.026c0.587-1.074,1.276-2.083,2.058-3.015
				c-0.458,0.077-0.906,0.122-1.348,0.145C62.319,55.517,61.709,56.483,61.188,57.505z"/>
			<path d="M34.853,67.554c-0.318-0.217-0.64-0.49-0.963-0.818v2.11c0.319,0.224,0.64,0.394,0.963,0.538V67.554z"/>
			<path d="M44.755,75.057c-0.173,0.343-0.351,0.664-0.532,0.963h1.848c0.161-0.307,0.318-0.625,0.471-0.963H44.755z"/>
			<path d="M33.89,44.115c0.446-0.186,0.882-0.393,1.31-0.612c0.282-0.472,0.576-0.944,0.894-1.417
				c0.085-0.126,0.182-0.246,0.269-0.371c-1.071,0.701-2.22,1.291-3.436,1.746v4.885c0.265-0.784,0.596-1.572,0.963-2.36V44.115z"/>
			<path d="M42.994,33.721c-0.287,0.694-0.622,1.363-0.992,2.008c0.874-0.701,1.794-1.372,2.772-2.008H42.994z"/>
			<path d="M77.275,34.685h0.659v10.57c0.401-0.899,0.723-1.819,0.964-2.758v-8.038c-0.08-0.252-0.178-0.494-0.273-0.737H76.88
				C77.029,34.032,77.162,34.354,77.275,34.685z"/>
			<path d="M50.418,76.02c-0.095,0.323-0.197,0.642-0.295,0.964h1.68c0.096-0.322,0.201-0.641,0.294-0.964H50.418z"/>
			<path d="M64.352,54.463c-0.781,0.932-1.471,1.941-2.058,3.015c0.389-0.019,0.771-0.05,1.153-0.08
				c0.424-0.715,0.897-1.395,1.414-2.04v-0.996C64.69,54.398,64.52,54.435,64.352,54.463z"/>
			<path d="M61.304,34.444c-0.022,0.078-0.048,0.162-0.07,0.24h1.677c0.103-0.331,0.204-0.652,0.305-0.963h-7.433
				c-1.239,0.165-2.529,0.313-3.884,0.444l-0.138,0.519h8.27C60.462,34.606,60.89,34.527,61.304,34.444z"/>
			<path d="M33.89,63.509v-2.431c-0.362-0.478-0.668-0.958-0.907-1.44c-0.021-0.044-0.036-0.093-0.056-0.136v2.942
				C33.22,62.802,33.538,63.156,33.89,63.509z"/>
			<path d="M44.223,76.02c-0.215,0.353-0.438,0.671-0.667,0.964h1.964c0.189-0.302,0.372-0.624,0.55-0.964H44.223z"/>
			<path d="M33.89,68.846v-2.11c-0.318-0.324-0.64-0.698-0.963-1.13v2.428C33.246,68.341,33.566,68.619,33.89,68.846z"/>
			<path d="M76.458,47.95c-0.76,0.084-1.506,0.211-2.236,0.386c-0.356,0.466-0.724,0.898-1.096,1.31
				c0.836-0.271,1.698-0.481,2.584-0.625c0.211-0.285,0.421-0.573,0.626-0.875C76.38,48.081,76.416,48.015,76.458,47.95z"/>
			<path d="M31.963,43.135v9.702c0.134-1.49,0.454-2.987,0.963-4.492V43.46c1.216-0.455,2.365-1.045,3.436-1.746
				c0.236-0.338,0.475-0.675,0.726-1.003h-0.951c-1.202,0.824-2.519,1.488-3.919,1.975C32.132,42.835,32.046,42.985,31.963,43.135z"
				/>
			<path d="M73.126,49.646c-0.616,0.678-1.253,1.288-1.914,1.814c1.127-0.558,2.328-0.988,3.583-1.277
				c0.312-0.368,0.615-0.758,0.915-1.162C74.824,49.164,73.962,49.374,73.126,49.646z"/>
			<path d="M32.927,59.502c-0.505-1.063-0.83-2.256-0.963-3.585v5.185c0.275,0.45,0.597,0.898,0.963,1.343V59.502z"/>
			<path d="M79.442,38.209c0-1.347-0.185-2.597-0.544-3.75v8.038C79.253,41.106,79.442,39.676,79.442,38.209z"/>
			<path d="M64.654,57.284c0.068-0.106,0.136-0.211,0.207-0.315v-1.61c-0.517,0.646-0.99,1.325-1.414,2.04
				C63.853,57.367,64.256,57.328,64.654,57.284z"/>
			<path d="M63.215,33.721c0.107-0.333,0.215-0.654,0.319-0.962h-2.012c-1.75,0.368-3.664,0.688-5.74,0.962H63.215z"/>
			<path d="M43.556,76.983c-0.287,0.367-0.583,0.69-0.89,0.963h2.186c0.23-0.298,0.453-0.618,0.668-0.963H43.556z"/>
			<path d="M79.86,49.757v-0.881c-0.301,0.301-0.616,0.595-0.946,0.881H79.86z"/>
			<path d="M50.124,76.983c-0.097,0.321-0.194,0.643-0.295,0.963h1.679c0.099-0.32,0.199-0.642,0.295-0.963H50.124z"/>
			<path d="M32.927,68.033v-2.428c-0.138-0.184-0.275-0.368-0.414-0.571c-0.195-0.286-0.378-0.583-0.549-0.892v2.837
				C32.282,67.373,32.604,67.722,32.927,68.033z"/>
			<path d="M42.002,35.729c0.37-0.645,0.705-1.313,0.992-2.008h1.78c0.507-0.329,1.022-0.652,1.557-0.962h-3.995
				c-0.475,1.292-1.112,2.504-1.878,3.623v0.675C40.953,36.602,41.468,36.159,42.002,35.729z"/>
			<path d="M78.625,33.721c-0.13-0.33-0.275-0.651-0.437-0.962h-1.853c0.2,0.31,0.383,0.63,0.544,0.962H78.625z"/>
			<path d="M64.654,57.284c0.069-0.009,0.139-0.018,0.207-0.026v-0.289C64.79,57.073,64.723,57.178,64.654,57.284z"/>
			<path d="M80.263,50.72c0.194-0.175,0.376-0.358,0.561-0.538v-2.349c-0.302,0.357-0.623,0.704-0.963,1.043v0.881h-0.946
				c-0.392,0.339-0.806,0.668-1.235,0.986c0.274-0.015,0.553-0.023,0.832-0.023H80.263z"/>
			<path d="M42.336,32.759h3.995c0.558-0.324,1.125-0.643,1.713-0.947c0.012-0.006,0.022-0.01,0.034-0.017h-5.926
				c-0.228,0.165-0.456,0.329-0.68,0.499c-0.281,0.783-0.617,1.54-1.014,2.26v1.828C41.224,35.263,41.861,34.05,42.336,32.759z"/>
			<path d="M78.188,32.759c-0.174-0.331-0.36-0.653-0.567-0.964h-2.014c0.267,0.308,0.51,0.628,0.729,0.964H78.188z"/>
			<path d="M31.543,60.35c0.125,0.251,0.268,0.501,0.42,0.752v-5.185c-0.048-0.479-0.075-0.974-0.075-1.488
				c0-0.529,0.027-1.06,0.075-1.591v-9.702c-0.348,0.628-0.668,1.264-0.963,1.905v14.002C31.156,59.495,31.337,59.932,31.543,60.35z
				"/>
			<path d="M63.705,32.259c-0.694,0.175-1.427,0.341-2.183,0.5h2.012C63.591,32.591,63.648,32.419,63.705,32.259z"/>
			<path d="M74.795,50.183c-1.255,0.289-2.456,0.719-3.583,1.277c-0.567,0.451-1.15,0.847-1.752,1.187h1.557
				c0.795-0.438,1.631-0.806,2.502-1.101C73.953,51.12,74.381,50.671,74.795,50.183z"/>
			<path d="M31.963,66.979v-2.837C31.578,63.45,31.262,62.699,31,61.9v3.736c0.064,0.101,0.121,0.205,0.188,0.303
				C31.444,66.317,31.703,66.658,31.963,66.979z"/>
			<path d="M36.138,40.711h-1.846c-0.404,0.222-0.819,0.428-1.244,0.615c-0.291,0.45-0.566,0.904-0.83,1.36
				C33.619,42.199,34.937,41.535,36.138,40.711z"/>
			<path d="M42.667,77.946c-0.043,0.038-0.084,0.087-0.128,0.123c-0.359,0.302-0.821,0.581-1.365,0.84h2.825
				c0.294-0.286,0.579-0.608,0.853-0.963H42.667z"/>
			<path d="M49.829,77.946c-0.1,0.32-0.191,0.645-0.294,0.963h1.679c0.102-0.319,0.196-0.642,0.295-0.963H49.829z"/>
			<path d="M51.213,78.909h-1.679c-0.02,0.062-0.038,0.128-0.058,0.189l-0.251,0.773h3.047c-0.417-0.087-0.832-0.173-1.268-0.278
				C51.077,79.367,51.141,79.137,51.213,78.909z"/>
			<path d="M43.999,78.909h-2.825c-0.756,0.362-1.691,0.683-2.808,0.963h4.399c0.294-0.182,0.564-0.371,0.802-0.57
				C43.714,79.181,43.857,79.047,43.999,78.909z"/>
			<path d="M31,61.9c-0.551-1.68-0.835-3.586-0.835-5.711c0-0.9,0.046-1.792,0.14-2.673c-0.015,0.305-0.021,0.609-0.021,0.913
				c0,1.686,0.241,3.23,0.716,4.613V45.04c-0.361,0.786-0.683,1.579-0.963,2.383v16.461c0.278,0.616,0.605,1.197,0.963,1.752V61.9z"
				/>
			<path d="M34.292,40.711h-0.833c-0.139,0.204-0.277,0.41-0.41,0.615C33.474,41.139,33.889,40.933,34.292,40.711z"/>
			<path d="M72.287,52.647c0.42-0.339,0.829-0.708,1.231-1.101c-0.871,0.295-1.707,0.663-2.502,1.101H72.287z"/>
			<path d="M40.458,33.101v1.453c0.397-0.72,0.733-1.477,1.014-2.26C41.128,32.554,40.792,32.826,40.458,33.101z"/>
			<path d="M75.607,31.795h2.014c-0.221-0.333-0.462-0.654-0.724-0.963h-2.248C74.997,31.136,75.316,31.458,75.607,31.795z"/>
			<path d="M80.823,47.833v2.349c0.337-0.329,0.658-0.666,0.964-1.013v-2.58c-0.001,0.001-0.002,0.003-0.003,0.006
				C81.49,47.021,81.165,47.431,80.823,47.833z"/>
			<path d="M81.787,31.39v-0.558h-0.566C81.419,31.014,81.607,31.199,81.787,31.39z"/>
			<path d="M63.898,79.872v-0.389c-0.498,0.147-0.988,0.273-1.475,0.389H63.898z"/>
			<path d="M78.511,50.72c-0.279,0-0.558,0.008-0.832,0.023c-0.554,0.407-1.127,0.802-1.744,1.172
				c0.838-0.149,1.697-0.232,2.576-0.232h0.599c0.4-0.312,0.785-0.632,1.153-0.963H78.511z"/>
			<path d="M43.561,30.832c-0.477,0.309-0.946,0.63-1.409,0.963h5.926c0.664-0.344,1.33-0.664,1.998-0.963H43.561z"/>
			<path d="M63.898,79.872h-1.475c-1.734,0.412-3.39,0.622-4.964,0.622c-1.511,0-3.248-0.215-5.188-0.622h-3.047l-0.197,0.607
				c-1.702-0.172-3.161-0.259-4.354-0.259c-0.89,0-1.789,0.03-2.695,0.09c0.284-0.141,0.542-0.286,0.786-0.438h-4.399
				c-0.775,0.195-1.628,0.373-2.577,0.528l-0.099,0.436h28.867l0.304-1.424v-0.231c-0.323,0.106-0.645,0.208-0.963,0.303V79.872z"/>
			<path d="M74.649,30.832h2.248c-0.284-0.335-0.593-0.656-0.924-0.963h-2.63c0.372,0.226,0.725,0.466,1.048,0.729
				C74.484,30.673,74.562,30.755,74.649,30.832z"/>
			<path d="M30.037,47.423c-0.401,1.149-0.726,2.315-0.963,3.502v10.03c0.239,1.04,0.554,2.021,0.963,2.929V47.423z"/>
			<path d="M81.221,30.832h0.566v0.558c0.326,0.348,0.632,0.707,0.897,1.084c0.023,0.034,0.044,0.067,0.066,0.1v-2.512
				c-0.066-0.066-0.14-0.128-0.207-0.193h-2.515C80.457,30.173,80.853,30.495,81.221,30.832z"/>
			<path d="M78.511,51.684c-0.879,0-1.738,0.083-2.576,0.232c-0.421,0.253-0.855,0.496-1.306,0.731h3.141
				c0.464-0.311,0.913-0.63,1.34-0.963H78.511z"/>
			<path d="M81.787,49.169c0.34-0.385,0.661-0.782,0.964-1.189v-2.957c-0.291,0.523-0.605,1.046-0.964,1.566V49.169z"/>
			<path d="M50.075,30.832c0.792-0.355,1.588-0.67,2.386-0.963h-7.325c-0.534,0.307-1.06,0.628-1.576,0.963H50.075z"/>
			<path d="M64.861,54.363v0.996c0.306-0.38,0.628-0.748,0.964-1.101v-0.128C65.499,54.22,65.18,54.297,64.861,54.363z"/>
			<path d="M67.366,53.61h0.548c0.199-0.167,0.404-0.329,0.611-0.487C68.134,53.303,67.749,53.462,67.366,53.61z"/>
			<path d="M40.458,37.056v-0.675c-0.302,0.441-0.621,0.868-0.963,1.276v0.314C39.805,37.66,40.13,37.357,40.458,37.056z"/>
			<path d="M37.876,39.748h-0.477c-0.405,0.339-0.824,0.664-1.261,0.963h0.951C37.34,40.383,37.608,40.066,37.876,39.748z"/>
			<path d="M64.861,55.358v1.61c0.301-0.438,0.623-0.862,0.964-1.271v-1.441C65.489,54.611,65.167,54.978,64.861,55.358z"/>
			<path d="M64.861,57.258c0.321-0.038,0.646-0.072,0.964-0.118v-1.441c-0.341,0.408-0.663,0.832-0.964,1.271V57.258z"/>
			<path d="M69.46,52.647c-0.287,0.163-0.58,0.313-0.876,0.45c-0.021,0.01-0.038,0.017-0.059,0.026
				c-0.207,0.158-0.412,0.32-0.611,0.487h1.576c0.489-0.349,0.998-0.672,1.526-0.963H69.46z"/>
			<path d="M36.138,40.711c0.437-0.3,0.856-0.624,1.261-0.963h-1.576c-0.491,0.35-1.001,0.671-1.531,0.963H36.138z"/>
			<path d="M40.458,36.381v-1.828c-0.292,0.531-0.613,1.044-0.963,1.536v1.568C39.836,37.25,40.156,36.822,40.458,36.381z"/>
			<path d="M40.458,34.554v-1.453c-0.19,0.156-0.383,0.309-0.57,0.469c-0.124,0.247-0.257,0.488-0.393,0.726v1.794
				C39.845,35.598,40.165,35.084,40.458,34.554z"/>
			<path d="M71.017,52.647c-0.528,0.291-1.037,0.614-1.526,0.963h1.462c0.454-0.292,0.899-0.613,1.335-0.963H71.017z"/>
			<path d="M35.824,39.748h-1.686c-0.234,0.319-0.458,0.641-0.679,0.963h0.833C34.823,40.419,35.333,40.097,35.824,39.748z"/>
			<path d="M39.495,33.909v0.386c0.136-0.238,0.27-0.479,0.393-0.726C39.756,33.682,39.625,33.794,39.495,33.909z"/>
			<path d="M52.461,29.869c1.006-0.371,2.018-0.693,3.032-0.963h-8.562c-0.609,0.304-1.208,0.625-1.795,0.963H52.461z"/>
			<path d="M75.974,29.869c-0.187-0.174-0.366-0.351-0.566-0.515c-0.193-0.156-0.396-0.304-0.604-0.448h-3.466
				c0.735,0.271,1.399,0.594,2.006,0.963H75.974z"/>
			<path d="M82.544,29.869c-0.349-0.336-0.719-0.657-1.115-0.963h-2.958c0.557,0.299,1.076,0.621,1.559,0.963H82.544z"/>
			<polygon points="35.69,80.836 35.473,81.8 64.352,81.8 64.558,80.836 			"/>
			<path d="M82.751,30.062v2.512c0.383,0.554,0.7,1.117,0.963,1.69v-3.083C83.417,30.794,83.102,30.418,82.751,30.062z"/>
			<path d="M82.751,47.98c0.116-0.158,0.241-0.312,0.353-0.472c0.218-0.314,0.417-0.628,0.61-0.943v-3.601
				c-0.263,0.688-0.584,1.376-0.963,2.06V47.98z"/>
			<path d="M28.559,56.188c0,1.724,0.178,3.308,0.515,4.769v-10.03C28.731,52.641,28.559,54.395,28.559,56.188z"/>
			<path d="M74.629,52.647c-0.433,0.226-0.879,0.445-1.339,0.655c-0.238,0.108-0.482,0.206-0.725,0.308h3.631
				c0.546-0.309,1.071-0.628,1.573-0.963H74.629z"/>
			<path d="M64.916,79.163c-0.019,0.006-0.037,0.011-0.055,0.018v0.231L64.916,79.163z"/>
			<path d="M65.825,54.257c0.055-0.058,0.108-0.116,0.165-0.173c-0.057,0.016-0.109,0.029-0.165,0.044V54.257z"/>
			<path d="M39.495,37.972v-0.314c-0.635,0.759-1.336,1.456-2.095,2.09h0.477C38.388,39.139,38.924,38.544,39.495,37.972z"/>
			<path d="M65.99,54.084c-0.057,0.057-0.11,0.115-0.165,0.173v1.441c0.634-0.756,1.332-1.455,2.089-2.088h-0.548
				C66.9,53.791,66.44,53.952,65.99,54.084z"/>
			<path d="M39.495,37.658v-1.568c-0.394,0.551-0.824,1.074-1.284,1.569v0.805H37.4c-0.497,0.461-1.023,0.89-1.577,1.284h1.576
				C38.158,39.114,38.86,38.417,39.495,37.658z"/>
			<path d="M67.914,53.61c-0.757,0.633-1.455,1.333-2.089,2.088v1.441c0.036-0.006,0.072-0.012,0.108-0.018
				c0.363-0.497,0.757-0.972,1.176-1.422v-0.806h0.806c0.496-0.461,1.021-0.89,1.575-1.284H67.914z"/>
			<path d="M67.109,56.914V55.7c-0.419,0.45-0.812,0.925-1.176,1.422C66.33,57.062,66.719,56.988,67.109,56.914z"/>
			<path d="M39.495,36.089v-1.794c-0.381,0.665-0.808,1.298-1.284,1.892v1.472C38.67,37.164,39.101,36.641,39.495,36.089z"/>
			<path d="M35.824,39.748c0.554-0.394,1.08-0.823,1.577-1.284h-1.475c-0.539,0.433-1.11,0.827-1.708,1.18
				c-0.026,0.035-0.053,0.069-0.08,0.104H35.824z"/>
			<path d="M70.952,53.61H69.49c-0.554,0.395-1.079,0.823-1.575,1.284h0.546c0.267-0.111,0.53-0.216,0.798-0.34
				C69.837,54.286,70.4,53.966,70.952,53.61z"/>
			<path d="M69.388,54.894c0.111-0.089,0.223-0.179,0.337-0.265c-0.316,0.094-0.635,0.182-0.958,0.265H69.388z"/>
			<path d="M55.494,28.906c2.76-0.736,5.551-1.114,8.373-1.114c2.973,0,5.461,0.373,7.472,1.114h3.466
				c-0.706-0.497-1.5-0.923-2.373-1.284H49.804c-0.983,0.386-1.938,0.818-2.872,1.284H55.494z"/>
			<path d="M39.495,34.295v-0.386c-0.435,0.383-0.865,0.774-1.284,1.181v1.097C38.687,35.593,39.114,34.96,39.495,34.295z"/>
			<path d="M78.471,28.906h2.958c-0.598-0.461-1.245-0.891-1.955-1.284h-4.066c0.46,0.145,0.905,0.298,1.326,0.468
				C77.349,28.34,77.925,28.614,78.471,28.906z"/>
			<path d="M35.925,38.463h-0.792c-0.316,0.391-0.622,0.784-0.916,1.18C34.815,39.29,35.386,38.896,35.925,38.463z"/>
			<path d="M76.196,53.61h-3.631c-0.92,0.388-1.867,0.729-2.841,1.019c-0.114,0.086-0.226,0.176-0.337,0.265h4.256
				c0.104-0.046,0.21-0.085,0.313-0.132C74.745,54.402,75.484,54.014,76.196,53.61z"/>
			<path d="M83.997,31.55c-0.089-0.126-0.189-0.245-0.283-0.368v3.083c0.592,1.293,0.89,2.643,0.89,4.087
				c0,1.538-0.305,3.08-0.89,4.612v3.601c0.502-0.815,0.934-1.633,1.283-2.457V33.224C84.714,32.655,84.382,32.096,83.997,31.55z"/>
			<path d="M35.218,82.921c3.231-0.729,6.383-1.094,9.456-1.094c1.583,0,3.642,0.158,6.177,0.476
				c3.167,0.348,5.575,0.523,7.222,0.523c1.712,0,3.802-0.334,6.272-0.999l0.007-0.027H35.473L35.218,82.921z"/>
			<path d="M67.109,55.7c0.259-0.279,0.527-0.548,0.806-0.806h-0.806V55.7z"/>
			<path d="M38.21,37.659c-0.26,0.278-0.531,0.545-0.81,0.805h0.81V37.659z"/>
			<path d="M68.072,55.858H68.3c0.346-0.34,0.709-0.66,1.088-0.964h-0.621c-0.255,0.067-0.51,0.138-0.77,0.198
				c0.154-0.06,0.311-0.134,0.464-0.198h-0.546c-0.278,0.258-0.547,0.527-0.806,0.806v1.214c0.082-0.016,0.166-0.027,0.248-0.045
				c0.229-0.27,0.467-0.531,0.715-0.785V55.858z"/>
			<path d="M38.21,37.659v-1.472c-0.302,0.377-0.626,0.734-0.963,1.079V37.5H37.02c-0.348,0.34-0.714,0.659-1.094,0.963H37.4
				C37.679,38.204,37.951,37.937,38.21,37.659z"/>
			<path d="M72.431,27.622c-0.983-0.407-2.069-0.73-3.26-0.963H52.593c-0.95,0.289-1.882,0.607-2.79,0.963H72.431z"/>
			<path d="M79.474,27.622c-0.626-0.348-1.297-0.668-2.01-0.963h-6.774c1.75,0.202,3.323,0.523,4.718,0.963H79.474z"/>
			<path d="M37.02,37.5h-1.083c-0.277,0.319-0.543,0.641-0.804,0.963h0.792C36.306,38.159,36.672,37.84,37.02,37.5z"/>
			<path d="M68.3,55.858h2.865c0.844-0.285,1.67-0.605,2.479-0.964h-4.256C69.009,55.198,68.646,55.519,68.3,55.858z"/>
			<path d="M38.21,36.187V35.09c-0.328,0.318-0.646,0.652-0.963,0.985v1.19C37.584,36.921,37.908,36.564,38.21,36.187z"/>
			<path d="M84.997,44.108c0.448-1.054,0.765-2.114,0.964-3.181v-4.929c-0.199-0.953-0.517-1.878-0.964-2.774V44.108z"/>
			<path d="M67.357,56.869c0.24-0.046,0.477-0.101,0.715-0.154v-0.631C67.824,56.338,67.586,56.6,67.357,56.869z"/>
			<path d="M68.072,56.084c0.075-0.076,0.15-0.151,0.228-0.226h-0.228V56.084z"/>
			<path d="M37.247,37.266c-0.076,0.078-0.149,0.158-0.228,0.234h0.228V37.266z"/>
			<path d="M86.209,38.352c0-0.804-0.088-1.587-0.248-2.354v4.929C86.121,40.073,86.209,39.214,86.209,38.352z"/>
			<path d="M69.171,26.658c-0.423-0.083-0.855-0.158-1.304-0.219c0.986,0.041,1.926,0.115,2.822,0.219h6.774
				c-0.043-0.018-0.083-0.037-0.126-0.056c-1.298-0.527-2.766-0.932-4.383-1.229H58.271c-1.97,0.306-3.863,0.733-5.677,1.285H69.171
				z"/>
			<path d="M37.247,37.266v-1.19c-0.136,0.142-0.277,0.276-0.411,0.421c-0.31,0.333-0.607,0.667-0.899,1.004h1.083
				C37.098,37.424,37.171,37.344,37.247,37.266z"/>
			<path d="M68.072,56.084v0.631c1.056-0.234,2.087-0.519,3.093-0.856H68.3C68.223,55.933,68.147,56.008,68.072,56.084z"/>
			<path d="M65.946,24.796c-2.681,0-5.234,0.2-7.676,0.578h14.685C70.878,24.993,68.548,24.796,65.946,24.796z"/>
		</g>
	</g>
	<g>
		<g>
			<path fill="#231F20" d="M44.022,25.502l1.035-3.88c8.342-0.806,15.476-1.959,21.402-3.457c-1.421,4.035-2.955,9.309-4.602,15.822
				l-6.519,24.28l7.934,0.432c3.679,0.173,7.689-0.746,12.03-2.76c4.342-2.011,8.221-5.546,11.642-10.605
				c3.42-5.058,5.131-10.519,5.131-16.382c0-5.805-2.08-10.404-6.245-13.796c-4.161-3.391-10.522-5.087-19.078-5.087
				c-9.763,0-19.322,2.429-28.683,7.286c-9.361,4.858-16.581,11.066-21.662,18.625c-5.082,7.56-7.623,15.018-7.623,22.374
				c0,3.622,0.661,6.769,1.983,9.442c1.321,2.673,3.678,5.302,7.07,7.889c2.816,2.069,4.225,4.081,4.225,6.036
				c0,1.266-0.462,2.328-1.386,3.189c-0.925,0.863-2.021,1.294-3.291,1.294c-3.407,0-6.698-2.328-9.874-6.984
				c-3.176-4.656-4.764-10.547-4.764-17.676c0-13.047,5-24.946,15.002-35.696C30.857,11.707,48.447,4.636,70.52,4.636
				c8.393,0,15.275,1.093,20.65,3.276c5.375,2.185,9.398,5.174,12.072,8.967c2.672,3.794,4.009,7.904,4.009,12.33
				c0,5.634-1.876,11.167-5.627,16.598c-3.753,5.432-9.28,9.816-16.581,13.148c-7.305,3.336-15.423,5.001-24.358,5.001
				c-1.377,0-3.522-0.086-6.445-0.259l-6.933,26.834c-1.148,4.536-2.44,9.016-3.873,13.438c4.476,1.089,8.377,1.634,11.705,1.634
				c4.188,0,8.692-0.805,13.513-2.415l-1.033,4.828c-4.479,1.209-8.27,1.812-11.369,1.812c-2.986,0-7.351-0.316-13.093-0.949
				c-4.594-0.575-8.326-0.862-11.196-0.862c-5.57,0-11.283,0.661-17.14,1.983l1.035-4.569c5.974-0.977,10.052-2.384,12.234-4.226
				c3.101-2.586,5.628-7.787,7.581-15.604l13.003-51.649c0.574-2.414,0.861-4.109,0.861-5.087c0-0.919-0.373-1.738-1.12-2.457
				c-0.747-0.718-1.637-1.078-2.67-1.078C45.343,25.33,44.769,25.388,44.022,25.502z"/>
		</g>
	</g>
</g>
</svg>
