<?xml version="1.0" encoding="utf-8"?>
<!-- Generator: Adobe Illustrator 16.0.0, SVG Export Plug-In . SVG Version: 6.00 Build 0)  -->
<!DOCTYPE svg PUBLIC "-//W3C//DTD SVG 1.1//EN" "http://www.w3.org/Graphics/SVG/1.1/DTD/svg11.dtd">
<svg version="1.1" id="Layer_1" xmlns="http://www.w3.org/2000/svg" xmlns:xlink="http://www.w3.org/1999/xlink" x="0px" y="0px"
	 width="110px" height="110px" viewBox="0 0 110 110" enable-background="new 0 0 110 110" xml:space="preserve">
<g>
	
		<line fill="none" stroke="#231F20" stroke-width="8.6595" stroke-linejoin="bevel" stroke-miterlimit="10" x1="91.504" y1="88.57" x2="104.234" y2="10.836"/>
	
		<line fill="none" stroke="#000000" stroke-width="3.7885" stroke-linejoin="bevel" stroke-miterlimit="10" x1="26.965" y1="93.417" x2="33.473" y2="53.681"/>
	<g>
		<polygon fill="#231F20" points="87.244,41.651 88.691,47.19 90.223,40.768 		"/>
		<polygon fill="#231F20" points="56.825,92.905 63.791,91.086 54.842,56.834 86.953,48.445 86.83,47.973 86.948,47.942 
			85.443,42.185 41.833,55.109 		"/>
		<polygon fill="#231F20" points="87.427,50.261 57.133,58.176 65.605,90.611 66.081,92.428 64.266,92.902 57.521,94.664 
			63.605,110 74.844,105.289 87.995,50.113 		"/>
	</g>
	<path fill="#231F20" d="M77.7,12.546l-0.118,0.031l-0.109-0.417l-32.11,8.389l-0.028-0.107l-15.412,4.027l18.456,70.643
		l15.413-4.025l-8.949-34.252l32.111-8.389l-0.123-0.472l0.118-0.031L77.7,12.546z M52.074,46.238l-3.943-15.093l21.633-5.651
		l3.942,15.092L52.074,46.238z"/>
	<g>
		<polygon fill="#231F20" points="56.139,17.734 45.362,20.549 45.334,20.442 40.093,21.812 31.157,29.199 33.131,36.754 		"/>
		<polygon fill="#231F20" points="29.562,30.518 5.766,50.19 10.277,55.646 31.535,38.073 		"/>
		<polygon fill="#231F20" points="44.86,18.626 46.677,18.152 46.705,18.259 59.568,14.898 70.988,5.457 66.477,0 43.523,18.976 		
			"/>
	</g>
</g>
</svg>
