<?xml version="1.0" encoding="utf-8"?>
<!-- Generator: Adobe Illustrator 16.0.0, SVG Export Plug-In . SVG Version: 6.00 Build 0)  -->
<!DOCTYPE svg PUBLIC "-//W3C//DTD SVG 1.1//EN" "http://www.w3.org/Graphics/SVG/1.1/DTD/svg11.dtd">
<svg version="1.1" id="Layer_1" xmlns="http://www.w3.org/2000/svg" xmlns:xlink="http://www.w3.org/1999/xlink" x="0px" y="0px"
	 width="110px" height="110px" viewBox="0 0 110 110" enable-background="new 0 0 110 110" xml:space="preserve">
<g>
	<g>
		<path fill="none" d="M88.837,38.052l-0.026,0.158l-0.046,0.161c-0.18,8.606-3.173,16.769-8.36,22.98
			C74.895,67.948,67.5,72.081,58.5,73.254v16.29V99.5h-8.786H24.5v-0.146v7.146h5.653h29.37H64.5v-7.146V79.521
			c9-0.337,17.202-4.166,22.774-10.838c4.629-5.54,7.327-12.851,7.488-20.583l0.022-0.235l0.013-0.151
			c0.148-3.766,0.53-15.018-7.507-24.022C89.158,29.955,88.937,35.529,88.837,38.052z"/>
		<path fill="none" d="M55.5,95.5v-5.956V69.711c8-0.337,16.798-4.166,22.37-10.838c4.628-5.541,6.995-12.851,7.156-20.583
			l-0.015-0.235l-0.005-0.151c0.125-3.169,0.438-11.647-4.251-19.62c-4.044-2.399-9.498-4.279-16.646-4.279
			c-11.888,0-19.314-0.021-19.368-0.022L29.92,13.938l-5.42-0.015v5.169V95.5h25.214H55.5z"/>
		<path fill="none" d="M20.5,10.046l9.363,0.027l15.131,0.044c0.057,0.001,7.35,0.022,19.231,0.022
			c4.261,0,7.956,0.613,11.194,1.588c-4.116-3.706-10.848-7.533-21.05-7.533c-11.887,0-19.251-0.021-19.307-0.022L20.516,4.129
			L15.5,4.114v5.169v80.261V95.5h5V19.092V10.046z"/>
		<path fill="#231F20" d="M15.5,95.5v-5.956V9.283V4.114l5.014,0.015l14.659,0.044c0.055,0.001,7.358,0.022,19.245,0.022
			c10.202,0,16.896,3.827,21.012,7.533c3.179,0.959,5.872,2.271,8.157,3.725c-1.084-1.71-2.39-3.398-3.947-5.02
			C75.209,5.825,67.229,0.33,54.383,0.33c-11.882,0-19.213-0.021-19.271-0.022L20.46,0.264L11.5,0.236v9.046v80.261V99.5h9v-4H15.5z
			"/>
		<path fill="#231F20" d="M89.443,20.243c-1.52-1.58-3.466-3.259-5.87-4.79c1.741,2.75,2.923,5.557,3.722,8.238
			c8.037,9.004,7.658,20.257,7.51,24.022l-0.006,0.151l-0.01,0.235c-0.161,7.732-2.886,15.042-7.515,20.583
			C81.702,75.354,73.5,79.184,64.5,79.521v19.833v7.146h-4.977h-29.37H24.5v-7.146V99.5h-4.157H20.5v-0.146V110.5h9.653h29.37H67.5
			V99.354V83.064c10-1.174,16.8-5.307,22.31-11.903c5.188-6.212,8.404-14.374,8.584-22.98l0.138-0.161l0.07-0.158
			C98.771,43.586,99.35,30.55,89.443,20.243z"/>
		<path fill="#231F20" d="M76.837,13.113c1.592,1.656,2.873,3.401,3.913,5.171c2.453,1.456,4.388,3.103,5.864,4.639
			c0.243,0.252,0.453,0.513,0.681,0.769c-0.799-2.681-1.98-5.488-3.722-8.238c-2.285-1.454-4.994-2.766-8.172-3.725
			C75.918,12.194,76.4,12.659,76.837,13.113z"/>
		<polygon fill="#231F20" points="24.5,99.5 24.5,95.5 20.343,95.5 20.5,95.5 20.5,99.5 20.343,99.5 		"/>
	</g>
	<g>
		<rect x="41.5" y="90.5" fill="none" width="6" height="1"/>
		<g>
			<polygon fill="#231F20" points="20.5,95.5 20.343,95.5 24.5,95.5 24.5,90.5 20.5,90.5 			"/>
			<path fill="#231F20" d="M80.75,18.284c-1.04-1.77-2.321-3.515-3.913-5.171c-0.437-0.454-0.919-0.239-1.436-0.705
				C72.163,11.433,68.45,11.5,64.188,11.5c-0.962,0-1.885,0-2.787,0c4.067,1,7.164,2,9.45,3.805
				C74.81,16.047,78.093,16.707,80.75,18.284z"/>
			<path fill="#231F20" d="M24.5,13.923l5.419,0.015l14.862,0.044c0.055,0.001,7.459,0.022,19.346,0.022
				c2.448,0,4.674,0.234,6.735,0.62c-2.287-1.806-5.388-3.525-9.456-4.486c-10.223-0.002-16.43-0.02-16.483-0.021l-15.059-0.044
				L20.5,10.046v9.046V90.5h4V19.092V13.923z"/>
		</g>
		<path fill="#231F20" d="M88.856,37.547c-0.007,0.18-0.013,0.349-0.02,0.505l-0.026,0.158l-0.028,0.097l-0.035-0.097v-0.158
			c0-0.156,0.059-0.326,0.064-0.505c-0.725-3.03-2.026-6.292-4.4-9.318c-0.004-0.02-0.006-0.04-0.011-0.06
			c-0.448-0.568-0.93-1.128-1.453-1.675c-1.433-1.49-3.396-3.104-5.979-4.439c-0.001-0.002-0.002-0.005-0.003-0.007
			c-3.218-1.662-7.409-2.889-12.771-2.889c-3.081,0-5.857-0.002-8.307-0.004c-2.081-0.002-4.314-0.004-5.347-0.006
			c-4.13-0.006-5.559-0.012-5.595-0.012l-15.057-0.044v71.037v5.163h-7.163v4.13h7.163v1.033h29.945V74.414
			c1.033-0.003,2.9-0.011,4.067-0.026c7.911-0.099,14.815-3.299,19.584-9.009c3.88-4.645,6.055-10.82,6.19-17.387
			c0.003-0.139-0.009-0.3-0.002-0.476C89.751,45.529,89.866,41.768,88.856,37.547z M47.443,90.129v1.032h-6.196v-1.032V32.303h6.196
			V90.129z M59.834,61.276v-5.691c6.196,0,10.728-4.9,10.728-10.923c0-3.277-1.407-6.213-3.682-8.218
			c-1.518-1.336-3.424-2.243-5.564-2.562c0-0.007,0.002-0.013,0.001-0.02c-0.515-0.073-1.482-0.122-1.482-0.122v-4.666v-1.026
			c1.987,0,4.045,0.424,5.938,1.169c0.01,0.028,0.023,0.053,0.033,0.082c6.062,2.488,10.448,8.433,10.448,15.363
			C76.253,53.823,69.128,61.276,59.834,61.276z"/>
	</g>
</g>
</svg>
