<?xml version="1.0" encoding="utf-8"?>
<!-- Generator: Adobe Illustrator 16.0.0, SVG Export Plug-In . SVG Version: 6.00 Build 0)  -->
<!DOCTYPE svg PUBLIC "-//W3C//DTD SVG 1.1//EN" "http://www.w3.org/Graphics/SVG/1.1/DTD/svg11.dtd">
<svg version="1.1" id="Layer_1" xmlns="http://www.w3.org/2000/svg" xmlns:xlink="http://www.w3.org/1999/xlink" x="0px" y="0px"
	 width="110px" height="110px" viewBox="0 0 110 110" enable-background="new 0 0 110 110" xml:space="preserve">
<g>
	<g>
		<g>
			<circle fill="none" cx="54.727" cy="38.871" r="13.34"/>
		</g>
		<g>
			<path d="M43.978,110H15.459V42.022l5.512-0.205c0.958,12.843,9.309,24.252,21.277,29.065l1.729,0.696V110z M20.978,104.479h17.48
				V75.259c-7.354-3.38-13.415-8.944-17.48-15.737V104.479z"/>
		</g>
		<g>
			<polygon points="20.978,36.468 15.459,36.468 15.459,0 55.298,0.001 55.298,5.521 20.978,5.521 			"/>
		</g>
		<g>
			<path d="M15.545,42.222c-0.084-1.127-0.124-2.073-0.124-2.977s0.04-1.85,0.124-2.977l5.354,0.199v5.555L15.545,42.222z"/>
		</g>
		<g>
			<path d="M54.96,78.862c-5.088,0-10.058-0.962-14.772-2.857l2.061-5.122c4.056,1.632,8.333,2.46,12.712,2.46
				c18.801,0,34.098-15.295,34.098-34.098c0-18.911-14.829-33.725-33.76-33.725v-5.52c22.026,0,39.28,17.238,39.28,39.244
				C94.578,61.091,76.806,78.862,54.96,78.862z M54.727,54.971c-8.876,0-16.098-7.223-16.098-16.101c0-8.877,7.222-16.1,16.098-16.1
				c8.878,0,16.1,7.223,16.1,16.1C70.826,47.748,63.604,54.971,54.727,54.971z M54.727,28.291c-5.833,0-10.579,4.745-10.579,10.579
				s4.746,10.58,10.579,10.58c5.835,0,10.581-4.746,10.581-10.58S60.562,28.291,54.727,28.291z"/>
		</g>
		<g>
			<rect x="38.803" y="5.046" width="4.83" height="33.824"/>
		</g>
		<g>
			<path d="M40.188,76.005C26.283,70.411,16.58,57.154,15.465,42.228l-0.006-0.205v-5.555h5.519v5.45
				c0.995,12.802,9.333,24.163,21.271,28.965L40.188,76.005z"/>
		</g>
	</g>
</g>
</svg>
