<?xml version="1.0" encoding="utf-8"?>
<!-- Generator: Adobe Illustrator 16.0.0, SVG Export Plug-In . SVG Version: 6.00 Build 0)  -->
<!DOCTYPE svg PUBLIC "-//W3C//DTD SVG 1.1//EN" "http://www.w3.org/Graphics/SVG/1.1/DTD/svg11.dtd">
<svg version="1.1" id="Layer_1" xmlns="http://www.w3.org/2000/svg" xmlns:xlink="http://www.w3.org/1999/xlink" x="0px" y="0px"
	 width="110px" height="110px" viewBox="0 0 110 110" enable-background="new 0 0 110 110" xml:space="preserve">
<g>
	<polygon fill="none" points="58.023,2.5 55.204,-0.366 55.09,-0.228 57.793,2.5 	"/>
	<polygon fill="none" points="95.5,39.348 95.5,39.577 102.035,46.379 99.425,48.856 99.71,49.209 102.536,46.618 	"/>
	<polygon fill="#231F20" points="21.5,22.5 24.5,22.5 24.5,18.5 27.5,18.5 27.5,16.5 38.059,16.5 47.329,6.5 19.5,6.5 19.5,25.5 
		21.5,25.5 	"/>
	<polygon fill="#231F20" points="55.644,103.317 42.5,90.15 42.5,90.5 39.5,90.5 39.5,93.5 36.5,93.5 36.5,96.5 33.5,96.5 
		33.5,99.5 30.5,99.5 30.5,102.5 19.5,102.5 19.5,109.5 91.5,109.5 91.5,67.439 	"/>
	<path fill="#231F20" d="M76.145,17.463c3.332,0.957,6.204,2.394,8.617,4.308c2.409,1.915,4.752,4.309,6.133,7.18
		c0.059,0.12,0.605,0.246,0.605,0.367V6.5H62.372l9.845,9.971C73.559,16.697,74.875,17.098,76.145,17.463z"/>
	<path fill="#231F20" d="M72.217,16.471L62.372,6.5h-0.229l9.796,9.86C72.032,16.375,72.123,16.456,72.217,16.471z"/>
	
		<rect x="97.716" y="50.008" transform="matrix(-0.707 0.7072 -0.7072 -0.707 206.2207 17.5878)" fill="#231F20" width="3.503" height="3.003"/>
	
		<rect x="8.43" y="49.581" transform="matrix(0.7071 -0.7071 0.7071 0.7071 -33.3158 22.2342)" fill="#231F20" width="3.502" height="3.503"/>
	
		<rect x="97.979" y="48.52" transform="matrix(-0.7061 -0.7081 0.7081 -0.7061 131.9952 155.3232)" fill="#231F20" width="0.499" height="3.502"/>
	<polygon fill="#231F20" points="15.5,53.183 13.154,51.333 10.925,53.81 15.5,58.136 	"/>
	<polygon fill="#231F20" points="95.5,53.889 95.5,58.136 99.559,53.81 97.569,51.686 	"/>
	<polygon fill="#231F20" points="95.5,53.889 97.436,51.686 97.214,51.333 95.5,53.183 	"/>
	<polygon fill="#231F20" points="89.408,59.446 90.615,58.239 90.615,57.531 89.408,58.74 	"/>
	<polygon fill="#231F20" points="89.852,59.446 85.384,63.691 81.695,67.269 77.804,71.105 77.368,71.514 73.516,75.351 
		69.932,78.929 65.684,83.174 55.207,93.65 54.852,93.297 55.202,93.411 42.5,80.245 42.5,85.197 55.644,98.364 91.5,62.486 
		91.5,58.239 	"/>
	<polygon fill="#231F20" points="54.851,93.46 55.204,93.895 65.681,83.5 64.973,83.5 	"/>
	<polygon fill="#231F20" points="91.5,57.531 91.5,58.239 95.5,53.889 95.5,53.183 	"/>
	<polygon fill="#231F20" points="91.5,62.486 95.5,58.136 95.5,53.889 91.5,58.239 	"/>
	<polygon fill="#231F20" points="15.5,53.183 15.5,58.136 15.5,58.386 15.5,53.432 	"/>
	<polygon fill="#231F20" points="85.5,62.985 85.5,63.691 90.5,59.446 90.5,58.74 	"/>
	<polygon fill="#231F20" points="64.973,83.5 65.681,83.5 69.926,79.5 69.218,79.5 	"/>
	<path fill="#231F20" d="M85.899,56.133c-0.009,0.011-0.399,0.023-0.399,0.034v6.818l5-4.245v-7.366
		C89.5,53.227,87.571,54.803,85.899,56.133z"/>
	<polygon fill="#231F20" points="42.5,80.017 44.728,83.5 64.973,83.5 69.218,79.5 42.5,79.5 	"/>
	<polygon fill="#231F20" points="72.796,75.5 73.501,75.5 77.339,71.5 76.633,71.5 	"/>
	<polygon fill="#231F20" points="78.5,70.397 78.5,71.105 82.5,67.269 82.5,66.561 	"/>
	<path fill="#231F20" d="M80.056,62.094C79.598,62.679,79.5,63.23,78.5,63.75v6.647l4-3.837v-6.734
		C81.5,60.648,80.916,61.409,80.056,62.094z"/>
	<path fill="#231F20" d="M64.117,72.312c-3.404,0.888-7.127,1.188-11.17,1.188H42.5v2h30.296l3.837-4h-9.565
		C66.122,71.5,65.148,72.043,64.117,72.312z"/>
	<path fill="#231F20" d="M64.751,46.5c-0.019,0-0.031,0.174-0.049,0.143c-0.676-1.134-1.58-1.955-2.713-2.699
		c-1.135-0.745-2.482-1.391-4.042-1.78c-1.562-0.39-3.229-0.664-5-0.664H42.5v5H64.751z"/>
	<path fill="#231F20" d="M74.463,68.228v-1.2c-0.446,0.423-0.913,0.822-1.403,1.2H74.463z"/>
	<rect x="19.5" y="25.5" fill="#231F20" width="2" height="3"/>
	<rect x="30.5" y="96.5" fill="#231F20" width="3" height="3"/>
	<rect x="18.5" y="25.5" fill="#231F20" width="1" height="3"/>
	<path fill="#231F20" d="M77.748,63.154v0.596c0.524-0.52,1.019-1.071,1.478-1.656c-0.129,0.102-0.241,0.22-0.372,0.316
		C78.503,62.677,78.12,62.909,77.748,63.154z"/>
	<path fill="#231F20" d="M77.45,63.355c-0.372,0.602-0.777,1.173-1.206,1.72c0.526-0.418,1.033-0.854,1.504-1.325v-0.596
		C77.649,63.22,77.552,63.29,77.45,63.355z"/>
	<polygon fill="#231F20" points="21.5,28.5 19.5,28.5 19.5,35.226 21.5,33.366 	"/>
	<polygon fill="#231F20" points="21.5,96.5 21.5,69.299 19.5,67.439 19.5,99.5 30.5,99.5 30.5,96.5 	"/>
	<polygon fill="#231F20" points="19.5,35.226 19.5,28.5 18.5,28.5 18.5,36.347 	"/>
	<polygon fill="#231F20" points="18.5,66.317 18.5,99.5 19.5,99.5 19.5,67.439 	"/>
	<polygon fill="#231F20" points="19.5,62.486 19.5,67.439 21.5,69.299 21.5,64.346 	"/>
	<polygon fill="#231F20" points="19.5,62.486 18.5,61.364 18.5,66.317 19.5,67.439 	"/>
	<polygon fill="#231F20" points="21.5,59.394 19.5,57.534 19.5,62.486 21.5,64.346 	"/>
	<polygon fill="#231F20" points="19.5,57.534 18.5,56.412 18.5,61.364 19.5,62.486 	"/>
	<polygon fill="#231F20" points="21.5,34.073 21.5,33.366 19.5,35.226 19.5,35.933 	"/>
	<polygon fill="#231F20" points="21.5,34.073 19.5,35.933 19.5,40.18 21.5,38.319 	"/>
	<polygon fill="#231F20" points="19.5,35.933 18.5,37.054 18.5,41.3 19.5,40.18 	"/>
	<polygon fill="#231F20" points="18.858,35.226 17.737,36.347 17.737,37.054 18.858,35.933 	"/>
	<polygon fill="#231F20" points="21.5,38.319 19.5,40.18 19.5,45.133 21.5,43.272 	"/>
	<polygon fill="#231F20" points="19.5,45.133 19.5,40.18 18.5,41.3 18.5,46.252 	"/>
	<polygon fill="#231F20" points="20.5,59.163 18.5,57.304 18.5,57.534 20.5,59.394 	"/>
	<polygon fill="#231F20" points="21.5,43.272 19.5,45.133 19.5,57.304 21.5,59.163 	"/>
	<polygon fill="#231F20" points="18.5,46.252 18.5,56.184 19.5,57.304 19.5,45.133 	"/>
	<polygon fill="#231F20" points="18.858,57.304 17.737,56.184 17.737,56.412 18.858,57.534 	"/>
	<path fill="#231F20" d="M42.5,70.5h13.427c4.043,0,7.766-0.146,11.17-1.033c1.312-0.343,2.529-0.967,3.697-0.967H42.5V70.5z"/>
	<path fill="#231F20" d="M75.5,64.968v1.371c1-0.305,0.444-0.608,0.893-0.946c0.131-0.1-0.018-0.216,0.109-0.317
		c0.429-0.547,1.223-1.118,1.594-1.72C77.16,63.951,76.5,64.492,75.5,64.968z"/>
	<path fill="#231F20" d="M55.927,39.5c1.773,0,3.438-0.156,5,0.234c1.56,0.39,2.907,0.781,4.042,1.525s2.039,1.597,2.713,2.731
		c0.501,0.845,0.813,1.765,0.942,2.845c1.076-0.115,2.064-0.305,2.969-0.527c0.049-0.42,0.081-0.867,0.081-1.332
		c0-1.56-0.339-2.913-1.011-4.049c-0.676-1.134-1.58-2.078-2.713-2.822c-1.135-0.745-2.482-0.971-4.042-1.36
		c-1.562-0.39-3.229-0.246-5-0.246H42.5v3H55.927z"/>
	<path fill="#231F20" d="M58.908,67.5H42.5v1h28.294c1.311-1,2.706-1.438,4.706-2.161v-1.371c-2,0.61-3.336,0.964-4.903,1.372
		C67.192,67.227,62.951,67.5,58.908,67.5z"/>
	<rect x="36.5" y="90.5" fill="#231F20" width="3" height="3"/>
	<rect x="24.5" y="18.5" fill="#231F20" width="3" height="4"/>
	<path fill="#231F20" d="M85.163,56.167c0.007-0.011,0.015-0.023,0.021-0.034c-0.007,0.006-0.015,0.013-0.021,0.019V56.167z"/>
	<path fill="#231F20" d="M84.985,56.45c-0.448,0.336-1.013,0.64-1.491,0.944c-0.371,0.602-0.649,1.173-1.078,1.72
		c1.099-0.875,2.084-1.849,3.084-2.947v-0.016C85.5,56.247,85.107,56.356,84.985,56.45z"/>
	<rect x="24.5" y="22.5" fill="#231F20" width="3" height="3"/>
	<rect x="33.5" y="90.5" fill="#231F20" width="3" height="3"/>
	<path fill="#231F20" d="M82.5,58.434v1.165c0-0.06-0.287-0.108-0.209-0.167c0.131-0.1,0.014-0.216,0.143-0.317
		c0.429-0.547,1.177-1.118,1.547-1.72C83.397,57.767,83.5,58.11,82.5,58.434z"/>
	<path fill="#231F20" d="M80.43,60.374c0.394-0.25,0.784-0.503,1.156-0.775v-1.165c-0.053,0.027-0.104,0.058-0.158,0.085
		C81.119,59.161,80.793,59.786,80.43,60.374z"/>
	<rect x="30.5" y="90.5" fill="#231F20" width="3" height="3"/>
	<polygon fill="#231F20" points="27.5,27.405 27.5,25.5 24.5,25.5 24.5,28.5 26.137,28.5 	"/>
	<polygon fill="#231F20" points="26.137,27.947 26.679,27.947 26.679,27.405 	"/>
	<path fill="#231F20" d="M79.289,59.47c-0.212,0.61-0.441,1.206-0.706,1.774c-0.04,0.089-0.093,0.167-0.135,0.254
		c0.688-0.347,1.35-0.721,1.981-1.124c0.363-0.588,0.689-1.213,0.998-1.855C80.742,58.863,80.028,59.18,79.289,59.47z"/>
	<path fill="#231F20" d="M77.143,34.961c-0.56-0.94-0.643-1.739-1.643-2.413v2.591c1,1.206,1.748,2.573,2.643,4.082
		c0.002-0.075,0.01-0.142,0.01-0.218C78.152,37.445,77.814,36.097,77.143,34.961z"/>
	<path fill="#231F20" d="M72.996,31.5c-0.926-1-1.967-0.822-3.127-1.112c-1.314-0.327-2.707-0.537-4.169-0.589
		c1.398,0.484,2.711,0.701,3.932,1.701H72.996z"/>
	<path fill="#231F20" d="M73.358,33.64c0.57,0.455,2.142,0.993,2.142,1.5v-2.591c0-0.138-0.876-0.332-1.07-0.46
		c-0.289-0.19-1.114-0.589-1.434-0.589h-3.364C70.771,31.5,72.374,32.857,73.358,33.64z"/>
	<polygon fill="#231F20" points="24.155,29.008 24.155,30.386 26.137,29.008 	"/>
	<polygon fill="#231F20" points="27.5,90.5 27.5,75.26 24.5,72.278 24.5,93.5 30.5,93.5 30.5,90.5 	"/>
	<polygon fill="#231F20" points="24.5,67.325 24.5,72.278 27.5,75.26 27.5,70.307 	"/>
	<polygon fill="#231F20" points="27.5,65.354 24.5,62.373 24.5,67.325 27.5,70.307 	"/>
	<polygon fill="#231F20" points="27.5,28.112 27.5,28.5 26.137,28.5 24.5,30.386 24.5,31.093 	"/>
	<polygon fill="#231F20" points="24.5,62.145 24.5,62.373 27.5,65.354 27.5,65.124 	"/>
	<polygon fill="#231F20" points="27.5,32.358 27.5,28.112 24.5,31.093 24.5,35.339 	"/>
	<polygon fill="#231F20" points="27.5,32.358 24.5,35.339 24.5,40.292 27.5,37.312 	"/>
	<polygon fill="#231F20" points="27.5,37.312 24.5,40.292 24.5,62.145 27.5,65.124 	"/>
	<path fill="#231F20" d="M79.666,59.47c-0.502,0.196-0.166,0.382-1.166,0.553v1.839c1-0.112,0.088-0.245,0.324-0.363
		c0.043-0.087,0.094-0.165,0.137-0.254C79.225,60.676,79.453,60.08,79.666,59.47z"/>
	<path fill="#231F20" d="M42.5,29.5v2h27.132c-1.221-1-2.533-1.368-3.932-1.853c-0.277-0.01-0.55-0.147-0.831-0.147H42.5z"/>
	<path fill="#231F20" d="M75.5,35.14v5.009c0,0.578,0.189,1.184,0.189,1.835c0,0.742-0.189,1.42-0.189,2.047v1.223
		c2-1.072,3.11-3.083,3.161-6.033C77.765,37.713,76.5,36.346,75.5,35.14z"/>
	<path fill="#231F20" d="M75.5,60.897v2.2c1-0.359,2-0.759,3-1.236v-1.839c0,0.183-0.979,0.37-1.568,0.524
		C76.418,60.68,76.5,60.783,75.5,60.897z"/>
	<path fill="#231F20" d="M64.869,62.5H42.5v3h19.388c4.042,0,8.284-0.764,11.688-1.65c0.485-0.127,1.924-0.606,1.924-0.752v-2.2
		C72.5,61.536,68.303,62.5,64.869,62.5z"/>
	<path fill="#231F20" d="M69.632,31.5H42.5v1h19.388c1.773,0,3.438,0.363,5,0.754c1.56,0.39,2.907,1.04,4.044,1.785
		c1.133,0.744,2.556,1.728,3.229,2.861c0.394,0.661,1.339,1.444,1.339,2.249V35.14c0-0.508-1.571-1.045-2.142-1.5
		C72.374,32.857,70.771,31.5,69.632,31.5z"/>
	<path fill="#231F20" d="M74.021,45.474c0.067-0.03,0.141-0.057,0.209-0.088c0.082-0.039,0.152-0.089,0.232-0.131v-1.223
		C74.361,44.555,74.209,45.031,74.021,45.474z"/>
</g>
</svg>
