<?xml version="1.0" encoding="utf-8"?>
<!-- Generator: Adobe Illustrator 16.0.0, SVG Export Plug-In . SVG Version: 6.00 Build 0)  -->
<!DOCTYPE svg PUBLIC "-//W3C//DTD SVG 1.1//EN" "http://www.w3.org/Graphics/SVG/1.1/DTD/svg11.dtd">
<svg version="1.1" id="Layer_1" xmlns="http://www.w3.org/2000/svg" xmlns:xlink="http://www.w3.org/1999/xlink" x="0px" y="0px"
	 width="110px" height="110px" viewBox="0 0 110 110" enable-background="new 0 0 110 110" xml:space="preserve">
<g>
	<path fill="#191F1B" d="M45.5,46.054h-1V8.328l-11-3.446v38.486l11,10.745v-7.071h1V49.5h12v50.018l-12.488,8.549l0.02-8.731
		L43.98,98.37L44.031,110l14.469-9.971V49.5h28v-40h-41V46.054z M57.5,20.5h18v17h-18V20.5z"/>
	<polygon fill="#191F1B" points="67.674,0.016 67.539,0.492 67.531,0.01 30.492,0.614 30.508,1.601 67.513,0.998 87.551,6.7 
		87.82,5.75 	"/>
	<polygon fill="#191F1B" points="44.5,78.996 44.5,57.794 33.5,46.953 33.5,84.223 44.5,95.064 	"/>
	<polygon fill="#191F1B" points="33.5,98.5 34.5,98.5 34.5,88.902 33.5,87.917 	"/>
	<polygon fill="#191F1B" points="22.358,72.229 31.5,81.199 31.5,79.802 22.886,71.529 	"/>
</g>
</svg>
