<?xml version="1.0" encoding="utf-8"?>
<!-- Generator: Adobe Illustrator 18.1.1, SVG Export Plug-In . SVG Version: 6.00 Build 0)  -->
<!DOCTYPE svg PUBLIC "-//W3C//DTD SVG 1.1//EN" "http://www.w3.org/Graphics/SVG/1.1/DTD/svg11.dtd">
<svg version="1.1" id="Layer_1" xmlns="http://www.w3.org/2000/svg" xmlns:xlink="http://www.w3.org/1999/xlink" x="0px" y="0px"
	 viewBox="0 0 100 100" enable-background="new 0 0 100 100" xml:space="preserve">
<g>
	<g>
		<path d="M4.1,41.9c0.2-1.9,0.4-4.1,2.9-6.1c2.5-2,5.8-2.4,8.9-2.4c3.3,0,11.5,0.8,11.5,7.8v15.9c0,2.9,0.2,3.3,0.8,4.3h-7.9v-2.5
			c-2,1.5-4.3,3.2-8.4,3.2c-6.3,0-8.9-4.5-8.9-8.3c0-4.4,3.5-6.9,5.8-7.8c2.2-0.9,7.4-1.9,10.8-2.5V42c-0.1-1.3-0.2-3.3-3.1-3.3
			c-3.6,0-4,2.2-4.2,3.2H4.1z M14.3,50.1c-1.4,0.5-3.5,1.3-3.5,3.4c0,1.3,1.2,2.8,3,2.8c1,0,1.9-0.4,2.8-0.9c2.7-1.7,2.8-4.2,2.8-7
			L14.3,50.1z"/>
		<path d="M45.1,24.4v12.1c1.1-1.2,3.2-3.3,7.8-3.3c4.4,0,11.6,3,11.6,13.9c0,2.8-0.5,6-1.7,8.4c-1.4,3.1-4.8,6.5-10.2,6.5
			c-4.8,0-7-2.5-8-3.6l0.3,2.9h-7.7v-37H45.1z M44.9,47.5c0,2,0.3,4.5,1.3,6.1c1,1.7,2.9,2.6,4.8,2.6c2.1,0,3.5-1.2,4.2-2
			c1.5-1.9,1.6-5.5,1.6-6.7c0-4.3-1.4-8.5-5.9-8.3C44.9,39.5,44.9,45.9,44.9,47.5z"/>
		<path d="M98.4,55c-1,1.6-2.1,3.3-4.3,4.9c-2.1,1.5-4.8,2.5-7.9,2.5c-5.2,0-13.6-3.1-13.6-14.3c0-8,4.6-14.7,13.7-14.7
			c3,0,8.2,0.8,11.7,6.5l-6,3.4c-0.5-1-1-1.9-2.3-2.9c-0.8-0.5-1.8-0.9-3-0.9c-4.3,0-5.8,5-5.8,8.3c0,3.6,1.8,8.2,6.1,8.2
			c0.4,0,2.4,0,4.1-1.9c0.7-0.8,0.9-1.4,1.2-2.2L98.4,55z"/>
	</g>
	<g>
		<rect y="69" fill="#050505" width="100" height="6"/>
	</g>
</g>
</svg>
