<?xml version="1.0" encoding="utf-8"?>
<!-- Generator: Adobe Illustrator 18.1.1, SVG Export Plug-In . SVG Version: 6.00 Build 0)  -->
<!DOCTYPE svg PUBLIC "-//W3C//DTD SVG 1.1//EN" "http://www.w3.org/Graphics/SVG/1.1/DTD/svg11.dtd">
<svg version="1.1" id="Layer_1" xmlns="http://www.w3.org/2000/svg" xmlns:xlink="http://www.w3.org/1999/xlink" x="0px" y="0px"
	 viewBox="0 0 100 100" enable-background="new 0 0 100 100" xml:space="preserve">
<g>
	<path fill="#231F20" d="M68.4,24.5c0.6,0,1.2,0,1.7,0.1C69.7,11,58.5,0.1,44.7,0.1c-14.1,0-25.5,11.4-25.5,25.5
		c0,13.8,10.9,25,24.6,25.5c0-0.6-0.1-1.2-0.1-1.8C43.7,35.6,54.8,24.5,68.4,24.5z"/>
	<path fill="#231F20" d="M53.7,69.9c-2.8-2.1-5.1-6.9-6.8-6.9H35.7C16,63,0.1,76,0.1,97h30.2C31.5,83,41,73.3,53.7,69.9z"/>
	<path fill="#231F20" d="M86.5,49.2c0-10-8.1-18-18-18c-10,0-18,8.1-18,18c0,10,8.1,18,18,18C78.4,67.3,86.5,59.2,86.5,49.2z"/>
	<path fill="#231F20" d="M68.4,67.3c-10,0-18-8.1-18-18c0-10,8.1-18,18-18c10,0,18,8.1,18,18C86.5,59.2,78.4,67.3,68.4,67.3z"/>
	<path fill="#231F20" d="M73.8,76H62c-13.9,0-25.2,10.3-25.2,24H99C99,86.3,87.7,76,73.8,76z"/>
</g>
</svg>
