<?xml version="1.0" encoding="utf-8"?>
<!-- Generator: Adobe Illustrator 18.1.1, SVG Export Plug-In . SVG Version: 6.00 Build 0)  -->
<!DOCTYPE svg PUBLIC "-//W3C//DTD SVG 1.1//EN" "http://www.w3.org/Graphics/SVG/1.1/DTD/svg11.dtd">
<svg version="1.1" id="Layer_1" xmlns="http://www.w3.org/2000/svg" xmlns:xlink="http://www.w3.org/1999/xlink" x="0px" y="0px"
	 viewBox="0 0 100 100" enable-background="new 0 0 100 100" xml:space="preserve">
<g>
	<g>
		<rect x="32" y="87" width="36" height="4"/>
	</g>
	<g>
		<rect x="32.9" y="78.6" width="34.2" height="4.3"/>
		<rect x="32.9" y="71.2" width="22.5" height="4.3"/>
		<path d="M97.1,23H77.9V0H22.3v23H2.9v44.9h19.5V100h55.6V67.9h19V23z M26.7,4.4h46.7V23H26.7V4.4z M26.6,95.8V55.5h47.2v40.3H26.6
			z M89.6,38.8c-1.9,0-3.5-1.6-3.5-3.5c0-1.9,1.6-3.5,3.5-3.5c1.9,0,3.5,1.6,3.5,3.5C93.1,37.2,91.5,38.8,89.6,38.8z"/>
	</g>
</g>
</svg>
