<?xml version="1.0" encoding="utf-8"?>
<!-- Generator: Adobe Illustrator 18.1.1, SVG Export Plug-In . SVG Version: 6.00 Build 0)  -->
<!DOCTYPE svg PUBLIC "-//W3C//DTD SVG 1.1//EN" "http://www.w3.org/Graphics/SVG/1.1/DTD/svg11.dtd">
<svg version="1.1" id="Layer_1" xmlns="http://www.w3.org/2000/svg" xmlns:xlink="http://www.w3.org/1999/xlink" x="0px" y="0px"
	 viewBox="0 0 100 100" enable-background="new 0 0 100 100" xml:space="preserve">
<g>
	<g>
		<path fill="#231F20" d="M-63.5,24.9c-2.2,3.4-3.5,7.4-3.5,11.8c0,11.9,9.6,21.5,21.5,21.5c11.9,0,21.5-9.6,21.5-21.5
			c0-4.7-1.5-9-4.1-12.6L-46,31.8L-63.5,24.9z"/>
		<path fill="#231F20" d="M-39.2,61h-14c-16.6,0-30,14.1-30,32h74C-9.2,75.1-22.7,61-39.2,61z"/>
		<polygon fill="#231F20" points="-46,28.4 -13.3,14.2 -43.5,2.3 -76.2,16.5 		"/>
	</g>
	<polygon fill="#231F20" points="-16,38 -18,38 -18,13.2 -16,14.2 	"/>
</g>
<g>
	<path d="M50.4,50.4c13.9,0,25.2-11.3,25.2-25.2C75.6,11.3,64.3,0,50.4,0C36.4,0,25.1,11.3,25.1,25.2C25.1,39.1,36.4,50.4,50.4,50.4
		z"/>
	<path d="M50.7,65.5c-0.6,0-1.8,0.4-1.8,1v16c0,0.6,1.2,1,1.8,1c0.6,0,1.8-0.4,1.8-1v-16C52.4,66,51.2,65.5,50.7,65.5z"/>
	<path d="M93.1,90.8c0-13.8-5.7-22.5-14.7-27.9v-4.8l-0.3-0.6c-3.5-4-8.2-6.3-13.8-6.5c-5-0.2-9.7,1.4-13.6,4.4H49
		c-8.5-6.4-20.7-5.8-29.2,1.9L19.4,58v4.6C11.7,68.9,6.2,79.5,6.2,90.8h13.2v8.5l3.5-3.4c3.5-3.2,7.6-4.8,11.6-5.1h2
		c4,0.2,7.9,1.9,11,5l1.6,1.6l1.5-1.6c3.7-3.7,7.9-4.8,10.5-5h3.1c4.2,0.2,7.9,2,10.5,4.9l3.7,4.4v-9.3H93.1z M64.3,86.4
		c-0.4,0-8.3-0.8-15.2,4.9c-4-3.3-8.9-5-13.8-5c-4.1,0-8.7,1.2-12.3,3.5V60.1V60c3.5-6.2,18.4-6,25,0.6c0.3,0.3,0.9,0.5,1.3,0.6
		c0.2,0,0.3,0,0.5,0c0,0,0,0,0,0c0,0,0,0,0,0c0.6,0,1.3-0.2,1.7-0.6c3.4-3.4,8.1-5.2,12.8-5c4,0.1,7,1.7,10.5,4.3v0.3v29.3
		C71.3,87.5,68,86.4,64.3,86.4z"/>
</g>
</svg>
