<?xml version="1.0" encoding="utf-8"?>
<!-- Generator: Adobe Illustrator 16.0.0, SVG Export Plug-In . SVG Version: 6.00 Build 0)  -->
<!DOCTYPE svg PUBLIC "-//W3C//DTD SVG 1.1//EN" "http://www.w3.org/Graphics/SVG/1.1/DTD/svg11.dtd">
<svg version="1.1" id="Layer_1" xmlns="http://www.w3.org/2000/svg" xmlns:xlink="http://www.w3.org/1999/xlink" x="0px" y="0px"
	 width="100px" height="100px" viewBox="0 0 100 100" enable-background="new 0 0 100 100" xml:space="preserve">
<g>
	<path d="M49.836,63.011c-12.901,0-23.363-10.463-23.363-23.364c0-12.905,10.462-23.367,23.363-23.367
		c12.906,0,23.363,10.462,23.363,23.367C73.199,52.548,62.742,63.011,49.836,63.011z"/>
	<path d="M67.85,63.78l-1.68,2.717l-3.755,6.559l-3.755-6.679l-0.371-0.689c-1.631,1.648-5.091,2.767-9.107,2.767
		c-3.451,0-6.495-0.861-8.319-2.143l-3.747,6.564l-3.755-6.654l-1.68-2.44C18.793,67.694,9.515,79.72,9.515,93h80.5
		C90.016,79.72,80.737,67.693,67.85,63.78z"/>
</g>
</svg>
