<?xml version="1.0" encoding="utf-8"?>
<!-- Generator: Adobe Illustrator 16.0.0, SVG Export Plug-In . SVG Version: 6.00 Build 0)  -->
<!DOCTYPE svg PUBLIC "-//W3C//DTD SVG 1.1//EN" "http://www.w3.org/Graphics/SVG/1.1/DTD/svg11.dtd">
<svg version="1.1" id="Layer_1" xmlns="http://www.w3.org/2000/svg" xmlns:xlink="http://www.w3.org/1999/xlink" x="0px" y="0px"
	 width="100px" height="100px" viewBox="0 0 100 100" enable-background="new 0 0 100 100" xml:space="preserve">
<g>
	<path d="M37.166,19.591l20.012,54.34h-14.47l-2.692-8.695H20.003l-2.692,8.695H2.84l20.163-54.34H37.166z M29.855,32.522
		c-0.694,2.771-1.46,5.621-2.234,8.391c-1.153,4.078-3.229,10.468-4.461,14.545h13.776L29.855,32.522z"/>
	<path d="M60.979,45.146c0.229-2.771,0.616-6.079,4.231-8.929c3.694-2.925,8.471-3.541,13.164-3.541
		c4.926,0,16.857,1.156,16.857,11.545V67.62c0,4.311,0.229,4.927,1.153,6.312H84.765v-3.694c-3.003,2.23-6.39,4.772-12.314,4.772
		c-9.236,0-13.164-6.619-13.164-12.236c0-6.466,5.159-10.16,8.467-11.55c3.232-1.381,10.854-2.771,15.855-3.694v-2.155
		c-0.153-1.847-0.308-4.926-4.543-4.926c-5.233,0-5.925,3.236-6.232,4.697H60.979z M75.987,57.231
		c-1.998,0.766-5.077,1.922-5.077,5.001c0,1.923,1.69,4.078,4.461,4.078c1.464,0,2.85-0.537,4.081-1.307
		c3.924-2.464,4.081-6.158,4.156-10.314L75.987,57.231z"/>
</g>
</svg>
