<?xml version="1.0" encoding="utf-8"?>
<!-- Generator: Adobe Illustrator 18.1.1, SVG Export Plug-In . SVG Version: 6.00 Build 0)  -->
<!DOCTYPE svg PUBLIC "-//W3C//DTD SVG 1.1//EN" "http://www.w3.org/Graphics/SVG/1.1/DTD/svg11.dtd">
<svg version="1.1" id="Layer_1" xmlns="http://www.w3.org/2000/svg" xmlns:xlink="http://www.w3.org/1999/xlink" x="0px" y="0px"
	 viewBox="0 0 100 100" enable-background="new 0 0 100 100" xml:space="preserve">
<g>
	<path d="M36.6,19.6L58,77.8H42.5l-2.9-9.3H18.2l-2.9,9.3H-0.2l21.6-58.2H36.6z M28.8,33.4c-0.7,3-1.6,6-2.4,9
		c-1.2,4.4-3.5,11.2-4.8,15.6h14.7L28.8,33.4z"/>
	<path d="M62.1,47c0.2-3,0.7-6.5,4.5-9.6c4-3.1,9.1-3.8,14.1-3.8c5.3,0,18.1,1.2,18.1,12.4V71c0,4.6,0.2,5.3,1.2,6.8H87.6v-4
		c-3.2,2.4-6.8,5.1-13.2,5.1c-9.9,0-14.1-7.1-14.1-13.1c0-6.9,5.5-10.9,9.1-12.4c3.5-1.5,11.6-3,17-4v-2.3c-0.2-2-0.3-5.3-4.9-5.3
		c-5.6,0-6.3,3.5-6.7,5H62.1z M78.2,59.9c-2.1,0.8-5.4,2.1-5.4,5.4c0,2.1,1.8,4.4,4.8,4.4c1.6,0,3.1-0.6,4.4-1.4
		c4.2-2.6,4.4-6.6,4.5-11L78.2,59.9z"/>
</g>
</svg>
