<?xml version="1.0" encoding="utf-8"?>
<!-- Generator: Adobe Illustrator 16.0.0, SVG Export Plug-In . SVG Version: 6.00 Build 0)  -->
<!DOCTYPE svg PUBLIC "-//W3C//DTD SVG 1.1//EN" "http://www.w3.org/Graphics/SVG/1.1/DTD/svg11.dtd">
<svg version="1.1" id="Layer_1" xmlns="http://www.w3.org/2000/svg" xmlns:xlink="http://www.w3.org/1999/xlink" x="0px" y="0px"
	 width="300px" height="300px" viewBox="0 0 300 300" enable-background="new 0 0 300 300" xml:space="preserve">
<g>
	<rect y="86.576" opacity="0.3" fill="#FFFFFF" enable-background="new    " width="7.239" height="22.048"/>
	<rect y="138.976" opacity="0.3" fill="#FFFFFF" enable-background="new    " width="7.239" height="22.049"/>
	<rect y="190.236" opacity="0.3" fill="#FFFFFF" enable-background="new    " width="7.239" height="23.188"/>
	<rect x="190.807" opacity="0.3" fill="#FFFFFF" enable-background="new    " width="23.188" height="7.24"/>
	<rect x="138.407" opacity="0.3" fill="#FFFFFF" enable-background="new    " width="23.187" height="7.24"/>
	<rect x="86.005" opacity="0.3" fill="#FFFFFF" enable-background="new    " width="23.188" height="7.24"/>
	<rect x="292.761" y="191.376" opacity="0.3" fill="#FFFFFF" enable-background="new    " width="7.239" height="22.05"/>
	<rect x="292.761" y="138.976" opacity="0.3" fill="#FFFFFF" enable-background="new    " width="7.239" height="22.049"/>
	<g opacity="0.3">
		<rect x="292.761" y="86.576" fill="#FFFFFF" width="7.239" height="23.188"/>
	</g>
	<rect x="86.005" y="292.762" opacity="0.3" fill="#FFFFFF" enable-background="new    " width="23.188" height="7.238"/>
	<rect x="138.407" y="292.762" opacity="0.3" fill="#FFFFFF" enable-background="new    " width="23.187" height="7.238"/>
	<rect x="190.807" y="292.762" opacity="0.3" fill="#FFFFFF" enable-background="new    " width="23.188" height="7.238"/>
	<rect y="42.148" opacity="0.3" fill="#FFFFFF" enable-background="new    " width="7.239" height="16.353"/>
	<polygon opacity="0.3" fill="#FFFFFF" enable-background="new    " points="0,16.354 0,0 16.352,0 16.352,7.24 7.239,7.24 
		7.239,16.354 	"/>
	<rect x="40.44" opacity="0.3" fill="#FFFFFF" enable-background="new    " width="16.353" height="7.24"/>
	<rect x="242.068" opacity="0.3" fill="#FFFFFF" enable-background="new    " width="16.353" height="7.24"/>
	<polygon opacity="0.3" fill="#FFFFFF" enable-background="new    " points="292.761,16.354 292.761,7.24 283.646,7.24 283.646,0 
		300,0 300,16.354 	"/>
	<rect x="292.761" y="41.009" opacity="0.3" fill="#FFFFFF" enable-background="new    " width="7.239" height="16.353"/>
	<rect x="292.76" y="241.499" opacity="0.3" fill="#FFFFFF" enable-background="new    " width="7.24" height="16.353"/>
	<polygon opacity="0.3" fill="#FFFFFF" enable-background="new    " points="283.646,300 283.646,292.762 292.76,292.762 
		292.76,283.646 300,283.646 300,300 	"/>
	<rect x="243.208" y="292.762" opacity="0.3" fill="#FFFFFF" enable-background="new    " width="16.354" height="7.238"/>
	<rect x="41.579" y="292.76" opacity="0.3" fill="#FFFFFF" enable-background="new    " width="16.353" height="7.24"/>
	<polygon opacity="0.3" fill="#FFFFFF" enable-background="new    " points="0,300 0,283.646 7.239,283.646 7.239,292.76 
		16.353,292.76 16.353,300 	"/>
	<rect y="242.637" opacity="0.3" fill="#FFFFFF" enable-background="new    " width="7.239" height="16.354"/>
</g>
</svg>
