<?xml version="1.0" encoding="utf-8"?>
<!-- Generator: Adobe Illustrator 16.0.0, SVG Export Plug-In . SVG Version: 6.00 Build 0)  -->
<!DOCTYPE svg PUBLIC "-//W3C//DTD SVG 1.1//EN" "http://www.w3.org/Graphics/SVG/1.1/DTD/svg11.dtd">
<svg version="1.1" id="Layer_1" xmlns="http://www.w3.org/2000/svg" xmlns:xlink="http://www.w3.org/1999/xlink" x="0px" y="0px"
	 width="300px" height="244.208px" viewBox="0 0 300 244.208" enable-background="new 0 0 300 244.208" xml:space="preserve">
<g>
	<path fill="#FFFFFF" d="M81.916,244.208c-0.276,0-0.553-0.004-0.83-0.014c-8.968-0.312-16.917-4.938-21.283-12.759
		c-1.276-1.906-13.547-19.497-50.36-49.489c-10.971-8.938-12.619-25.074-3.682-36.045c8.939-10.973,25.076-12.619,36.047-3.682
		c16.296,13.275,28.609,24.68,37.791,33.998C113.186,129.667,185.803,38.688,263.54,2.41c12.823-5.985,28.067-0.44,34.053,12.382
		c5.983,12.823,0.44,28.068-12.383,34.052c-36.912,17.226-79.849,54.016-124.165,106.391
		c-34.418,40.676-57.477,76.471-57.706,76.827C98.606,239.44,90.63,244.208,81.916,244.208z"/>
</g>
</svg>
