<?xml version="1.0" encoding="utf-8"?>
<!-- Generator: Adobe Illustrator 16.0.0, SVG Export Plug-In . SVG Version: 6.00 Build 0)  -->
<!DOCTYPE svg PUBLIC "-//W3C//DTD SVG 1.1//EN" "http://www.w3.org/Graphics/SVG/1.1/DTD/svg11.dtd">
<svg version="1.1" id="Layer_1" xmlns="http://www.w3.org/2000/svg" xmlns:xlink="http://www.w3.org/1999/xlink" x="0px" y="0px"
	 width="110px" height="110px" viewBox="0 0 110 110" enable-background="new 0 0 110 110" xml:space="preserve">
<g>
	<path d="M68.434,35.975c-1.719-1.438-4.125-2.158-7.219-2.158H48.991v19.114h12.224c3.094,0,5.5-0.78,7.219-2.333
		c1.717-1.557,2.576-4.024,2.576-7.399C71.01,39.821,70.148,37.413,68.434,35.975z"/>
	<path d="M55,0C24.625,0,0,24.625,0,55c0,30.376,24.624,55,55,55s55-24.624,55-55C110,24.625,85.375,0,55,0z M78.785,59.361
		c-3.799,3.168-9.229,4.754-16.279,4.754H48.991v23.342H35.516V22.543h27.871c6.424,0,11.549,1.674,15.368,5.019
		c3.819,3.35,5.729,8.529,5.729,15.548C84.484,50.772,82.585,56.188,78.785,59.361z"/>
</g>
</svg>
