<?xml version="1.0" encoding="utf-8"?>
<!-- Generator: Adobe Illustrator 16.0.0, SVG Export Plug-In . SVG Version: 6.00 Build 0)  -->
<!DOCTYPE svg PUBLIC "-//W3C//DTD SVG 1.1//EN" "http://www.w3.org/Graphics/SVG/1.1/DTD/svg11.dtd">
<svg version="1.1" id="Layer_1" xmlns="http://www.w3.org/2000/svg" xmlns:xlink="http://www.w3.org/1999/xlink" x="0px" y="0px"
	 width="110px" height="110px" viewBox="0 0 110 110" enable-background="new 0 0 110 110" xml:space="preserve">
<g>
	<defs>
		<polygon id="SVGID_1_" points="55.106,9.064 47.631,3.18 36.684,16 24,16 24,23 11,23 11,-7 101.106,-7 100.83,23.245 
			88.388,22.809 87.559,15.125 72.627,14.083 61.161,3.01 		"/>
	</defs>
	<clipPath id="SVGID_2_">
		<use xlink:href="#SVGID_1_"  overflow="visible"/>
	</clipPath>
	<path clip-path="url(#SVGID_2_)" fill="#1A1A1A" d="M94.641,56.237c0.01-0.117,0.012-0.224,0.008-0.326
		c0.004-0.102,0.002-0.209-0.008-0.325c0.029-1.444-1.391-1.438-1.514-2.728c1.98-2.125,3.234-4.896,2.726-8.789
		c-0.129-0.989-0.899-2.018-0.909-3.03c-0.027-2.993,2.166-6.31-0.303-8.183c0.456-0.858,1.227-1.401,1.212-2.728
		c-1.8-2.147-0.344-2.939-0.302-6.062c-1.164-1.854-5.029-2.327-3.94-5.456c1.086-0.989,2.901,0.638,3.94-0.303
		c-0.696-4.019-0.077-9.01,0-13.333c-3.192-4.132-6.806-0.139-10.911-0.305c-0.98-0.04-2.054-0.994-3.03-1.212
		c-4.223-0.941-8.446,0.594-13.336,0.606c-2.9,0.008-6.084-1.234-9.092-1.212c-1.353,0.01-2.685,0.205-3.975,0.469
		c-1.292-0.265-2.623-0.459-3.975-0.469c-3.008-0.022-6.19,1.221-9.092,1.212c-4.888-0.012-9.111-1.547-13.335-0.606
		c-0.975,0.218-2.05,1.172-3.029,1.212c-4.107,0.166-7.72-3.828-10.912,0.305c0.077,4.323,0.696,9.314,0,13.333
		c1.038,0.941,2.854-0.686,3.94,0.303c1.089,3.129-2.777,3.601-3.94,5.456c0.043,3.123,1.499,3.914-0.302,6.062
		c-0.014,1.326,0.756,1.869,1.212,2.728c-2.469,1.873-0.276,5.19-0.304,8.183c-0.009,1.012-0.781,2.041-0.909,3.03
		c-0.508,3.894,0.744,6.664,2.727,8.789c-0.124,1.29-1.544,1.283-1.514,2.728c-0.011,0.116-0.013,0.223-0.01,0.325
		c-0.003,0.102-0.001,0.208,0.01,0.326c-0.03,1.441,1.391,1.436,1.514,2.728c-1.982,2.126-3.235,4.896-2.727,8.788
		c0.128,0.988,0.899,2.019,0.909,3.031c0.027,2.992-2.166,6.31,0.304,8.182c-0.457,0.858-1.226,1.402-1.212,2.728
		c1.801,2.148,0.346,2.939,0.302,6.062c1.164,1.854,5.03,2.326,3.94,5.454c-1.086,0.99-2.902-0.636-3.94,0.305
		c0.696,4.018,0.077,9.009,0,13.333c3.192,4.132,6.804,0.14,10.912,0.304c0.979,0.039,2.054,0.994,3.029,1.212
		c4.224,0.942,8.447-0.593,13.335-0.605c2.902-0.007,6.084,1.235,9.092,1.213c1.353-0.01,2.684-0.204,3.975-0.469
		c1.291,0.265,2.623,0.459,3.975,0.469c3.008,0.022,6.191-1.22,9.092-1.213c4.89,0.013,9.113,1.548,13.336,0.605
		c0.977-0.218,2.05-1.173,3.03-1.212c4.105-0.164,7.719,3.828,10.911-0.304c-0.077-4.324-0.696-9.315,0-13.333
		c-1.039-0.94-2.854,0.686-3.94-0.305c-1.089-3.128,2.776-3.6,3.94-5.454c-0.042-3.122-1.498-3.913,0.302-6.062
		c0.015-1.325-0.756-1.869-1.212-2.728c2.469-1.872,0.275-5.189,0.303-8.182c0.01-1.013,0.78-2.043,0.909-3.031
		c0.509-3.893-0.745-6.662-2.726-8.788C93.25,57.673,94.67,57.679,94.641,56.237z M92.216,57.448
		c-1.074-0.035-2.441,0.221-2.424-0.908v-0.605c0.013-0.008,0.025-0.016,0.037-0.023c-0.012-0.007-0.024-0.015-0.037-0.023v-0.605
		c-0.018-1.128,1.35-0.875,2.424-0.909c0.434,0.542,0.517,1.011,0.377,1.537C92.732,56.439,92.649,56.908,92.216,57.448z
		 M91.912,65.632C85.932,66.946,90.89,58.226,91.912,65.632L91.912,65.632z M91.912,68.965c-1.587,1.044-2.124-1.205-4.241-0.605
		c0.296-0.714,0.097-1.922,1.212-1.82C90.013,67.229,91.971,67.09,91.912,68.965z M87.671,59.267
		C86.325,77.754,72.147,93.141,55.207,93.03c-16.94,0.11-31.118-15.276-32.464-33.764c-0.083-1.145-0.131-2.261-0.145-3.355
		c0.014-1.093,0.061-2.209,0.145-3.356c1.346-18.485,15.524-33.873,32.464-33.762c16.941-0.111,31.119,15.277,32.464,33.762
		c0.083,1.146,0.131,2.263,0.146,3.356C87.802,57.006,87.754,58.122,87.671,59.267z M81.003,81.391h0.908
		c0.846,6.631,3.101,11.852,8.486,13.94c-0.819,1.606-1.171,3.679-2.121,5.152C84.138,95.835,81.888,89.294,81.003,81.391z
		 M83.126,94.119c-1.121-3.327-3.551-6.956-2.729-11.213C80.848,86.901,82.627,91.18,83.126,94.119z M83.126,79.877
		c0.78,2.854,2.204,5.066,2.423,8.483C83.793,86.86,82.424,81.821,83.126,79.877z M89.792,93.514
		c-3.372-0.75-2.347-4.662-3.03-7.576c-0.668-2.848-2.981-5.745-3.032-8.486c0.39-0.017,0.421-0.388,0.91-0.303
		C85.666,83.1,90.494,86.841,89.792,93.514z M76.762,86.542v3.031C74.741,89.983,75.469,86.403,76.762,86.542z M73.73,96.544
		c-1.163,0.959-2.496,1.747-4.243,2.121c-0.552-4.442,1.401-8.866,4.848-10.305C73.557,91.042,73.615,93.527,73.73,96.544z
		 M55.207,99.448c-4.645,1.379-8.854,3.115-11.854,4.671c2.231-2.108,6.659-4.531,11.854-6.427
		c5.197,1.896,9.625,4.318,11.857,6.427C64.062,102.563,59.851,100.827,55.207,99.448z M65.244,104.423
		c-3.185-0.394-6.627-1.336-10.038-2.056c-3.41,0.72-6.851,1.662-10.036,2.056c2.187-1.149,5.839-2.783,10.036-4.028
		C59.404,101.64,63.056,103.273,65.244,104.423z M36.078,88.36c3.448,1.438,5.4,5.862,4.849,10.305
		c-1.749-0.374-3.079-1.162-4.243-2.121C36.799,93.527,36.857,91.042,36.078,88.36z M40.018,90.787
		c2.018,0.998,2.83,4.525,2.122,7.271C41.392,95.674,40.905,93.03,40.018,90.787z M41.836,100.182
		c-0.035,1.075-1.002,1.22-2.122,1.214c-0.304-0.407-0.5-0.917-0.91-1.214C39.559,99.252,40.645,100.544,41.836,100.182z
		 M48.2,93.817c1.594-0.079,2.824,0.208,3.939,0.604c-1.195,5.091-6.307,7.804-10.607,8.79C44.5,100.826,48.118,99.088,48.2,93.817z
		 M42.442,91.999c4.523-0.404,4.691,6.41,0.302,6.363C43.695,96.32,42.388,94.132,42.442,91.999z M53.959,94.422
		c0.336-0.135,0.762-0.106,1.248-0.102c0.485-0.005,0.91-0.033,1.25,0.102c0.432,0.372,0.687,1.157,0.302,1.517
		c-0.464-0.289-1.023-0.48-1.551-0.704c-0.527,0.224-1.087,0.415-1.551,0.704C53.27,95.579,53.526,94.794,53.959,94.422z
		 M58.274,94.422c1.115-0.396,2.344-0.684,3.938-0.604c0.084,5.271,3.699,7.009,6.67,9.395
		C64.582,102.226,59.471,99.513,58.274,94.422z M67.668,98.362c-4.387,0.047-4.219-6.768,0.303-6.363
		C68.025,94.132,66.718,96.32,67.668,98.362z M70.397,90.787c-0.889,2.243-1.375,4.887-2.124,7.271
		C67.566,95.312,68.379,91.785,70.397,90.787z M68.578,100.182c1.19,0.362,2.277-0.93,3.03,0c-0.408,0.297-0.605,0.807-0.91,1.214
		C69.58,101.401,68.612,101.257,68.578,100.182z M33.653,89.573v-3.031C34.945,86.403,35.673,89.983,33.653,89.573z M23.652,85.938
		c-0.683,2.914,0.343,6.826-3.03,7.576c-0.704-6.673,4.126-10.414,5.153-16.365c0.489-0.085,0.521,0.286,0.908,0.303
		C26.632,80.192,24.319,83.09,23.652,85.938z M27.289,79.877c0.7,1.944-0.669,6.983-2.424,8.483
		C25.083,84.943,26.508,82.731,27.289,79.877z M28.501,81.391h0.91c-0.886,7.903-3.135,14.444-7.273,19.093
		c-0.952-1.474-1.303-3.546-2.123-5.152C25.401,93.242,27.656,88.021,28.501,81.391z M30.017,82.906
		c0.821,4.257-1.607,7.886-2.728,11.213C27.787,91.18,29.566,86.901,30.017,82.906z M18.5,46.191
		C24.482,44.876,19.524,53.598,18.5,46.191L18.5,46.191z M18.5,42.858c1.588-1.044,2.127,1.207,4.243,0.605
		c-0.295,0.715-0.096,1.923-1.212,1.819C20.401,44.594,18.443,44.733,18.5,42.858z M21.53,66.539
		c1.116-0.102,0.917,1.106,1.212,1.82c-2.115-0.6-2.655,1.649-4.243,0.605C18.443,67.09,20.401,67.229,21.53,66.539z M18.5,65.632
		C19.524,58.226,24.482,66.946,18.5,65.632L18.5,65.632z M29.411,30.433h-0.91c-0.845-6.631-3.1-11.852-8.486-13.94
		c0.82-1.606,1.171-3.679,2.123-5.153C26.276,15.989,28.525,22.529,29.411,30.433z M27.289,17.704
		c1.121,3.328,3.549,6.957,2.728,11.213C29.566,24.922,27.787,20.643,27.289,17.704z M27.289,31.947
		c-0.781-2.856-2.205-5.069-2.424-8.485C26.62,24.963,27.989,30.003,27.289,31.947z M20.622,18.31
		c3.373,0.75,2.347,4.662,3.03,7.577c0.667,2.847,2.98,5.744,3.031,8.485c-0.387,0.018-0.419,0.388-0.908,0.304
		C24.749,28.724,19.918,24.983,20.622,18.31z M33.653,25.281V22.25C35.673,21.841,34.945,25.42,33.653,25.281z M36.684,15.28
		c1.164-0.959,2.494-1.749,4.243-2.122c0.551,4.441-1.4,8.866-4.849,10.304C36.857,20.782,36.799,18.296,36.684,15.28z
		 M55.207,12.376c4.644-1.38,8.855-3.117,11.857-4.673c-2.232,2.11-6.66,4.532-11.857,6.43c-5.195-1.897-9.624-4.319-11.854-6.43
		C46.353,9.259,50.562,10.996,55.207,12.376z M45.17,7.4c3.185,0.394,6.626,1.335,10.036,2.054C58.617,8.735,62.06,7.794,65.244,7.4
		c-2.188,1.149-5.84,2.784-10.038,4.029C51.009,10.185,47.357,8.549,45.17,7.4z M74.335,23.462
		c-3.446-1.438-5.399-5.862-4.848-10.304c1.747,0.373,3.08,1.163,4.243,2.122C73.615,18.296,73.557,20.782,74.335,23.462z
		 M70.397,21.037c-2.019-1-2.831-4.526-2.124-7.272C69.022,16.15,69.509,18.793,70.397,21.037z M68.578,11.642
		c0.034-1.076,1.002-1.219,2.12-1.212c0.305,0.405,0.502,0.916,0.91,1.212C70.855,12.572,69.769,11.279,68.578,11.642z
		 M62.213,18.007c-1.595,0.078-2.823-0.208-3.938-0.605c1.196-5.092,6.308-7.803,10.608-8.788
		C65.912,10.997,62.297,12.736,62.213,18.007z M67.971,19.825c-4.521,0.404-4.689-6.411-0.303-6.364
		C66.718,15.504,68.025,17.69,67.971,19.825z M56.456,17.401c-0.34,0.136-0.764,0.106-1.25,0.102
		c-0.486,0.004-0.911,0.034-1.248-0.102c-0.433-0.371-0.689-1.157-0.303-1.516c0.464,0.289,1.024,0.48,1.551,0.704
		c0.528-0.224,1.087-0.415,1.551-0.704C57.143,16.244,56.888,17.03,56.456,17.401z M52.14,17.401
		c-1.116,0.398-2.345,0.684-3.939,0.605c-0.083-5.271-3.7-7.01-6.667-9.394C45.833,9.598,50.944,12.309,52.14,17.401z
		 M42.744,13.461c4.389-0.047,4.221,6.768-0.302,6.364C42.388,17.69,43.695,15.504,42.744,13.461z M40.018,21.037
		c0.888-2.244,1.375-4.887,2.122-7.272C42.847,16.511,42.035,20.038,40.018,21.037z M41.836,11.642c-1.191-0.362-2.277,0.93-3.031,0
		c0.409-0.296,0.605-0.807,0.91-1.212C40.834,10.423,41.802,10.565,41.836,11.642z M76.762,22.25v3.031
		C75.469,25.42,74.741,21.841,76.762,22.25z M86.762,25.887c0.684-2.916-0.342-6.828,3.03-7.577
		c0.702,6.674-4.126,10.414-5.152,16.366c-0.489,0.084-0.521-0.286-0.91-0.304C83.78,31.631,86.094,28.734,86.762,25.887z
		 M83.126,31.947c-0.702-1.944,0.667-6.984,2.423-8.485C85.33,26.878,83.906,29.091,83.126,31.947z M81.911,30.433h-0.908
		c0.885-7.904,3.135-14.444,7.273-19.094c0.95,1.475,1.302,3.547,2.121,5.153C85.012,18.581,82.757,23.802,81.911,30.433z
		 M80.397,28.917c-0.822-4.256,1.607-7.885,2.729-11.213C82.627,20.643,80.848,24.922,80.397,28.917z M88.883,45.282
		c-1.115,0.104-0.916-1.104-1.212-1.819c2.117,0.602,2.654-1.649,4.241-0.605C91.971,44.733,90.013,44.594,88.883,45.282z
		 M91.912,46.191C90.89,53.598,85.932,44.876,91.912,46.191L91.912,46.191z M89.488,52.859c1.139-2.392,4.346-4.637,3.639-8.487
		c-0.301-1.632-1.228-2.609-3.033-3.332c-1.437-0.35-2.478,0.702-3.332,0c1.087-2.717,5.63-1.462,6.667-0.303
		C96.749,44.443,93.279,53.033,89.488,52.859z M90.702,35.584c1.152,1.611-0.546,3.31-2.124,2.122
		C88.337,36.05,89.044,35.342,90.702,35.584z M88.578,34.07c2.41-5.051,7.994,1.817,5.155,5.757
		C91.389,38.535,93.519,32.766,88.578,34.07z M92.216,29.826c0.246-0.26,0.83-0.18,0.911-0.606
		C96.77,29.708,92.128,33.857,92.216,29.826z M94.338,24.674c-3.152,4.021-7.117,7.227-7.879,13.637
		c-3.946-5.155,3.391-10.521,3.938-16.061C91.42,22.226,93.337,23.691,94.338,24.674z M89.488,9.824c1.34,0.778,2.707,0.409,4.245,0
		c-0.346,1.858,0.562,5.863,0.604,7.273C90.773,16.621,89.914,13.442,89.488,9.824z M93.733,8.916
		c-1.002-1.122-1.009-3.236-3.64-2.728C91.313,2.444,96.908,6.421,93.733,8.916z M92.216,7.4v1.213c-0.49,0.455-2.235,0.455-2.728,0
		C89.169,6.501,91.191,6.685,92.216,7.4z M84.034,7.4c1.782-0.845,2.834-2.42,5.152-2.729c-0.401,1.62-1.138,2.904-0.91,5.152
		c-4.483,4.406-8.089,9.691-8.79,17.881c-0.487,0.085-0.521-0.287-0.907-0.303c-0.978-7.452,1.851-13.7,4.243-18.789
		c-2.141-3.888-9.758-0.446-12.124-3.941C75.191,4.521,83.012,3.127,84.034,7.4z M77.973,8.31C78.75,8.746,80.11,8.596,80.7,9.218
		c0.104,1.417-0.654,1.972-0.91,3.031C79.042,11.204,77.82,9.272,77.973,8.31z M55.207,4.427c0.634-0.126,1.255-0.244,1.854-0.361
		c-0.06,0.799-0.9,1.104-1.854,1.315c-0.953-0.212-1.794-0.516-1.854-1.315C53.952,4.183,54.573,4.301,55.207,4.427z M55.207,5.767
		c8.887-2.518,21.625,0.169,22.766,8.3c0.397,2.837-0.342,5.841-2.122,6.667h-0.605c-0.552-1.273-0.399-4.155,0-5.455
		c-0.734-1.488-1.958-2.487-2.425-4.243c-2.612-3.686-7.283-5.123-13.032-4.547c-1.616,0.163-3.121,0.671-4.582,1.227
		c-1.459-0.555-2.965-1.063-4.581-1.227c-5.749-0.576-10.419,0.861-13.032,4.547c-0.467,1.756-1.69,2.755-2.425,4.243
		c0.4,1.299,0.552,4.182,0,5.455h-0.604c-1.78-0.826-2.52-3.83-2.123-6.667C33.582,5.936,46.319,3.249,55.207,5.767z M30.623,12.25
		c-0.255-1.059-1.013-1.615-0.909-3.031c0.589-0.623,1.951-0.473,2.727-0.909C32.593,9.272,31.372,11.204,30.623,12.25z M26.38,7.4
		c1.022-4.273,8.842-2.879,13.334-2.729c-2.365,3.495-9.983,0.054-12.123,3.941c2.392,5.088,5.222,11.337,4.243,18.789
		c-0.388,0.017-0.419,0.388-0.909,0.303c-0.7-8.189-4.307-13.475-8.789-17.881c0.226-2.248-0.509-3.532-0.91-5.152
		C23.546,4.98,24.598,6.555,26.38,7.4z M20.925,8.613c-0.492,0.455-2.236,0.455-2.728,0V7.4C19.222,6.685,21.245,6.501,20.925,8.613
		z M20.318,6.188c-2.629-0.509-2.636,1.605-3.637,2.728C13.505,6.421,19.101,2.444,20.318,6.188z M16.075,17.098
		c0.043-1.41,0.951-5.415,0.606-7.273c1.536,0.409,2.905,0.778,4.244,0C20.501,13.442,19.64,16.621,16.075,17.098z M20.015,22.25
		c0.548,5.54,7.887,10.906,3.94,16.061c-0.762-6.41-4.727-9.616-7.88-13.637C17.076,23.691,18.993,22.226,20.015,22.25z
		 M19.712,35.584c1.658-0.242,2.365,0.466,2.123,2.122C20.257,38.894,18.559,37.195,19.712,35.584z M16.682,39.827
		c-2.839-3.94,2.744-10.809,5.153-5.757C16.894,32.766,19.025,38.535,16.682,39.827z M17.288,29.22
		c0.08,0.426,0.665,0.347,0.91,0.606C18.287,33.857,13.643,29.708,17.288,29.22z M16.986,40.737
		c1.037-1.159,5.578-2.414,6.666,0.303c-0.854,0.702-1.894-0.35-3.333,0c-1.804,0.723-2.73,1.7-3.031,3.332
		c-0.708,3.85,2.499,6.095,3.638,8.487C17.135,53.033,13.663,44.443,16.986,40.737z M18.198,54.375
		c1.075,0.035,2.441-0.219,2.424,0.909v0.605c-0.013,0.008-0.026,0.016-0.039,0.023c0.013,0.007,0.026,0.015,0.039,0.023v0.605
		c0.017,1.129-1.349,0.873-2.424,0.908c-0.433-0.54-0.516-1.009-0.377-1.537C17.682,55.385,17.765,54.916,18.198,54.375z
		 M20.925,58.965c-1.139,2.392-4.346,4.637-3.638,8.485c0.3,1.633,1.227,2.61,3.031,3.334c1.439,0.349,2.479-0.704,3.333,0
		c-1.087,2.718-5.629,1.461-6.666,0.304C13.663,67.382,17.135,58.789,20.925,58.965z M19.712,76.24
		c-1.153-1.611,0.545-3.31,2.123-2.123C22.077,75.772,21.37,76.481,19.712,76.24z M21.834,77.754
		c-2.409,5.051-7.992-1.817-5.153-5.758C19.025,73.289,16.894,79.058,21.834,77.754z M18.198,81.997
		c-0.245,0.261-0.83,0.181-0.91,0.606C13.643,82.117,18.287,77.966,18.198,81.997z M16.075,87.15
		c3.153-4.022,7.118-7.229,7.88-13.639c3.946,5.156-3.393,10.522-3.94,16.062C18.993,89.597,17.076,88.131,16.075,87.15z
		 M20.925,101.998c-1.339-0.777-2.708-0.407-4.244,0c0.344-1.857-0.563-5.863-0.606-7.272C19.64,95.2,20.501,98.382,20.925,101.998z
		 M16.682,102.908c1,1.121,1.008,3.235,3.637,2.727C19.101,109.379,13.505,105.401,16.682,102.908z M18.198,104.423v-1.211
		c0.491-0.456,2.235-0.456,2.728,0C21.245,105.322,19.222,105.139,18.198,104.423z M26.38,104.423
		c-1.782,0.846-2.834,2.42-5.152,2.728c0.401-1.618,1.136-2.903,0.91-5.152c4.481-4.404,8.088-9.69,8.789-17.881
		c0.49-0.084,0.521,0.289,0.909,0.303c0.979,7.453-1.852,13.703-4.243,18.792c2.139,3.886,9.758,0.444,12.123,3.938
		C35.222,107.301,27.402,108.696,26.38,104.423z M32.44,103.515c-0.775-0.438-2.138-0.288-2.727-0.909
		c-0.104-1.416,0.654-1.974,0.909-3.032C31.372,100.621,32.593,102.549,32.44,103.515z M55.207,107.397
		c-0.633,0.124-1.254,0.243-1.854,0.359c0.061-0.8,0.902-1.104,1.854-1.314c0.954,0.211,1.794,0.515,1.854,1.314
		C56.462,107.641,55.84,107.521,55.207,107.397z M55.207,106.057c-8.887,2.519-21.625-0.169-22.766-8.3
		c-0.396-2.837,0.343-5.842,2.123-6.669h0.604c0.552,1.273,0.4,4.155,0,5.456c0.735,1.487,1.958,2.487,2.425,4.243
		c2.613,3.687,7.284,5.121,13.032,4.545c1.616-0.161,3.122-0.669,4.581-1.227c1.46,0.558,2.965,1.065,4.582,1.227
		c5.749,0.576,10.42-0.858,13.032-4.545c0.467-1.756,1.69-2.756,2.425-4.243c-0.399-1.301-0.552-4.183,0-5.456h0.605
		c1.78,0.827,2.52,3.832,2.122,6.669C76.832,105.888,64.094,108.575,55.207,106.057z M79.79,99.573
		c0.256,1.059,1.015,1.616,0.91,3.032c-0.59,0.621-1.95,0.472-2.728,0.909C77.82,102.549,79.042,100.621,79.79,99.573z
		 M84.034,104.423c-1.022,4.273-8.843,2.878-13.336,2.728c2.366-3.494,9.983-0.053,12.124-3.938
		c-2.393-5.089-5.221-11.339-4.243-18.792c0.386-0.014,0.42-0.387,0.907-0.303c0.701,8.19,4.307,13.477,8.79,17.881
		c-0.228,2.249,0.509,3.534,0.91,5.152C86.868,106.843,85.816,105.269,84.034,104.423z M89.488,103.212
		c0.492-0.456,2.237-0.456,2.728,0v1.211C91.191,105.139,89.169,105.322,89.488,103.212z M90.094,105.635
		c2.631,0.509,2.638-1.605,3.64-2.727C96.908,105.401,91.313,109.379,90.094,105.635z M94.338,94.726
		c-0.043,1.409-0.95,5.415-0.604,7.272c-1.538-0.407-2.905-0.777-4.245,0C89.914,98.382,90.773,95.2,94.338,94.726z M90.397,89.573
		c-0.548-5.539-7.885-10.905-3.938-16.062c0.762,6.41,4.727,9.616,7.879,13.639C93.337,88.131,91.42,89.597,90.397,89.573z
		 M90.702,76.24c-1.658,0.241-2.365-0.468-2.124-2.123C90.156,72.931,91.854,74.629,90.702,76.24z M93.733,71.996
		c2.839,3.94-2.745,10.809-5.155,5.758C93.519,79.058,91.389,73.289,93.733,71.996z M93.127,82.604
		c-0.081-0.426-0.665-0.346-0.911-0.606C92.128,77.966,96.77,82.117,93.127,82.604z M93.429,71.088
		c-1.037,1.157-5.58,2.414-6.667-0.304c0.854-0.704,1.896,0.349,3.332,0c1.806-0.724,2.732-1.701,3.033-3.334
		c0.707-3.849-2.5-6.094-3.639-8.485C93.279,58.789,96.749,67.382,93.429,71.088z"/>
</g>
<g>
	<defs>
		<polygon id="SVGID_3_" points="55.202,101.166 62.678,106.936 73.624,94 87,94 87,87 100,87 100,117 9.204,117 9.478,86.869 
			21.921,87.362 22.75,95.077 37.682,96.134 49.146,107.212 		"/>
	</defs>
	<clipPath id="SVGID_4_">
		<use xlink:href="#SVGID_3_"  overflow="visible"/>
	</clipPath>
	<path clip-path="url(#SVGID_4_)" fill="#1A1A1A" d="M15.668,53.993c-0.011,0.115-0.013,0.223-0.01,0.325
		c-0.003,0.101-0.001,0.209,0.01,0.324c-0.03,1.445,1.391,1.44,1.514,2.728c-1.981,2.127-3.233,4.896-2.725,8.789
		c0.127,0.989,0.898,2.02,0.908,3.031c0.028,2.992-2.167,6.31,0.303,8.183c-0.456,0.857-1.226,1.4-1.211,2.727
		c1.8,2.146,0.344,2.938,0.301,6.062c1.163,1.854,5.03,2.326,3.94,5.454c-1.085,0.99-2.901-0.636-3.94,0.304
		c0.695,4.019,0.077,9.01,0,13.334c3.191,4.132,6.805,0.137,10.912,0.304c0.979,0.038,2.054,0.995,3.029,1.212
		c4.224,0.942,8.447-0.594,13.336-0.606c2.901-0.009,6.083,1.234,9.091,1.213c1.354-0.011,2.684-0.205,3.976-0.47
		c1.291,0.265,2.623,0.459,3.976,0.47c3.007,0.021,6.189-1.222,9.092-1.213c4.888,0.013,9.111,1.549,13.335,0.606
		c0.975-0.217,2.05-1.174,3.029-1.212c4.106-0.167,7.72,3.828,10.911-0.304c-0.076-4.324-0.695-9.315,0-13.334
		c-1.039-0.939-2.855,0.687-3.939-0.304c-1.091-3.128,2.777-3.6,3.939-5.454c-0.043-3.124-1.498-3.916,0.302-6.062
		c0.014-1.326-0.756-1.869-1.212-2.727c2.47-1.873,0.276-5.19,0.304-8.183c0.011-1.012,0.781-2.042,0.908-3.031
		c0.508-3.894-0.743-6.662-2.727-8.789c0.125-1.288,1.545-1.283,1.515-2.728c0.011-0.115,0.014-0.223,0.011-0.324
		c0.003-0.102,0-0.21-0.011-0.325c0.03-1.444-1.39-1.438-1.515-2.729c1.983-2.125,3.234-4.894,2.727-8.788
		c-0.127-0.988-0.897-2.019-0.908-3.031c-0.027-2.992,2.166-6.308-0.304-8.182c0.456-0.858,1.226-1.401,1.212-2.728
		c-1.8-2.146-0.345-2.938-0.302-6.06c-1.162-1.854-5.03-2.327-3.939-5.456c1.084-0.989,2.9,0.637,3.939-0.303
		c-0.695-4.019-0.076-9.01,0-13.334c-3.191-4.131-6.805-0.139-10.911-0.304c-0.979-0.039-2.055-0.994-3.029-1.212
		c-4.224-0.941-8.447,0.594-13.335,0.606c-2.902,0.008-6.085-1.236-9.092-1.213c-1.354,0.01-2.686,0.205-3.976,0.47
		c-1.292-0.265-2.622-0.459-3.976-0.47c-3.008-0.022-6.19,1.221-9.091,1.213c-4.889-0.012-9.112-1.547-13.336-0.606
		c-0.975,0.218-2.05,1.173-3.029,1.212c-4.107,0.165-7.721-3.827-10.912,0.304c0.077,4.324,0.695,9.315,0,13.334
		c1.039,0.94,2.855-0.686,3.94,0.303c1.09,3.129-2.778,3.601-3.94,5.456c0.043,3.122,1.499,3.914-0.301,6.06
		c-0.015,1.327,0.756,1.87,1.211,2.728c-2.47,1.874-0.275,5.19-0.303,8.182c-0.01,1.012-0.781,2.043-0.908,3.031
		c-0.508,3.894,0.744,6.663,2.725,8.788C17.059,52.556,15.639,52.549,15.668,53.993z M18.093,52.781
		c1.076,0.035,2.442-0.22,2.424,0.91v0.605c-0.013,0.007-0.025,0.015-0.038,0.023c0.013,0.008,0.025,0.015,0.038,0.023v0.604
		c0.018,1.129-1.349,0.875-2.424,0.911c-0.433-0.543-0.516-1.012-0.377-1.538C17.577,53.791,17.66,53.323,18.093,52.781z
		 M18.395,44.598C24.378,43.284,19.419,52.004,18.395,44.598L18.395,44.598z M18.395,41.265c1.588-1.044,2.126,1.206,4.244,0.606
		c-0.296,0.713-0.099,1.922-1.213,1.818C20.297,42.999,18.338,43.14,18.395,41.265z M22.639,50.962
		c1.345-18.485,15.523-33.874,32.463-33.762c16.939-0.112,31.117,15.276,32.463,33.762c0.084,1.145,0.131,2.263,0.146,3.356
		c-0.016,1.092-0.062,2.209-0.146,3.354c-1.347,18.485-15.524,33.875-32.463,33.763c-16.94,0.112-31.118-15.277-32.463-33.763
		c-0.084-1.146-0.132-2.263-0.146-3.354C22.507,53.225,22.554,52.107,22.639,50.962z M29.307,28.839h-0.91
		c-0.845-6.63-3.1-11.852-8.486-13.94c0.82-1.606,1.172-3.679,2.123-5.153C26.171,14.396,28.421,20.935,29.307,28.839z
		 M27.184,16.111c1.12,3.327,3.549,6.956,2.728,11.213C29.461,23.328,27.682,19.049,27.184,16.111z M27.184,30.354
		c-0.781-2.856-2.205-5.068-2.424-8.484C26.516,23.369,27.884,28.409,27.184,30.354z M20.517,16.716
		c3.373,0.75,2.347,4.662,3.03,7.576c0.668,2.848,2.982,5.744,3.031,8.486c-0.387,0.017-0.42,0.388-0.908,0.302
		C24.644,27.13,19.813,23.39,20.517,16.716z M33.548,23.688v-3.032C35.568,20.247,34.84,23.827,33.548,23.688z M36.579,13.686
		c1.164-0.959,2.495-1.748,4.243-2.122c0.552,4.441-1.4,8.867-4.849,10.306C36.752,19.188,36.693,16.703,36.579,13.686z
		 M55.102,10.782c4.645-1.379,8.853-3.116,11.855-4.671c-2.231,2.108-6.659,4.53-11.855,6.427
		c-5.196-1.897-9.624-4.319-11.856-6.427C46.248,7.666,50.457,9.403,55.102,10.782z M45.064,5.807
		c3.185,0.393,6.627,1.335,10.038,2.054C58.513,7.142,61.953,6.2,65.14,5.807c-2.188,1.147-5.841,2.783-10.038,4.028
		C50.904,8.59,47.252,6.955,45.064,5.807z M74.23,21.87c-3.448-1.439-5.401-5.864-4.849-10.306c1.75,0.375,3.08,1.163,4.242,2.122
		C73.509,16.703,73.452,19.188,74.23,21.87z M70.291,19.443c-2.018-0.999-2.83-4.526-2.121-7.272
		C68.916,14.556,69.404,17.199,70.291,19.443z M68.473,10.049c0.035-1.077,1.003-1.221,2.121-1.214
		c0.305,0.405,0.5,0.916,0.91,1.214C70.75,10.977,69.665,9.686,68.473,10.049z M62.108,16.413c-1.594,0.08-2.824-0.208-3.94-0.605
		c1.197-5.091,6.308-7.803,10.608-8.789C65.81,9.404,62.189,11.143,62.108,16.413z M67.868,18.232
		c-4.523,0.403-4.693-6.411-0.304-6.365C66.614,13.909,67.922,16.097,67.868,18.232z M56.35,15.807
		c-0.338,0.136-0.762,0.107-1.248,0.102c-0.486,0.005-0.911,0.034-1.249-0.102c-0.432-0.372-0.688-1.156-0.302-1.516
		c0.462,0.289,1.024,0.479,1.551,0.704c0.527-0.225,1.087-0.415,1.551-0.704C57.039,14.651,56.781,15.436,56.35,15.807z
		 M52.035,15.807c-1.116,0.398-2.346,0.686-3.939,0.605c-0.083-5.27-3.7-7.009-6.668-9.394
		C45.728,8.004,50.839,10.716,52.035,15.807z M42.64,11.867c4.388-0.046,4.22,6.768-0.303,6.365
		C42.283,16.097,43.591,13.909,42.64,11.867z M39.913,19.443c0.888-2.244,1.375-4.887,2.123-7.272
		C42.742,14.917,41.931,18.444,39.913,19.443z M41.731,10.049c-1.191-0.364-2.278,0.928-3.031,0
		c0.409-0.298,0.605-0.809,0.909-1.214C40.729,8.828,41.697,8.973,41.731,10.049z M76.656,20.656v3.032
		C75.363,23.827,74.636,20.247,76.656,20.656z M86.657,24.292c0.682-2.915-0.344-6.826,3.03-7.576
		c0.703,6.674-4.127,10.414-5.153,16.364c-0.489,0.085-0.521-0.285-0.907-0.302C83.676,30.036,85.99,27.141,86.657,24.292z
		 M83.021,30.354c-0.7-1.944,0.668-6.984,2.425-8.484C85.224,25.285,83.801,27.498,83.021,30.354z M81.809,28.839h-0.911
		c0.886-7.904,3.135-14.444,7.273-19.093c0.95,1.475,1.303,3.547,2.123,5.153C84.907,16.987,82.652,22.209,81.809,28.839z
		 M80.293,27.324c-0.821-4.257,1.608-7.887,2.728-11.213C82.521,19.049,80.743,23.328,80.293,27.324z M91.81,64.038
		C85.826,65.353,90.785,56.631,91.81,64.038L91.81,64.038z M91.81,67.371c-1.588,1.046-2.128-1.207-4.244-0.605
		c0.296-0.715,0.098-1.92,1.212-1.818C89.907,65.636,91.865,65.495,91.81,67.371z M88.777,43.689
		c-1.114,0.104-0.916-1.105-1.212-1.818c2.116,0.6,2.656-1.65,4.244-0.606C91.865,43.14,89.907,42.999,88.777,43.689z M91.81,44.598
		C90.785,52.004,85.826,43.284,91.81,44.598L91.81,44.598z M80.897,79.797h0.911c0.844,6.631,3.099,11.852,8.485,13.941
		c-0.82,1.606-1.173,3.677-2.123,5.152C84.032,94.24,81.783,87.701,80.897,79.797z M83.021,92.525
		c-1.119-3.328-3.549-6.957-2.728-11.212C80.743,85.308,82.521,89.587,83.021,92.525z M83.021,78.282
		c0.78,2.856,2.203,5.069,2.425,8.484C83.688,85.266,82.32,80.228,83.021,78.282z M89.688,91.92c-3.374-0.75-2.349-4.662-3.03-7.578
		c-0.667-2.846-2.981-5.743-3.03-8.483c0.386-0.019,0.418-0.389,0.907-0.304C85.561,81.505,90.391,85.246,89.688,91.92z
		 M76.656,84.948v3.032C74.636,88.388,75.363,84.81,76.656,84.948z M73.624,94.95c-1.162,0.957-2.492,1.748-4.242,2.122
		c-0.553-4.442,1.4-8.866,4.849-10.306C73.452,89.449,73.509,91.933,73.624,94.95z M55.102,97.854
		c-4.645,1.379-8.854,3.116-11.856,4.672c2.232-2.109,6.66-4.531,11.856-6.43c5.196,1.898,9.624,4.32,11.855,6.43
		C63.955,100.971,59.747,99.233,55.102,97.854z M65.14,102.829c-3.187-0.394-6.627-1.335-10.038-2.054
		c-3.411,0.719-6.853,1.66-10.038,2.054c2.188-1.148,5.84-2.785,10.038-4.03C59.299,100.044,62.952,101.681,65.14,102.829z
		 M35.973,86.767c3.448,1.439,5.4,5.863,4.849,10.306c-1.748-0.374-3.08-1.165-4.243-2.122
		C36.693,91.933,36.752,89.449,35.973,86.767z M39.913,89.193c2.018,0.999,2.83,4.526,2.123,7.271
		C41.287,94.081,40.8,91.436,39.913,89.193z M41.731,98.588c-0.035,1.076-1.002,1.219-2.122,1.211
		c-0.304-0.402-0.5-0.915-0.909-1.211C39.453,97.658,40.54,98.95,41.731,98.588z M48.096,92.223
		c1.594-0.079,2.823,0.207,3.939,0.605c-1.196,5.094-6.307,7.803-10.608,8.79C44.396,99.231,48.012,97.492,48.096,92.223z
		 M42.337,90.403c4.523-0.403,4.691,6.413,0.303,6.365C43.591,94.726,42.283,92.539,42.337,90.403z M53.853,92.828
		c0.338-0.137,0.763-0.104,1.249-0.101c0.485-0.004,0.91-0.036,1.248,0.101c0.432,0.372,0.689,1.157,0.304,1.517
		c-0.464-0.29-1.024-0.48-1.551-0.705c-0.527,0.225-1.088,0.415-1.551,0.705C53.166,93.985,53.421,93.2,53.853,92.828z
		 M58.168,92.828c1.116-0.398,2.347-0.685,3.94-0.605c0.081,5.27,3.701,7.009,6.668,9.396
		C64.476,100.631,59.365,97.922,58.168,92.828z M67.564,96.769c-4.39,0.048-4.22-6.769,0.304-6.365
		C67.922,92.539,66.614,94.726,67.564,96.769z M70.291,89.193c-0.887,2.242-1.375,4.888-2.121,7.271
		C67.461,93.72,68.273,90.192,70.291,89.193z M68.473,98.588c1.192,0.362,2.277-0.93,3.031,0c-0.41,0.296-0.605,0.809-0.91,1.211
		C69.476,99.807,68.508,99.664,68.473,98.588z M33.548,87.98v-3.032C34.84,84.81,35.568,88.388,33.548,87.98z M23.547,84.342
		c-0.683,2.916,0.343,6.828-3.03,7.578c-0.704-6.674,4.126-10.415,5.153-16.365c0.488-0.085,0.521,0.285,0.908,0.304
		C26.529,78.599,24.215,81.496,23.547,84.342z M27.184,78.282c0.7,1.945-0.668,6.983-2.424,8.484
		C24.979,83.352,26.403,81.139,27.184,78.282z M28.396,79.797h0.91c-0.886,7.904-3.135,14.443-7.273,19.094
		c-0.95-1.476-1.303-3.546-2.123-5.152C25.296,91.648,27.551,86.428,28.396,79.797z M29.912,81.313
		c0.821,4.255-1.608,7.884-2.728,11.212C27.682,89.587,29.461,85.308,29.912,81.313z M21.426,64.947
		c1.114-0.102,0.917,1.104,1.213,1.818c-2.117-0.602-2.656,1.651-4.244,0.605C18.338,65.495,20.297,65.636,21.426,64.947z
		 M18.395,64.038C19.419,56.631,24.378,65.353,18.395,64.038L18.395,64.038z M20.821,57.37c-1.14,2.393-4.345,4.637-3.639,8.486
		c0.301,1.633,1.228,2.61,3.031,3.334c1.439,0.349,2.48-0.703,3.333,0c-1.087,2.717-5.629,1.461-6.666,0.304
		C13.56,65.786,17.03,57.198,20.821,57.37z M19.607,74.645c-1.153-1.609,0.545-3.31,2.123-2.12
		C21.972,74.18,21.264,74.888,19.607,74.645z M21.729,76.159c-2.409,5.052-7.992-1.816-5.153-5.756
		C18.92,71.695,16.79,77.463,21.729,76.159z M18.093,80.404c-0.245,0.259-0.83,0.18-0.911,0.605
		C13.538,80.521,18.182,76.374,18.093,80.404z M15.971,85.556c3.153-4.021,7.118-7.228,7.88-13.637
		c3.946,5.155-3.393,10.521-3.94,16.062C18.889,88.004,16.972,86.539,15.971,85.556z M20.821,100.405
		c-1.34-0.777-2.709-0.409-4.245,0c0.344-1.858-0.563-5.863-0.606-7.274C19.536,93.608,20.396,96.789,20.821,100.405z
		 M16.577,101.314c1,1.123,1.008,3.235,3.637,2.728C18.996,107.785,13.401,103.808,16.577,101.314z M18.093,102.829v-1.211
		c0.491-0.456,2.236-0.456,2.729,0C21.14,103.729,19.118,103.544,18.093,102.829z M26.274,102.829
		c-1.782,0.845-2.833,2.42-5.152,2.729c0.4-1.62,1.137-2.904,0.911-5.152c4.482-4.407,8.088-9.69,8.788-17.881
		c0.489-0.085,0.522,0.286,0.909,0.305c0.978,7.451-1.852,13.699-4.243,18.789c2.14,3.886,9.758,0.444,12.123,3.939
		C35.118,105.708,27.297,107.102,26.274,102.829z M32.335,101.921c-0.776-0.438-2.136-0.286-2.727-0.91
		c-0.105-1.415,0.654-1.972,0.909-3.031C31.267,99.025,32.488,100.957,32.335,101.921z M55.102,105.803
		c-0.633,0.127-1.256,0.244-1.855,0.36c0.062-0.799,0.902-1.103,1.855-1.314c0.954,0.212,1.793,0.516,1.854,1.314
		C56.356,106.047,55.735,105.93,55.102,105.803z M55.102,104.464c-8.888,2.517-21.625-0.171-22.767-8.301
		c-0.396-2.837,0.343-5.842,2.123-6.667h0.605c0.551,1.271,0.399,4.154,0,5.454c0.734,1.487,1.958,2.486,2.424,4.242
		c2.614,3.685,7.283,5.122,13.032,4.548c1.616-0.164,3.122-0.673,4.582-1.228c1.458,0.555,2.965,1.063,4.582,1.228
		c5.749,0.574,10.418-0.863,13.032-4.548c0.467-1.756,1.688-2.755,2.424-4.242c-0.397-1.3-0.551-4.183,0-5.454h0.606
		c1.779,0.825,2.52,3.83,2.122,6.667C76.729,104.293,63.99,106.98,55.102,104.464z M79.686,97.979
		c0.256,1.06,1.014,1.616,0.908,3.031c-0.589,0.624-1.95,0.473-2.726,0.91C77.715,100.957,78.938,99.025,79.686,97.979z
		 M83.93,102.829c-1.023,4.272-8.844,2.879-13.336,2.729c2.365-3.495,9.983-0.054,12.123-3.939
		c-2.393-5.09-5.222-11.338-4.243-18.789c0.387-0.019,0.418-0.39,0.908-0.305c0.701,8.19,4.307,13.474,8.789,17.881
		c-0.226,2.248,0.51,3.532,0.911,5.152C86.763,105.249,85.711,103.674,83.93,102.829z M89.383,101.618
		c0.493-0.456,2.237-0.456,2.728,0v1.211C91.088,103.544,89.063,103.729,89.383,101.618z M89.991,104.042
		c2.627,0.508,2.636-1.604,3.635-2.728C96.803,103.808,91.209,107.785,89.991,104.042z M94.234,93.131
		c-0.044,1.411-0.952,5.416-0.608,7.274c-1.535-0.409-2.904-0.777-4.243,0C89.807,96.789,90.667,93.608,94.234,93.131z
		 M90.294,87.98c-0.547-5.54-7.887-10.906-3.941-16.062c0.762,6.409,4.728,9.616,7.882,13.637
		C93.232,86.539,91.316,88.004,90.294,87.98z M90.597,74.645c-1.656,0.243-2.363-0.465-2.122-2.12
		C90.052,71.335,91.751,73.035,90.597,74.645z M93.626,70.403c2.84,3.939-2.742,10.808-5.151,5.756
		C93.414,77.463,91.284,71.695,93.626,70.403z M93.021,81.01c-0.08-0.426-0.664-0.347-0.91-0.605
		C92.022,76.374,96.667,80.521,93.021,81.01z M93.323,69.494c-1.037,1.157-5.579,2.413-6.666-0.304c0.854-0.703,1.893,0.349,3.334,0
		c1.803-0.724,2.729-1.701,3.029-3.334c0.71-3.85-2.497-6.094-3.638-8.486C93.174,57.198,96.646,65.786,93.323,69.494z
		 M92.11,55.856c-1.075-0.036-2.439,0.218-2.423-0.911v-0.604c0.012-0.008,0.024-0.015,0.038-0.023
		c-0.014-0.008-0.026-0.016-0.038-0.023V53.69c-0.017-1.129,1.348-0.875,2.423-0.91c0.435,0.542,0.517,1.01,0.379,1.538
		C92.627,54.844,92.545,55.312,92.11,55.856z M89.383,51.264c1.141-2.39,4.348-4.635,3.638-8.484c-0.3-1.634-1.227-2.61-3.029-3.334
		c-1.441-0.349-2.48,0.704-3.334,0c1.087-2.716,5.629-1.46,6.666-0.303C96.646,42.849,93.174,51.439,89.383,51.264z M90.597,33.989
		c1.154,1.611-0.545,3.311-2.122,2.124C88.233,34.457,88.94,33.749,90.597,33.989z M88.475,32.476
		c2.409-5.05,7.991,1.818,5.151,5.757C91.284,36.941,93.414,31.172,88.475,32.476z M92.11,28.232c0.246-0.26,0.83-0.18,0.91-0.606
		C96.667,28.113,92.022,32.264,92.11,28.232z M94.234,23.08c-3.154,4.021-7.12,7.228-7.882,13.638
		c-3.945-5.156,3.395-10.523,3.941-16.062C91.316,20.631,93.232,22.098,94.234,23.08z M89.383,8.231
		c1.339,0.778,2.708,0.408,4.243,0c-0.344,1.857,0.564,5.863,0.608,7.272C90.667,15.028,89.807,11.847,89.383,8.231z M93.626,7.322
		c-0.999-1.122-1.008-3.236-3.635-2.729C91.209,0.85,96.803,4.828,93.626,7.322z M92.11,5.807v1.211
		c-0.49,0.455-2.234,0.455-2.728,0C89.063,4.907,91.088,5.091,92.11,5.807z M83.93,5.807c1.781-0.846,2.833-2.42,5.152-2.729
		c-0.401,1.619-1.137,2.904-0.911,5.153c-4.482,4.406-8.088,9.691-8.789,17.88c-0.49,0.084-0.521-0.288-0.908-0.303
		c-0.979-7.452,1.851-13.701,4.243-18.79c-2.14-3.886-9.758-0.445-12.123-3.94C75.086,2.929,82.906,1.533,83.93,5.807z
		 M77.868,6.715c0.775,0.437,2.137,0.287,2.726,0.91c0.105,1.416-0.652,1.972-0.908,3.03C78.938,9.61,77.715,7.68,77.868,6.715z
		 M55.102,2.833c0.633-0.125,1.254-0.244,1.854-0.36c-0.061,0.799-0.9,1.104-1.854,1.315c-0.953-0.212-1.793-0.517-1.855-1.315
		C53.846,2.589,54.469,2.708,55.102,2.833z M55.102,4.173c8.888-2.517,21.626,0.169,22.766,8.299
		c0.397,2.837-0.343,5.842-2.122,6.668H75.14c-0.551-1.272-0.397-4.155,0-5.455c-0.735-1.489-1.957-2.487-2.424-4.243
		c-2.614-3.687-7.283-5.123-13.032-4.547c-1.616,0.163-3.123,0.672-4.582,1.228c-1.459-0.555-2.965-1.065-4.582-1.228
		c-5.749-0.575-10.418,0.861-13.032,4.547c-0.466,1.756-1.69,2.754-2.424,4.243c0.399,1.3,0.551,4.182,0,5.455h-0.605
		c-1.78-0.826-2.52-3.831-2.123-6.668C33.477,4.342,46.214,1.656,55.102,4.173z M30.518,10.655c-0.255-1.058-1.015-1.614-0.909-3.03
		c0.59-0.623,1.951-0.473,2.727-0.91C32.488,7.68,31.267,9.61,30.518,10.655z M26.274,5.807c1.023-4.274,8.844-2.878,13.335-2.729
		c-2.365,3.495-9.982,0.054-12.123,3.94c2.392,5.089,5.221,11.338,4.243,18.79c-0.387,0.016-0.42,0.388-0.909,0.303
		c-0.7-8.189-4.306-13.475-8.788-17.88c0.226-2.249-0.51-3.534-0.911-5.153C23.441,3.387,24.492,4.961,26.274,5.807z M20.821,7.019
		c-0.492,0.455-2.237,0.455-2.729,0V5.807C19.118,5.091,21.14,4.907,20.821,7.019z M20.213,4.594
		c-2.629-0.507-2.636,1.606-3.637,2.729C13.401,4.828,18.996,0.85,20.213,4.594z M15.971,15.504c0.043-1.41,0.95-5.415,0.606-7.272
		c1.536,0.408,2.905,0.778,4.245,0C20.396,11.847,19.536,15.028,15.971,15.504z M19.911,20.656c0.547,5.54,7.886,10.906,3.94,16.062
		c-0.762-6.411-4.728-9.617-7.88-13.638C16.972,22.098,18.889,20.631,19.911,20.656z M19.607,33.989
		c1.657-0.241,2.365,0.467,2.123,2.124C20.152,37.3,18.454,35.6,19.607,33.989z M16.577,38.233
		c-2.839-3.939,2.744-10.808,5.153-5.757C16.79,31.172,18.92,36.941,16.577,38.233z M17.182,27.626
		c0.081,0.426,0.666,0.346,0.911,0.606C18.182,32.264,13.538,28.113,17.182,27.626z M16.881,39.142
		c1.037-1.157,5.579-2.413,6.666,0.303c-0.854,0.704-1.894-0.349-3.333,0c-1.804,0.724-2.73,1.701-3.031,3.334
		c-0.706,3.849,2.5,6.094,3.639,8.484C17.03,51.439,13.56,42.849,16.881,39.142z"/>
</g>
<g>
	<defs>
		<rect id="SVGID_5_" x="96.683" y="31.704" width="22.812" height="45.416"/>
	</defs>
	<clipPath id="SVGID_6_">
		<use xlink:href="#SVGID_5_"  overflow="visible"/>
	</clipPath>
	<path clip-path="url(#SVGID_6_)" fill="#231F20" d="M110.085,49.163L61.162,0.24l-6.056,6.055L49.05,0.24L1.251,48.039l6.056,6.056
		L1.251,60.15l48.923,48.924l6.056-6.057l6.057,6.057l47.799-47.8l-6.058-6.056L110.085,49.163z M107.317,61.274L87.25,81.342
		l-5.107,5.106l-19.856,19.858l-6.057-6.058l-6.056,6.058l-21.498-21.5l-1.904-1.902L4.019,60.15l6.057-6.055L4.019,48.04
		l19.858-19.857l5.106-5.108L49.05,3.008l6.056,6.056l6.055-6.056l22.754,22.754l1.902,1.903l21.5,21.498l-6.058,6.056
		L107.317,61.274z"/>
	<path clip-path="url(#SVGID_6_)" fill="#231F20" d="M107.317,49.163l-21.5-21.498l-1.902-1.903L61.161,3.008l-6.055,6.056
		L49.05,3.008L28.983,23.075l-5.106,5.108L4.019,48.04l6.057,6.055L4.019,60.15l22.753,22.754l1.904,1.902l21.498,21.5l6.056-6.058
		l6.057,6.058l19.856-19.858l5.107-5.106l20.067-20.067l-6.058-6.056L107.317,49.163z M104.548,61.274l-42.262,42.263l-6.057-6.056
		l-6.056,6.056L6.787,60.15l6.057-6.055l-6.057-6.056L49.05,5.776l6.056,6.056l6.056-6.056l43.386,43.387l-6.056,6.056
		L104.548,61.274z"/>
	<polygon clip-path="url(#SVGID_6_)" fill="#FFFFFF" points="96.289,50.091 60.234,14.037 55.201,19.069 50.169,14.037 
		15.048,49.158 20.081,54.189 15.048,59.223 51.102,95.277 56.134,90.245 61.166,95.277 96.289,60.155 91.257,55.124 	"/>
	<path clip-path="url(#SVGID_6_)" fill="#231F20" d="M100.888,50.091L60.234,9.436l-5.033,5.032l-5.032-5.032L10.447,49.158
		l5.032,5.031l-5.032,5.033l40.654,40.654l5.032-5.032l5.032,5.032l39.722-39.722l-5.032-5.032L100.888,50.091z M98.589,60.155
		L81.913,76.832l-4.244,4.242L61.166,97.578l-5.032-5.033l-5.032,5.033L33.237,79.712l-1.583-1.581L12.747,59.223l5.033-5.032
		l-5.033-5.033l16.501-16.502l4.245-4.245l16.676-16.675l5.032,5.033l5.033-5.033l18.907,18.908l1.581,1.583l17.866,17.865
		l-5.032,5.032L98.589,60.155z"/>
	<path clip-path="url(#SVGID_6_)" fill="#231F20" d="M98.589,50.091L80.723,32.227l-1.581-1.583L60.234,11.736l-5.033,5.033
		l-5.032-5.033L33.493,28.412l-4.245,4.245L12.747,49.158l5.033,5.033l-5.033,5.032l18.908,18.908l1.583,1.581l17.864,17.866
		l5.032-5.033l5.032,5.033l16.503-16.504l4.244-4.242l16.676-16.677l-5.032-5.032L98.589,50.091z M96.289,60.155L61.166,95.277
		l-5.032-5.032l-5.032,5.032L15.048,59.223l5.032-5.033l-5.032-5.031l35.121-35.121l5.032,5.032l5.033-5.032l36.055,36.054
		l-5.032,5.032L96.289,60.155z"/>
</g>
<g>
	<defs>
		<rect id="SVGID_7_" x="29.285" y="-5.625" width="48.111" height="20.531"/>
	</defs>
	<clipPath id="SVGID_8_">
		<use xlink:href="#SVGID_7_"  overflow="visible"/>
	</clipPath>
	<path clip-path="url(#SVGID_8_)" fill="#231F20" d="M110.085,49.163L61.162,0.24l-6.056,6.055L49.05,0.24L1.251,48.039l6.056,6.056
		L1.251,60.15l48.923,48.924l6.056-6.057l6.057,6.057l47.799-47.8l-6.058-6.056L110.085,49.163z M107.317,61.274L87.25,81.342
		l-5.107,5.106l-19.856,19.858l-6.057-6.058l-6.056,6.058l-21.498-21.5l-1.904-1.902L4.019,60.15l6.057-6.055L4.019,48.04
		l19.858-19.857l5.106-5.108L49.05,3.008l6.056,6.056l6.055-6.056l22.754,22.754l1.902,1.903l21.5,21.498l-6.058,6.056
		L107.317,61.274z"/>
	<path clip-path="url(#SVGID_8_)" fill="#231F20" d="M107.317,49.163l-21.5-21.498l-1.902-1.903L61.161,3.008l-6.055,6.056
		L49.05,3.008L28.983,23.075l-5.106,5.108L4.019,48.04l6.057,6.055L4.019,60.15l22.753,22.754l1.904,1.902l21.498,21.5l6.056-6.058
		l6.057,6.058l19.856-19.858l5.107-5.106l20.067-20.067l-6.058-6.056L107.317,49.163z M104.548,61.274l-42.262,42.263l-6.057-6.056
		l-6.056,6.056L6.787,60.15l6.057-6.055l-6.057-6.056L49.05,5.776l6.056,6.056l6.056-6.056l43.386,43.387l-6.056,6.056
		L104.548,61.274z"/>
	<polygon clip-path="url(#SVGID_8_)" fill="#FFFFFF" points="96.289,50.091 60.234,14.037 55.201,19.069 50.169,14.037 
		15.048,49.158 20.081,54.189 15.048,59.223 51.102,95.277 56.134,90.245 61.166,95.277 96.289,60.155 91.257,55.124 	"/>
	<path clip-path="url(#SVGID_8_)" fill="#231F20" d="M100.888,50.091L60.234,9.436l-5.033,5.032l-5.032-5.032L10.447,49.158
		l5.032,5.031l-5.032,5.033l40.654,40.654l5.032-5.032l5.032,5.032l39.722-39.722l-5.032-5.032L100.888,50.091z M98.589,60.155
		L81.913,76.832l-4.244,4.242L61.166,97.578l-5.032-5.033l-5.032,5.033L33.237,79.712l-1.583-1.581L12.747,59.223l5.033-5.032
		l-5.033-5.033l16.501-16.502l4.245-4.245l16.676-16.675l5.032,5.033l5.033-5.033l18.907,18.908l1.581,1.583l17.866,17.865
		l-5.032,5.032L98.589,60.155z"/>
	<path clip-path="url(#SVGID_8_)" fill="#231F20" d="M98.589,50.091L80.723,32.227l-1.581-1.583L60.234,11.736l-5.033,5.033
		l-5.032-5.033L33.493,28.412l-4.245,4.245L12.747,49.158l5.033,5.033l-5.033,5.032l18.908,18.908l1.583,1.581l17.864,17.866
		l5.032-5.033l5.032,5.033l16.503-16.504l4.244-4.242l16.676-16.677l-5.032-5.032L98.589,50.091z M96.289,60.155L61.166,95.277
		l-5.032-5.032l-5.032,5.032L15.048,59.223l5.032-5.033l-5.032-5.031l35.121-35.121l5.032,5.032l5.033-5.032l36.055,36.054
		l-5.032,5.032L96.289,60.155z"/>
</g>
<g>
	<defs>
		<rect id="SVGID_9_" x="-9.494" y="28.801" width="24.471" height="47.073"/>
	</defs>
	<clipPath id="SVGID_10_">
		<use xlink:href="#SVGID_9_"  overflow="visible"/>
	</clipPath>
	<path clip-path="url(#SVGID_10_)" fill="#231F20" d="M110.085,49.163L61.162,0.24l-6.056,6.055L49.05,0.24L1.251,48.039
		l6.056,6.056L1.251,60.15l48.923,48.924l6.056-6.057l6.057,6.057l47.799-47.8l-6.058-6.056L110.085,49.163z M107.317,61.274
		L87.25,81.342l-5.107,5.106l-19.856,19.858l-6.057-6.058l-6.056,6.058l-21.498-21.5l-1.904-1.902L4.019,60.15l6.057-6.055
		L4.019,48.04l19.858-19.857l5.106-5.108L49.05,3.008l6.056,6.056l6.055-6.056l22.754,22.754l1.902,1.903l21.5,21.498l-6.058,6.056
		L107.317,61.274z"/>
	<path clip-path="url(#SVGID_10_)" fill="#231F20" d="M107.317,49.163l-21.5-21.498l-1.902-1.903L61.161,3.008l-6.055,6.056
		L49.05,3.008L28.983,23.075l-5.106,5.108L4.019,48.04l6.057,6.055L4.019,60.15l22.753,22.754l1.904,1.902l21.498,21.5l6.056-6.058
		l6.057,6.058l19.856-19.858l5.107-5.106l20.067-20.067l-6.058-6.056L107.317,49.163z M104.548,61.274l-42.262,42.263l-6.057-6.056
		l-6.056,6.056L6.787,60.15l6.057-6.055l-6.057-6.056L49.05,5.776l6.056,6.056l6.056-6.056l43.386,43.387l-6.056,6.056
		L104.548,61.274z"/>
	<polygon clip-path="url(#SVGID_10_)" fill="#FFFFFF" points="96.289,50.091 60.234,14.037 55.201,19.069 50.169,14.037 
		15.048,49.158 20.081,54.189 15.048,59.223 51.102,95.277 56.134,90.245 61.166,95.277 96.289,60.155 91.257,55.124 	"/>
	<path clip-path="url(#SVGID_10_)" fill="#231F20" d="M100.888,50.091L60.234,9.436l-5.033,5.032l-5.032-5.032L10.447,49.158
		l5.032,5.031l-5.032,5.033l40.654,40.654l5.032-5.032l5.032,5.032l39.722-39.722l-5.032-5.032L100.888,50.091z M98.589,60.155
		L81.913,76.832l-4.244,4.242L61.166,97.578l-5.032-5.033l-5.032,5.033L33.237,79.712l-1.583-1.581L12.747,59.223l5.033-5.032
		l-5.033-5.033l16.501-16.502l4.245-4.245l16.676-16.675l5.032,5.033l5.033-5.033l18.907,18.908l1.581,1.583l17.866,17.865
		l-5.032,5.032L98.589,60.155z"/>
	<path clip-path="url(#SVGID_10_)" fill="#231F20" d="M98.589,50.091L80.723,32.227l-1.581-1.583L60.234,11.736l-5.033,5.033
		l-5.032-5.033L33.493,28.412l-4.245,4.245L12.747,49.158l5.033,5.033l-5.033,5.032l18.908,18.908l1.583,1.581l17.864,17.866
		l5.032-5.033l5.032,5.033l16.503-16.504l4.244-4.242l16.676-16.677l-5.032-5.032L98.589,50.091z M96.289,60.155L61.166,95.277
		l-5.032-5.032l-5.032,5.032L15.048,59.223l5.032-5.033l-5.032-5.031l35.121-35.121l5.032,5.032l5.033-5.032l36.055,36.054
		l-5.032,5.032L96.289,60.155z"/>
</g>
<g>
	<defs>
		<rect id="SVGID_11_" x="34.744" y="93.645" width="40.787" height="24.744"/>
	</defs>
	<clipPath id="SVGID_12_">
		<use xlink:href="#SVGID_11_"  overflow="visible"/>
	</clipPath>
	<path clip-path="url(#SVGID_12_)" fill="#231F20" d="M110.085,49.163L61.162,0.24l-6.056,6.055L49.05,0.24L1.251,48.039
		l6.056,6.056L1.251,60.15l48.923,48.924l6.056-6.057l6.057,6.057l47.799-47.8l-6.058-6.056L110.085,49.163z M107.317,61.274
		L87.25,81.342l-5.107,5.106l-19.856,19.858l-6.057-6.058l-6.056,6.058l-21.498-21.5l-1.904-1.902L4.019,60.15l6.057-6.055
		L4.019,48.04l19.858-19.857l5.106-5.108L49.05,3.008l6.056,6.056l6.055-6.056l22.754,22.754l1.902,1.903l21.5,21.498l-6.058,6.056
		L107.317,61.274z"/>
	<path clip-path="url(#SVGID_12_)" fill="#231F20" d="M107.317,49.163l-21.5-21.498l-1.902-1.903L61.161,3.008l-6.055,6.056
		L49.05,3.008L28.983,23.075l-5.106,5.108L4.019,48.04l6.057,6.055L4.019,60.15l22.753,22.754l1.904,1.902l21.498,21.5l6.056-6.058
		l6.057,6.058l19.856-19.858l5.107-5.106l20.067-20.067l-6.058-6.056L107.317,49.163z M104.548,61.274l-42.262,42.263l-6.057-6.056
		l-6.056,6.056L6.787,60.15l6.057-6.055l-6.057-6.056L49.05,5.776l6.056,6.056l6.056-6.056l43.386,43.387l-6.056,6.056
		L104.548,61.274z"/>
	<polygon clip-path="url(#SVGID_12_)" fill="#FFFFFF" points="96.289,50.091 60.234,14.037 55.201,19.069 50.169,14.037 
		15.048,49.158 20.081,54.189 15.048,59.223 51.102,95.277 56.134,90.245 61.166,95.277 96.289,60.155 91.257,55.124 	"/>
	<path clip-path="url(#SVGID_12_)" fill="#231F20" d="M100.888,50.091L60.234,9.436l-5.033,5.032l-5.032-5.032L10.447,49.158
		l5.032,5.031l-5.032,5.033l40.654,40.654l5.032-5.032l5.032,5.032l39.722-39.722l-5.032-5.032L100.888,50.091z M98.589,60.155
		L81.913,76.832l-4.244,4.242L61.166,97.578l-5.032-5.033l-5.032,5.033L33.237,79.712l-1.583-1.581L12.747,59.223l5.033-5.032
		l-5.033-5.033l16.501-16.502l4.245-4.245l16.676-16.675l5.032,5.033l5.033-5.033l18.907,18.908l1.581,1.583l17.866,17.865
		l-5.032,5.032L98.589,60.155z"/>
	<path clip-path="url(#SVGID_12_)" fill="#231F20" d="M98.589,50.091L80.723,32.227l-1.581-1.583L60.234,11.736l-5.033,5.033
		l-5.032-5.033L33.493,28.412l-4.245,4.245L12.747,49.158l5.033,5.033l-5.033,5.032l18.908,18.908l1.583,1.581l17.864,17.866
		l5.032-5.033l5.032,5.033l16.503-16.504l4.244-4.242l16.676-16.677l-5.032-5.032L98.589,50.091z M96.289,60.155L61.166,95.277
		l-5.032-5.032l-5.032,5.032L15.048,59.223l5.032-5.033l-5.032-5.031l35.121-35.121l5.032,5.032l5.033-5.032l36.055,36.054
		l-5.032,5.032L96.289,60.155z"/>
</g>
<path fill="#231F20" d="M90,22v-9H22v9h-9v66h9v9h68v-9h8V22H90z M95,83h-9v10H27V83H17V25h10v-9h59v9h9V83z"/>
<path fill="#231F20" d="M83,22H29v7h-7v52h7v7h54v-7h7V29h-7V22z M87,78h-7v7H32v-7h-7V32h7v-8h48v8h7V78z"/>
<path fill="#231F20" d="M59.207,34H42v43h12V66h5.207c4.479,0,8.342-1.705,11.484-4.847c3.143-3.141,4.736-7.061,4.736-11.541
	c0-4.404-1.594-7.982-4.736-11.125S63.686,34,59.207,34z M51,74h-2v2h-4V35h4v1h2V74z M66.797,57.029
	C64.718,59.111,62.234,60,59.207,60H54V39h5.207c3.026,0,5.51,0.977,7.589,3.055c2.081,2.08,3.092,4.468,3.092,7.459
	C69.888,52.543,68.877,54.95,66.797,57.029z"/>
<polygon fill="#231F20" points="49,35 45,35 45,76 49,76 49,74.119 49,36.533 "/>
<path fill="#231F20" d="M77,28H34v6h-6v42h6v6h43v-6h8V34h-8V28z M81,36v37h-6v6H37v-6h-6V36h6v-6h38v6H81z"/>
</svg>
