<?xml version="1.0" encoding="utf-8"?>
<!-- Generator: Adobe Illustrator 16.0.0, SVG Export Plug-In . SVG Version: 6.00 Build 0)  -->
<!DOCTYPE svg PUBLIC "-//W3C//DTD SVG 1.1//EN" "http://www.w3.org/Graphics/SVG/1.1/DTD/svg11.dtd">
<svg version="1.1" id="Layer_1" xmlns="http://www.w3.org/2000/svg" xmlns:xlink="http://www.w3.org/1999/xlink" x="0px" y="0px"
	 width="110px" height="110px" viewBox="0 0 110 110" enable-background="new 0 0 110 110" xml:space="preserve">
<path d="M59.819,2.568c-13.119,0-17.311,8.993-17.311,8.993V3.512V0L18.649,0.928v2.584h9.861v98.842h-0.001v2.198v0.018
	c-0.005,1.264-0.944,2.296-2.159,2.468l-0.512,0.021l-1.001,0.041l-8.257,0.32V110h11.929h0.001h2.067h9.861h2.07h11.927v-2.581
	l-8.256-0.32l-1.003-0.041l-0.51-0.021c-1.215-0.172-2.154-1.204-2.158-2.468v-0.018v-2.198V72.484
	c1.353,0.486,4.057,8.108,18.875,8.108c16.055,0,32.037-16.479,32.037-39.674C93.42,12.853,72.938,2.568,59.819,2.568
	 M58.275,77.743c-15.69,0-15.767-17.626-15.767-21.39V22.12c0,0,0.011-16.67,14.914-16.67c14.902,0,20.969,18.705,20.969,35.551
	C78.391,57.848,73.961,77.743,58.275,77.743"/>
</svg>
