<?xml version="1.0" encoding="utf-8"?>
<!-- Generator: Adobe Illustrator 16.0.0, SVG Export Plug-In . SVG Version: 6.00 Build 0)  -->
<!DOCTYPE svg PUBLIC "-//W3C//DTD SVG 1.1//EN" "http://www.w3.org/Graphics/SVG/1.1/DTD/svg11.dtd">
<svg version="1.1" id="Layer_1" xmlns="http://www.w3.org/2000/svg" xmlns:xlink="http://www.w3.org/1999/xlink" x="0px" y="0px"
	 width="110px" height="110px" viewBox="0 0 110 110" enable-background="new 0 0 110 110" xml:space="preserve">
<g>
	<path fill="#231F20" d="M94.865,3.408v103.184h-79.73V3.408H94.865 M98.273,0h-3.408h-79.73h-3.409v3.408v103.184V110h3.409h79.73
		h3.408v-3.408V3.408V0L98.273,0z"/>
	<path fill="none" d="M20.132,16.35c1.78,0.407,4.141-1.854,6.117-0.984c-0.349-2.111,1.036-5.739,0-8.152
		c-0.907-2.11-4.877-1.546-4.077,1.968c0.409,0.1,0.586,0.49,1.02,0.562c0.096-1.075,0.497-1.956,1.472-1.546
		c1.174,2.623-2.54,3.084-3.171,1.266c-0.356-2.042-1.33-3.317-3.284-3.374c-0.698,4.184,4.92,3.711,3.398,8.011
		c-0.862,0.455-2.195,1.004-2.266-0.703c0.13-0.788,1.332-0.465,1.698-0.562c-0.346-2.57-2.755-1.38-2.943,0.422
		C17.922,14.897,19.232,16.144,20.132,16.35z"/>
	<path fill="none" d="M54.559,5.947c-0.385,0.038-0.918-0.107-1.133,0.142c-0.322,0.565,0.173,1.345-0.114,1.827
		c-0.377-0.471-0.665-1.048-1.019-1.547c-2.382-0.978-4.249,0.049-5.888,0.985c-1.014,0.578-2.438,1.455-3.397,0.28
		c0.623-0.07,1.484,0.154,1.925-0.141c0-0.375,0-0.75,0-1.125c-1.307-1.078-3.808-0.473-3.171,1.97
		c0.663,0.769,1.599,1.199,3.057,0.982c0.619-0.356,0.941-1.081,1.699-1.265c-0.42,0.51-1.179,1.451-0.566,2.389
		c1.722,0.499,1.161-1.838,2.265-2.107c-0.19,0.232-0.089,0.823-0.112,1.265c0.533,0.613,2.113,0.867,2.15-0.562
		c0.071-0.743-0.644-0.513-0.565-1.266c0.368-1.48,2.232-0.855,2.151,0.704c-0.049,0.951-1.511,2.252-2.943,2.529
		c-2.091,0.404-3.728-0.184-5.324-0.281c-3.75-1.354-8.1-6.212-13.136-4.217c-2.771,1.098-3.732,5.316-3.511,9.558
		c-2.626-0.312-5.428-0.016-6.907,1.547c-1.492,1.575-2.663,7.279-1.474,9.559c-0.851,2.444,1.533,5.547,1.699,8.294
		c0.036,0.554,0.214,1.753-0.565,2.107c-0.014-0.639-0.272-0.974-0.566-1.265c-1.564,0.394-0.995,3.448,0.339,3.373
		c2.344-0.132,1.75-7.59,0.227-9.136c1.331,0.282,2.573,0.626,3.284-0.422c0.975-1.438,0.022-4.298,0.566-6.186
		c0.507-1.763,2.31-3.438,3.737-1.969c0.105,0.929-0.259,1.272-0.792,1.407c-0.497-0.135-0.369-1.043-0.907-1.125
		c-0.84,0.319-1.142,1.895-0.566,2.811c-0.551,0.207-0.927,0.63-0.793,1.688c0.249,0.16,0.463,0.362,0.907,0.281
		c-0.525,0.502-1.488,2.553-0.567,3.093c0.329-1.87,2.313-2.962,3.512-4.498c2.234-2.867-0.068-7.493-3.397-5.061
		c-0.19,0.466-0.457,0.84-0.906,0.984c0.495-0.869,0.347-2.185-0.226-2.812c-1.062,0.044-1.683,0.287-1.813,1.124
		c-0.154,1.004,1.262,2.154,0.341,2.812c-0.54-3.704-4.114-0.073-1.7,1.828c0.491,0.133,1.186-0.206,1.358,0
		c-0.366,0.436-1.074,0.445-1.585,0.701c-1.029,1.291-0.268,3.561,1.247,3.655c-0.195-0.896-0.377-1.763,0.452-1.968
		c1.506,0.859,0.545,3.397-1.472,2.671c-3.368-3.822-0.992-13.874,4.53-12.229c3-0.574,3.958,3.796,5.662,5.764
		c0.255,0.124,0.87-0.509,1.02-0.984c-0.185-0.521-0.727-0.596-1.133-0.842c-1.811-2.369-3.214-6.196-2.264-10.402
		c1.122-1.921,1.954-3.351,3.736-3.654c2.731-0.467,4.94,1.848,4.983,5.48c0.019,1.593-0.953,3.166-2.151,2.953
		c-1.072-0.19-1.028-2.046,0-1.969c0.684,0.052,0.449,1.046,0.906,1.125c0.594-0.633,0.677-1.978,0.113-2.671
		c-0.567-0.096-0.876,0.13-1.359,0.14c0.205-0.965,0.58-1.717,0.454-3.092c-2.021-2.351-2.919,0.702-2.945,3.092
		c-0.622-3.834-4.098-0.452-1.811,1.827c0.339,0.424,1.368-0.011,1.472,0.704c-1.378,0.353-2.587,1.03-2.604,2.67
		c-0.029,2.764,3.804,3.588,5.095,1.405c-0.151-0.093-0.21-0.302-0.225-0.562c-0.572-0.476-1.059,0.741-1.474,0.421
		c0.262-0.983,0.324-2.49-0.679-2.107c-0.235,0.454,0.296,1.731-0.339,1.967c-0.808,0.532-1.722-0.568-1.246-1.826
		c0.757-2.003,3.539,0.067,5.096-0.141c1.396-0.188,2.578-1.751,2.492-3.655c-0.036-0.779-0.741-1.236-0.228-1.968
		c1.093,0.773,0.503,3.9,2.266,3.375c1.781-0.535-0.16-3.371-0.567-4.22c1.808,0.061,3.618,1.315,5.436,1.829
		c2.967-0.063,5.2,0.276,7.587-0.704c1.112-0.456,2.052-1.22,2.944-2.009V7.597c-0.112,0.059-0.224,0.119-0.339,0.178
		C55.218,7.119,54.836,6.481,54.559,5.947z"/>
	<g>
		<path fill="none" d="M19.567,41.088c-1.817-0.658-1.049,3.527-0.793,4.78C19.515,44.951,20.034,42.608,19.567,41.088z"/>
		<path fill="none" d="M27.72,8.057c0.504-0.113,0.637-1.418,0.228-1.827C26.684,5.963,26.743,7.987,27.72,8.057z"/>
		<path fill="none" d="M26.249,7.213c-0.907-2.11-4.877-1.546-4.077,1.968c0.409,0.1,0.586,0.49,1.02,0.562
			c0.096-1.075,0.497-1.956,1.472-1.546c1.174,2.623-2.54,3.084-3.171,1.266c-0.356-2.042-1.33-3.317-3.284-3.374
			c-0.698,4.184,4.92,3.711,3.398,8.011c-0.862,0.455-2.195,1.004-2.266-0.703c0.13-0.788,1.332-0.465,1.698-0.562
			c-0.346-2.57-2.755-1.38-2.943,0.422c-0.173,1.64,1.137,2.886,2.037,3.092c1.78,0.407,4.141-1.854,6.117-0.984
			C25.9,13.255,27.285,9.626,26.249,7.213z"/>
		<path fill="none" d="M39.385,5.947c-0.069,0.337-0.164,0.643-0.113,1.125c0.424,0.137,1.129,0.422,1.358,0
			C40.643,6.166,40.18,5.851,39.385,5.947z"/>
		<path d="M55.125,7.597V5.313C42.76,5.403,30.596,5.562,17.189,5.667c0.429,0.971,0.205,2.191,0.227,3.372
			c0.019,1.147,0.11,2.319,0.112,3.515c0.01,3.625-0.18,7.302-0.112,11.104c0.061,3.377,0.125,6.055,0.112,9.137
			c-0.009,2.664,0,5.345,0,8.012c0,4.688,0.013,9.446,0.033,14.257h1.111c0.016-2.445,0.194-4.933,0.555-7.369
			c1.355-9.141,5.544-16.448,10.192-22.349c1.566-1.987,3.411-3.682,5.209-5.2c0.941-0.796,1.762-1.87,2.718-2.53
			c1.044-0.723,2.252-0.828,3.058-1.967c0.264,0,0.528,0,0.793,0c3.94-2.537,8.755-3.447,13.928-3.515V9.279
			c-0.892,0.789-1.832,1.554-2.944,2.009c-2.387,0.979-4.62,0.64-7.587,0.704c-1.817-0.514-3.628-1.77-5.436-1.829
			c0.407,0.849,2.348,3.685,0.567,4.22c-1.763,0.526-1.173-2.602-2.266-3.375c-0.514,0.731,0.191,1.188,0.228,1.968
			c0.086,1.904-1.096,3.467-2.492,3.655c-1.557,0.208-4.339-1.863-5.096,0.141c-0.476,1.258,0.438,2.358,1.246,1.826
			c0.636-0.234,0.104-1.513,0.339-1.967c1.002-0.384,0.941,1.124,0.679,2.107c0.415,0.319,0.902-0.896,1.474-0.421
			c0.015,0.261,0.074,0.469,0.225,0.562c-1.292,2.183-5.124,1.358-5.095-1.405c0.017-1.641,1.226-2.317,2.604-2.67
			c-0.104-0.715-1.133-0.279-1.472-0.704c-2.287-2.279,1.189-5.662,1.811-1.827c0.026-2.39,0.924-5.443,2.945-3.092
			c0.126,1.375-0.249,2.127-0.454,3.092c0.483-0.01,0.792-0.235,1.359-0.14c0.564,0.693,0.481,2.038-0.113,2.671
			c-0.457-0.08-0.222-1.074-0.906-1.125c-1.028-0.077-1.072,1.778,0,1.969c1.198,0.212,2.17-1.36,2.151-2.953
			c-0.043-3.634-2.252-5.948-4.983-5.48c-1.782,0.305-2.614,1.733-3.736,3.654c-0.95,4.206,0.453,8.033,2.264,10.402
			c0.406,0.247,0.948,0.322,1.133,0.842c-0.149,0.476-0.765,1.108-1.02,0.984c-1.704-1.967-2.662-6.338-5.662-5.764
			c-5.522-1.644-7.897,8.408-4.53,12.229c2.017,0.726,2.978-1.812,1.472-2.671c-0.83,0.206-0.647,1.073-0.452,1.968
			c-1.515-0.096-2.276-2.365-1.247-3.655c0.512-0.256,1.22-0.266,1.585-0.701c-0.172-0.206-0.868,0.133-1.358,0
			c-2.415-1.9,1.16-5.532,1.7-1.828c0.92-0.658-0.495-1.809-0.341-2.812c0.13-0.837,0.75-1.079,1.813-1.124
			c0.573,0.627,0.721,1.942,0.226,2.812c0.449-0.145,0.716-0.519,0.906-0.984c3.33-2.433,5.631,2.193,3.397,5.061
			c-1.199,1.536-3.183,2.628-3.512,4.498c-0.92-0.54,0.042-2.591,0.567-3.093c-0.443,0.082-0.658-0.121-0.907-0.281
			c-0.134-1.057,0.242-1.479,0.793-1.688c-0.576-0.916-0.274-2.491,0.566-2.811c0.538,0.081,0.41,0.989,0.907,1.125
			c0.533-0.135,0.898-0.479,0.792-1.407c-1.428-1.471-3.23,0.206-3.737,1.969c-0.544,1.887,0.408,4.747-0.566,6.186
			c-0.71,1.048-1.953,0.705-3.284,0.422c1.523,1.546,2.117,9.004-0.227,9.136c-1.334,0.075-1.903-2.979-0.339-3.373
			c0.294,0.291,0.553,0.625,0.566,1.265c0.779-0.354,0.601-1.554,0.565-2.107c-0.166-2.747-2.55-5.85-1.699-8.294
			c-1.189-2.279-0.019-7.983,1.474-9.559c1.479-1.562,4.281-1.858,6.907-1.547c-0.221-4.241,0.739-8.459,3.511-9.558
			c5.036-1.996,9.386,2.861,13.136,4.217c1.596,0.098,3.232,0.686,5.324,0.281c1.433-0.277,2.895-1.579,2.943-2.529
			c0.081-1.56-1.783-2.185-2.151-0.704c-0.078,0.752,0.636,0.521,0.565,1.265c-0.037,1.43-1.617,1.177-2.15,0.562
			c0.022-0.44-0.078-1.032,0.112-1.265c-1.104,0.27-0.542,2.606-2.265,2.107c-0.612-0.938,0.146-1.879,0.566-2.389
			c-0.758,0.184-1.081,0.908-1.699,1.265c-1.458,0.216-2.394-0.215-3.057-0.982c-0.637-2.442,1.864-3.047,3.171-1.97
			c0,0.375,0,0.75,0,1.125c-0.441,0.295-1.303,0.07-1.925,0.141c0.959,1.174,2.384,0.297,3.397-0.28
			c1.639-0.937,3.506-1.963,5.888-0.985c0.354,0.499,0.641,1.077,1.019,1.546c0.287-0.481-0.208-1.261,0.114-1.826
			c0.214-0.25,0.748-0.104,1.133-0.142c0.277,0.534,0.659,1.172,0.226,1.828C54.9,7.716,55.012,7.655,55.125,7.597z M19.567,41.088
			c0.467,1.521-0.053,3.863-0.793,4.78C18.519,44.615,17.75,40.43,19.567,41.088z M26.249,15.365
			c-1.976-0.87-4.336,1.392-6.117,0.984c-0.9-0.207-2.21-1.452-2.037-3.092c0.188-1.802,2.597-2.992,2.943-0.422
			c-0.366,0.097-1.568-0.228-1.698,0.562c0.071,1.708,1.404,1.158,2.266,0.703c1.522-4.3-4.096-3.827-3.398-8.011
			c1.954,0.057,2.928,1.332,3.284,3.374c0.631,1.818,4.345,1.357,3.171-1.266c-0.975-0.409-1.376,0.471-1.472,1.546
			c-0.433-0.072-0.61-0.463-1.02-0.562c-0.8-3.514,3.17-4.079,4.077-1.968C27.285,9.626,25.9,13.255,26.249,15.365z M27.72,8.057
			c-0.977-0.068-1.036-2.094,0.228-1.827C28.356,6.638,28.224,7.943,27.72,8.057z M39.272,7.072
			c-0.05-0.482,0.044-0.788,0.113-1.125c0.795-0.097,1.258,0.219,1.245,1.125C40.4,7.494,39.695,7.209,39.272,7.072z"/>
	</g>
	<g>
		<path fill="none" d="M90.684,41.088c1.816-0.658,1.047,3.527,0.791,4.78C90.734,44.951,90.217,42.608,90.684,41.088z"/>
		<path fill="none" d="M82.531,8.057c-0.504-0.113-0.637-1.418-0.227-1.827C83.568,5.963,83.508,7.987,82.531,8.057z"/>
		<path fill="none" d="M84.002,7.213c0.906-2.11,4.877-1.546,4.076,1.968c-0.408,0.1-0.586,0.49-1.02,0.562
			c-0.096-1.075-0.498-1.956-1.473-1.546c-1.174,2.623,2.541,3.084,3.17,1.266c0.355-2.042,1.33-3.317,3.285-3.374
			c0.697,4.184-4.92,3.711-3.396,8.011c0.861,0.455,2.193,1.004,2.266-0.703c-0.131-0.788-1.332-0.465-1.699-0.562
			c0.348-2.57,2.756-1.38,2.943,0.422c0.176,1.64-1.139,2.886-2.035,3.092c-1.781,0.407-4.143-1.854-6.117-0.984
			C84.35,13.255,82.967,9.626,84.002,7.213z"/>
		<path fill="none" d="M70.865,5.947c0.07,0.337,0.164,0.643,0.115,1.125c-0.426,0.137-1.129,0.422-1.359,0
			C69.607,6.166,70.07,5.851,70.865,5.947z"/>
		<path d="M55.465,7.775c-0.433-0.655-0.051-1.294,0.227-1.828c0.385,0.038,0.918-0.107,1.135,0.142
			c0.32,0.565-0.176,1.345,0.111,1.827c0.377-0.471,0.666-1.048,1.02-1.547c2.383-0.978,4.25,0.049,5.889,0.985
			c1.012,0.578,2.439,1.455,3.396,0.28c-0.621-0.07-1.482,0.154-1.924-0.141c0-0.375,0-0.75,0-1.125
			c1.307-1.078,3.809-0.473,3.17,1.97c-0.662,0.769-1.598,1.199-3.059,0.982c-0.617-0.356-0.938-1.081-1.697-1.265
			c0.42,0.51,1.18,1.451,0.566,2.389c-1.723,0.499-1.16-1.838-2.266-2.107c0.189,0.232,0.09,0.823,0.113,1.265
			c-0.533,0.613-2.113,0.867-2.15-0.562c-0.07-0.743,0.645-0.513,0.564-1.266c-0.367-1.48-2.232-0.855-2.152,0.704
			c0.053,0.951,1.514,2.252,2.945,2.529c2.092,0.404,3.729-0.184,5.322-0.281c3.752-1.354,8.1-6.212,13.137-4.217
			c2.771,1.098,3.732,5.316,3.512,9.558c2.627-0.312,5.426-0.016,6.906,1.547c1.492,1.575,2.662,7.279,1.473,9.559
			c0.852,2.444-1.531,5.547-1.697,8.294c-0.033,0.554-0.215,1.753,0.564,2.107c0.014-0.639,0.271-0.974,0.566-1.265
			c1.562,0.394,0.994,3.448-0.34,3.373c-2.344-0.132-1.75-7.59-0.227-9.136c-1.332,0.282-2.572,0.626-3.283-0.422
			c-0.977-1.438-0.023-4.298-0.566-6.186c-0.51-1.763-2.312-3.438-3.738-1.969c-0.104,0.929,0.26,1.272,0.793,1.407
			c0.498-0.135,0.369-1.043,0.906-1.125c0.84,0.319,1.145,1.895,0.568,2.811c0.549,0.207,0.924,0.63,0.791,1.688
			c-0.25,0.16-0.465,0.362-0.906,0.281c0.525,0.502,1.488,2.553,0.566,3.093c-0.328-1.87-2.314-2.962-3.512-4.498
			c-2.232-2.867,0.068-7.493,3.396-5.061c0.189,0.466,0.457,0.84,0.906,0.984c-0.494-0.869-0.346-2.185,0.227-2.812
			c1.062,0.044,1.684,0.287,1.812,1.124c0.154,1.004-1.262,2.154-0.34,2.812c0.539-3.704,4.115-0.073,1.697,1.828
			c-0.488,0.133-1.186-0.206-1.357,0c0.365,0.436,1.076,0.445,1.588,0.701c1.027,1.291,0.266,3.561-1.248,3.655
			c0.193-0.896,0.379-1.763-0.453-1.968c-1.506,0.859-0.543,3.397,1.473,2.671c3.369-3.822,0.992-13.874-4.529-12.229
			c-3-0.574-3.957,3.796-5.66,5.764c-0.258,0.124-0.871-0.509-1.02-0.984c0.182-0.521,0.727-0.596,1.131-0.842
			c1.812-2.369,3.213-6.196,2.266-10.402c-1.123-1.921-1.953-3.351-3.738-3.654c-2.729-0.467-4.939,1.848-4.98,5.48
			c-0.02,1.593,0.953,3.166,2.15,2.953c1.072-0.19,1.027-2.046,0-1.969c-0.684,0.052-0.449,1.046-0.906,1.125
			c-0.596-0.633-0.676-1.978-0.113-2.671c0.568-0.096,0.879,0.13,1.359,0.14c-0.203-0.965-0.578-1.717-0.453-3.092
			c2.021-2.351,2.92,0.702,2.943,3.092c0.625-3.834,4.1-0.452,1.812,1.827c-0.34,0.424-1.367-0.011-1.471,0.704
			c1.377,0.353,2.586,1.03,2.604,2.67c0.029,2.764-3.803,3.588-5.096,1.405c0.15-0.093,0.211-0.302,0.225-0.562
			c0.572-0.476,1.061,0.741,1.475,0.421c-0.262-0.983-0.324-2.49,0.68-2.107c0.234,0.454-0.297,1.731,0.34,1.967
			c0.807,0.532,1.721-0.568,1.244-1.826c-0.756-2.003-3.539,0.067-5.094-0.141c-1.396-0.188-2.58-1.751-2.492-3.655
			c0.033-0.779,0.74-1.236,0.227-1.968c-1.094,0.773-0.504,3.9-2.266,3.375c-1.781-0.535,0.16-3.371,0.568-4.22
			c-1.811,0.061-3.621,1.315-5.438,1.829c-2.969-0.063-5.199,0.276-7.588-0.704c-1.111-0.456-2.053-1.22-2.945-2.009v2.854
			c5.174,0.067,9.988,0.978,13.93,3.515c0.264,0,0.527,0,0.791,0c0.807,1.14,2.014,1.244,3.061,1.967
			c0.953,0.66,1.773,1.734,2.717,2.53c1.799,1.521,3.645,3.213,5.209,5.2c4.646,5.9,8.838,13.208,10.191,22.349
			c0.359,2.438,0.539,4.924,0.557,7.369h1.109c0.021-4.811,0.033-9.569,0.033-14.257c0-2.667,0.01-5.348,0-8.012
			c-0.012-3.082,0.051-5.76,0.111-9.137c0.068-3.802-0.121-7.479-0.111-11.104c0.002-1.195,0.094-2.367,0.111-3.514
			c0.021-1.182-0.201-2.402,0.227-3.373C79.654,5.562,67.49,5.403,55.125,5.313v2.283C55.238,7.655,55.35,7.716,55.465,7.775z
			 M91.475,45.868c-0.74-0.917-1.258-3.26-0.791-4.78C92.502,40.43,91.73,44.615,91.475,45.868z M84.002,7.213
			c0.906-2.11,4.877-1.546,4.076,1.968c-0.408,0.1-0.586,0.49-1.02,0.562c-0.096-1.075-0.498-1.956-1.473-1.546
			c-1.174,2.623,2.541,3.084,3.17,1.266c0.355-2.042,1.33-3.317,3.285-3.374c0.697,4.184-4.92,3.711-3.396,8.011
			c0.861,0.455,2.193,1.004,2.266-0.703c-0.131-0.788-1.332-0.465-1.699-0.562c0.348-2.57,2.756-1.38,2.943,0.422
			c0.176,1.64-1.139,2.886-2.035,3.092c-1.781,0.407-4.143-1.854-6.117-0.984C84.35,13.255,82.967,9.626,84.002,7.213z
			 M82.305,6.229c1.264-0.268,1.203,1.758,0.227,1.827C82.027,7.943,81.895,6.638,82.305,6.229z M69.621,7.072
			c-0.014-0.906,0.449-1.222,1.244-1.125c0.07,0.337,0.164,0.643,0.115,1.125C70.555,7.209,69.852,7.494,69.621,7.072z"/>
	</g>
	<path fill="none" d="M54.559,104.178c-0.385-0.037-0.918,0.107-1.133-0.142c-0.322-0.565,0.173-1.345-0.114-1.827
		c-0.377,0.471-0.665,1.051-1.019,1.547c-2.382,0.979-4.249-0.047-5.888-0.983c-1.014-0.579-2.438-1.455-3.397-0.28
		c0.623,0.069,1.484-0.156,1.925,0.139c0,0.377,0,0.752,0,1.125c-1.307,1.08-3.808,0.477-3.171-1.968
		c0.663-0.769,1.599-1.2,3.057-0.983c0.619,0.357,0.941,1.08,1.699,1.267c-0.42-0.512-1.179-1.451-0.566-2.39
		c1.722-0.5,1.161,1.838,2.265,2.106c-0.19-0.233-0.089-0.825-0.112-1.265c0.533-0.612,2.113-0.866,2.15,0.562
		c0.071,0.743-0.644,0.514-0.565,1.265c0.368,1.481,2.232,0.856,2.151-0.702c-0.049-0.952-1.511-2.254-2.943-2.529
		c-2.091-0.404-3.728,0.184-5.324,0.279c-3.75,1.357-8.1,6.213-13.136,4.219c-2.771-1.099-3.732-5.316-3.511-9.559
		c-2.626,0.312-5.428,0.016-6.907-1.547c-1.492-1.573-2.663-7.278-1.474-9.559c-0.851-2.445,1.533-5.547,1.699-8.293
		c0.036-0.555,0.214-1.754-0.565-2.107c-0.014,0.64-0.272,0.974-0.566,1.265c-1.564-0.396-0.995-3.449,0.339-3.374
		c2.344,0.133,1.75,7.591,0.227,9.138c1.331-0.284,2.573-0.627,3.284,0.423c0.975,1.438,0.022,4.295,0.566,6.185
		c0.507,1.763,2.31,3.438,3.737,1.969c0.105-0.929-0.259-1.272-0.792-1.405c-0.497,0.133-0.369,1.041-0.907,1.125
		c-0.84-0.322-1.142-1.897-0.566-2.812c-0.551-0.208-0.927-0.629-0.793-1.688c0.249-0.16,0.463-0.361,0.907-0.281
		c-0.525-0.504-1.488-2.551-0.567-3.092c0.329,1.871,2.313,2.961,3.512,4.498c2.234,2.866-0.068,7.493-3.397,5.06
		c-0.19-0.466-0.457-0.837-0.906-0.983c0.495,0.87,0.347,2.186-0.226,2.812c-1.062-0.045-1.683-0.286-1.813-1.125
		c-0.154-1.004,1.262-2.153,0.341-2.812c-0.54,3.706-4.114,0.075-1.7-1.825c0.491-0.136,1.186,0.203,1.358,0
		c-0.366-0.437-1.074-0.447-1.585-0.703c-1.029-1.289-0.268-3.561,1.247-3.655c-0.195,0.896-0.377,1.764,0.452,1.969
		c1.506-0.856,0.545-3.396-1.472-2.672c-3.368,3.821-0.992,13.874,4.53,12.229c3,0.576,3.958-3.797,5.662-5.763
		c0.255-0.125,0.87,0.509,1.02,0.982c-0.185,0.521-0.727,0.597-1.133,0.844c-1.811,2.369-3.214,6.194-2.264,10.401
		c1.122,1.922,1.954,3.352,3.736,3.654c2.731,0.467,4.94-1.849,4.983-5.48c0.019-1.594-0.953-3.165-2.151-2.952
		c-1.072,0.19-1.028,2.045,0,1.969c0.684-0.053,0.449-1.046,0.906-1.126c0.594,0.633,0.677,1.977,0.113,2.671
		c-0.567,0.095-0.876-0.129-1.359-0.141c0.205,0.965,0.58,1.718,0.454,3.093c-2.021,2.352-2.919-0.701-2.945-3.093
		c-0.622,3.836-4.098,0.452-1.811-1.827c0.339-0.423,1.368,0.014,1.472-0.703c-1.378-0.354-2.587-1.029-2.604-2.67
		c-0.029-2.766,3.804-3.589,5.095-1.406c-0.151,0.094-0.21,0.301-0.225,0.562c-0.572,0.475-1.059-0.739-1.474-0.422
		c0.262,0.984,0.324,2.49-0.679,2.109c-0.235-0.455,0.296-1.734-0.339-1.97c-0.808-0.532-1.722,0.567-1.246,1.827
		c0.757,2.004,3.539-0.066,5.096,0.143c1.396,0.186,2.578,1.75,2.492,3.653c-0.036,0.778-0.741,1.235-0.228,1.968
		c1.093-0.773,0.503-3.9,2.266-3.375c1.781,0.534-0.16,3.37-0.567,4.221c1.808-0.061,3.618-1.315,5.436-1.83
		c2.967,0.062,5.2-0.275,7.587,0.703c1.112,0.455,2.052,1.221,2.944,2.011v1.683c-0.112-0.061-0.224-0.117-0.339-0.18
		C55.218,103.006,54.836,103.646,54.559,104.178z"/>
	<g>
		<path fill="none" d="M19.567,69.037c-1.817,0.66-1.049-3.527-0.793-4.779C19.515,65.174,20.034,67.517,19.567,69.037z"/>
		<path fill="none" d="M27.72,102.07c0.504,0.113,0.637,1.418,0.228,1.827C26.684,104.164,26.743,102.137,27.72,102.07z"/>
		<path fill="none" d="M26.249,102.912c-0.907,2.112-4.877,1.549-4.077-1.967c0.409-0.102,0.586-0.49,1.02-0.562
			c0.096,1.074,0.497,1.955,1.472,1.545c1.174-2.623-2.54-3.082-3.171-1.265c-0.356,2.041-1.33,3.316-3.284,3.373
			c-0.698-4.183,4.92-3.711,3.398-8.012c-0.862-0.454-2.195-1.004-2.266,0.704c0.13,0.787,1.332,0.464,1.698,0.561
			c-0.346,2.57-2.755,1.379-2.943-0.422c-0.173-1.639,1.137-2.886,2.037-3.091c1.78-0.408,4.141,1.853,6.117,0.981
			C25.9,96.871,27.285,100.502,26.249,102.912z"/>
		<path fill="none" d="M39.385,104.178c-0.069-0.336-0.164-0.643-0.113-1.125c0.424-0.137,1.129-0.422,1.358,0
			C40.643,103.961,40.18,104.275,39.385,104.178z"/>
		<path d="M54.785,102.35c0.433,0.656,0.051,1.296-0.226,1.828c-0.385-0.037-0.918,0.107-1.133-0.142
			c-0.322-0.565,0.173-1.345-0.114-1.827c-0.377,0.471-0.665,1.051-1.019,1.547c-2.382,0.979-4.249-0.047-5.888-0.983
			c-1.014-0.579-2.438-1.455-3.397-0.28c0.623,0.069,1.484-0.156,1.925,0.139c0,0.377,0,0.752,0,1.125
			c-1.307,1.08-3.808,0.477-3.171-1.968c0.663-0.769,1.599-1.2,3.057-0.983c0.619,0.357,0.941,1.08,1.699,1.267
			c-0.42-0.512-1.179-1.451-0.566-2.39c1.722-0.5,1.161,1.838,2.265,2.106c-0.19-0.233-0.089-0.825-0.112-1.265
			c0.533-0.612,2.113-0.866,2.15,0.562c0.071,0.743-0.644,0.514-0.565,1.265c0.368,1.481,2.232,0.856,2.151-0.702
			c-0.049-0.952-1.511-2.254-2.943-2.529c-2.091-0.404-3.728,0.184-5.324,0.279c-3.75,1.357-8.1,6.213-13.136,4.219
			c-2.771-1.099-3.732-5.316-3.511-9.559c-2.626,0.312-5.428,0.016-6.907-1.547c-1.492-1.573-2.663-7.278-1.474-9.559
			c-0.851-2.445,1.533-5.547,1.699-8.293c0.036-0.555,0.214-1.754-0.565-2.107c-0.014,0.64-0.272,0.974-0.566,1.265
			c-1.564-0.396-0.995-3.449,0.339-3.374c2.344,0.133,1.75,7.591,0.227,9.138c1.331-0.284,2.573-0.627,3.284,0.423
			c0.975,1.438,0.022,4.295,0.566,6.185c0.507,1.763,2.31,3.438,3.737,1.969c0.105-0.929-0.259-1.272-0.792-1.405
			c-0.497,0.133-0.369,1.041-0.907,1.125c-0.84-0.322-1.142-1.897-0.566-2.812c-0.551-0.208-0.927-0.629-0.793-1.688
			c0.249-0.16,0.463-0.361,0.907-0.281c-0.525-0.504-1.488-2.551-0.567-3.092c0.329,1.871,2.313,2.961,3.512,4.498
			c2.234,2.866-0.068,7.493-3.397,5.06c-0.19-0.466-0.457-0.837-0.906-0.983c0.495,0.87,0.347,2.186-0.226,2.812
			c-1.062-0.045-1.683-0.286-1.813-1.125c-0.154-1.004,1.262-2.153,0.341-2.812c-0.54,3.706-4.114,0.075-1.7-1.825
			c0.491-0.136,1.186,0.203,1.358,0c-0.366-0.437-1.074-0.447-1.585-0.703c-1.029-1.289-0.268-3.561,1.247-3.655
			c-0.195,0.896-0.377,1.764,0.452,1.969c1.506-0.856,0.545-3.396-1.472-2.672c-3.368,3.821-0.992,13.874,4.53,12.229
			c3,0.576,3.958-3.797,5.662-5.763c0.255-0.125,0.87,0.509,1.02,0.982c-0.185,0.521-0.727,0.597-1.133,0.844
			c-1.811,2.369-3.214,6.194-2.264,10.401c1.122,1.922,1.954,3.352,3.736,3.654c2.731,0.467,4.94-1.849,4.983-5.48
			c0.019-1.594-0.953-3.165-2.151-2.952c-1.072,0.19-1.028,2.045,0,1.969c0.684-0.053,0.449-1.046,0.906-1.126
			c0.594,0.633,0.677,1.977,0.113,2.671c-0.567,0.095-0.876-0.129-1.359-0.141c0.205,0.965,0.58,1.718,0.454,3.093
			c-2.021,2.352-2.919-0.701-2.945-3.093c-0.622,3.836-4.098,0.452-1.811-1.827c0.339-0.423,1.368,0.014,1.472-0.703
			c-1.378-0.354-2.587-1.029-2.604-2.67c-0.029-2.766,3.804-3.589,5.095-1.406c-0.151,0.094-0.21,0.301-0.225,0.562
			c-0.572,0.475-1.059-0.739-1.474-0.422c0.262,0.984,0.324,2.49-0.679,2.109c-0.235-0.455,0.296-1.734-0.339-1.97
			c-0.808-0.532-1.722,0.567-1.246,1.827c0.757,2.004,3.539-0.066,5.096,0.143c1.396,0.186,2.578,1.75,2.492,3.653
			c-0.036,0.778-0.741,1.235-0.228,1.968c1.093-0.773,0.503-3.9,2.266-3.375c1.781,0.534-0.16,3.37-0.567,4.221
			c1.808-0.061,3.618-1.315,5.436-1.83c2.967,0.062,5.2-0.275,7.587,0.703c1.112,0.455,2.052,1.221,2.944,2.011v-2.854
			c-5.172-0.068-9.988-0.979-13.928-3.514c-0.265,0-0.529,0-0.793,0c-0.805-1.143-2.013-1.245-3.058-1.969
			c-0.956-0.659-1.776-1.734-2.718-2.529c-1.799-1.521-3.644-3.214-5.209-5.201c-4.648-5.9-8.837-13.207-10.192-22.35
			c-0.361-2.437-0.539-4.924-0.555-7.368h-1.111c-0.021,4.81-0.033,9.567-0.033,14.255c0,2.669-0.009,5.35,0,8.012
			c0.013,3.086-0.051,5.76-0.112,9.139c-0.068,3.803,0.122,7.479,0.112,11.104c-0.002,1.193-0.093,2.366-0.112,3.513
			c-0.022,1.182,0.202,2.402-0.227,3.375c13.408,0.104,25.572,0.263,37.936,0.352v-2.282C55.012,102.469,54.9,102.411,54.785,102.35
			z M18.774,64.258c0.74,0.916,1.26,3.259,0.793,4.778C17.75,69.697,18.519,65.51,18.774,64.258z M26.249,102.912
			c-0.907,2.112-4.877,1.549-4.077-1.967c0.409-0.102,0.586-0.49,1.02-0.562c0.096,1.074,0.497,1.955,1.472,1.545
			c1.174-2.623-2.54-3.082-3.171-1.265c-0.356,2.041-1.33,3.316-3.284,3.373c-0.698-4.183,4.92-3.711,3.398-8.012
			c-0.862-0.454-2.195-1.004-2.266,0.704c0.13,0.787,1.332,0.464,1.698,0.561c-0.346,2.57-2.755,1.379-2.943-0.422
			c-0.173-1.639,1.137-2.886,2.037-3.091c1.78-0.408,4.141,1.853,6.117,0.981C25.9,96.871,27.285,100.502,26.249,102.912z
			 M27.947,103.897c-1.264,0.267-1.204-1.761-0.228-1.827C28.224,102.184,28.356,103.488,27.947,103.897z M40.629,103.053
			c0.014,0.908-0.449,1.223-1.245,1.125c-0.069-0.336-0.164-0.643-0.113-1.125C39.695,102.918,40.4,102.631,40.629,103.053z"/>
	</g>
	<g>
		<path fill="none" d="M90.684,69.037c1.816,0.66,1.047-3.527,0.791-4.779C90.734,65.174,90.217,67.517,90.684,69.037z"/>
		<path fill="none" d="M82.531,102.07c-0.504,0.113-0.637,1.418-0.227,1.827C83.568,104.164,83.508,102.137,82.531,102.07z"/>
		<path fill="none" d="M84.002,102.912c0.906,2.112,4.877,1.549,4.076-1.967c-0.408-0.102-0.586-0.49-1.02-0.562
			c-0.096,1.074-0.498,1.955-1.473,1.545c-1.174-2.623,2.541-3.082,3.17-1.265c0.355,2.041,1.33,3.316,3.285,3.373
			c0.697-4.183-4.92-3.711-3.396-8.012c0.861-0.454,2.193-1.004,2.266,0.704c-0.131,0.787-1.332,0.464-1.699,0.561
			c0.348,2.57,2.756,1.379,2.943-0.422c0.176-1.639-1.139-2.886-2.035-3.091c-1.781-0.408-4.143,1.853-6.117,0.981
			C84.35,96.871,82.967,100.502,84.002,102.912z"/>
		<path fill="none" d="M70.865,104.178c0.07-0.336,0.164-0.643,0.115-1.125c-0.426-0.137-1.129-0.422-1.359,0
			C69.607,103.961,70.07,104.275,70.865,104.178z"/>
		<path d="M55.125,102.529v2.282c12.365-0.089,24.529-0.247,37.936-0.353c-0.428-0.972-0.205-2.192-0.227-3.375
			c-0.018-1.146-0.109-2.317-0.111-3.512c-0.01-3.627,0.18-7.303,0.111-11.105c-0.061-3.377-0.123-6.053-0.111-9.138
			c0.01-2.663,0-5.343,0-8.012c0-4.688-0.012-9.446-0.033-14.255H91.58c-0.018,2.445-0.195,4.932-0.557,7.367
			c-1.354,9.144-5.545,16.449-10.191,22.351c-1.564,1.987-3.41,3.681-5.209,5.201c-0.941,0.795-1.764,1.87-2.717,2.528
			c-1.047,0.725-2.254,0.828-3.061,1.97c-0.264,0-0.527,0-0.791,0c-3.941,2.534-8.756,3.444-13.93,3.514v2.854
			c0.893-0.791,1.834-1.555,2.945-2.01c2.389-0.979,4.619-0.642,7.588-0.703c1.816,0.514,3.627,1.77,5.438,1.828
			c-0.408-0.85-2.35-3.686-0.568-4.22c1.762-0.526,1.172,2.603,2.266,3.375c0.516-0.731-0.191-1.188-0.227-1.968
			c-0.088-1.904,1.096-3.469,2.492-3.654c1.555-0.208,4.338,1.862,5.094-0.142c0.477-1.259-0.438-2.359-1.244-1.827
			c-0.637,0.234-0.105,1.514-0.34,1.969c-1.004,0.383-0.939-1.125-0.68-2.109c-0.414-0.316-0.9,0.896-1.475,0.423
			c-0.014-0.263-0.072-0.47-0.225-0.562c1.293-2.183,5.125-1.358,5.096,1.406c-0.018,1.64-1.227,2.315-2.604,2.67
			c0.104,0.716,1.131,0.28,1.471,0.703c2.287,2.278-1.188,5.663-1.812,1.827c-0.023,2.392-0.922,5.443-2.943,3.093
			c-0.125-1.375,0.25-2.128,0.453-3.093c-0.48,0.012-0.791,0.234-1.359,0.141c-0.562-0.693-0.48-2.039,0.113-2.671
			c0.457,0.08,0.223,1.073,0.906,1.126c1.027,0.076,1.072-1.777,0-1.969c-1.197-0.213-2.17,1.359-2.15,2.951
			c0.041,3.634,2.252,5.949,4.98,5.48c1.785-0.303,2.615-1.732,3.738-3.652c0.947-4.207-0.453-8.033-2.266-10.402
			c-0.404-0.247-0.949-0.322-1.131-0.844c0.148-0.475,0.762-1.107,1.02-0.982c1.703,1.966,2.66,6.339,5.66,5.764
			c5.521,1.644,7.898-8.408,4.529-12.23c-2.016-0.725-2.979,1.814-1.473,2.672c0.832-0.205,0.646-1.073,0.453-1.969
			c1.514,0.096,2.275,2.365,1.248,3.656c-0.512,0.256-1.223,0.267-1.588,0.701c0.174,0.204,0.869-0.135,1.357,0
			c2.418,1.901-1.158,5.532-1.697,1.826c-0.922,0.658,0.494,1.809,0.34,2.812c-0.129,0.838-0.75,1.08-1.812,1.123
			c-0.572-0.625-0.721-1.94-0.227-2.812c-0.449,0.146-0.717,0.519-0.906,0.983c-3.328,2.435-5.629-2.192-3.396-5.061
			c1.197-1.537,3.184-2.626,3.512-4.496c0.922,0.539-0.041,2.588-0.566,3.092c0.441-0.082,0.656,0.121,0.906,0.281
			c0.133,1.057-0.242,1.479-0.791,1.687c0.574,0.915,0.271,2.489-0.568,2.812c-0.537-0.083-0.408-0.992-0.906-1.125
			c-0.533,0.133-0.896,0.479-0.793,1.406c1.428,1.471,3.23-0.206,3.738-1.969c0.543-1.889-0.41-4.747,0.566-6.186
			c0.711-1.049,1.951-0.705,3.283-0.422c-1.523-1.547-2.117-9.005,0.227-9.138c1.334-0.075,1.902,2.979,0.34,3.374
			c-0.295-0.291-0.553-0.625-0.566-1.266c-0.779,0.354-0.6,1.555-0.564,2.108c0.166,2.746,2.549,5.849,1.697,8.293
			c1.189,2.279,0.02,7.984-1.473,9.558c-1.48,1.562-4.279,1.86-6.906,1.547c0.223,4.242-0.74,8.461-3.512,9.56
			c-5.037,1.994-9.385-2.86-13.137-4.219c-1.596-0.097-3.23-0.685-5.322-0.279c-1.434,0.274-2.895,1.577-2.945,2.529
			c-0.08,1.56,1.785,2.185,2.152,0.702c0.078-0.752-0.637-0.521-0.564-1.266c0.037-1.428,1.617-1.174,2.15-0.562
			c-0.023,0.438,0.076,1.03-0.113,1.265c1.104-0.27,0.543-2.605,2.266-2.107c0.613,0.938-0.146,1.879-0.566,2.391
			c0.76-0.186,1.08-0.908,1.697-1.268c1.461-0.215,2.396,0.217,3.059,0.984c0.639,2.443-1.863,3.047-3.17,1.969
			c0-0.375,0-0.75,0-1.125c0.441-0.295,1.303-0.069,1.924-0.14c-0.957-1.175-2.385-0.299-3.396,0.28
			c-1.639,0.938-3.506,1.964-5.889,0.982c-0.354-0.496-0.643-1.076-1.02-1.546c-0.287,0.482,0.209,1.263-0.111,1.827
			c-0.217,0.249-0.75,0.104-1.135,0.143c-0.276-0.533-0.66-1.174-0.227-1.83C55.35,102.411,55.238,102.469,55.125,102.529z
			 M90.684,69.037c-0.467-1.521,0.051-3.861,0.791-4.779C91.73,65.51,92.502,69.697,90.684,69.037z M84.002,94.76
			c1.975,0.869,4.336-1.392,6.117-0.982c0.896,0.205,2.211,1.452,2.035,3.091c-0.188,1.802-2.598,2.992-2.943,0.423
			c0.367-0.098,1.568,0.227,1.699-0.562c-0.07-1.708-1.402-1.158-2.266-0.704c-1.523,4.301,4.094,3.829,3.396,8.012
			c-1.955-0.057-2.93-1.332-3.285-3.373c-0.629-1.818-4.344-1.359-3.17,1.266c0.975,0.408,1.377-0.471,1.473-1.545
			c0.434,0.07,0.609,0.461,1.02,0.562c0.801,3.515-3.17,4.079-4.076,1.967C82.967,100.502,84.35,96.871,84.002,94.76z
			 M82.531,102.07c0.977,0.066,1.037,2.094-0.227,1.827C81.895,103.488,82.027,102.184,82.531,102.07z M70.98,103.053
			c0.049,0.482-0.045,0.789-0.115,1.125c-0.795,0.098-1.258-0.217-1.244-1.125C69.852,102.631,70.555,102.918,70.98,103.053z"/>
	</g>
	<path fill="#231F20" d="M55.169,15.523c-18.31,0-33.153,17.995-33.153,40.193c0,22.195,14.843,40.189,33.153,40.189
		c18.312,0,33.153-17.994,33.153-40.189C88.322,33.519,73.48,15.523,55.169,15.523z M55.169,92.491
		c-16.836,0-30.534-16.498-30.534-36.774c0-20.279,13.698-36.777,30.534-36.777c16.837,0,30.536,16.497,30.536,36.775
		S72.006,92.491,55.169,92.491z"/>
	<path fill="#231F20" d="M55.169,21.203c-15.588,0-28.27,15.482-28.27,34.514c0,19.028,12.682,34.512,28.27,34.512
		c15.589,0,28.271-15.482,28.271-34.512C83.439,36.686,70.758,21.203,55.169,21.203z M64.865,56.428
		c-2.852,1.36-6.289,1.943-8.945,1.943c-0.455-0.193-0.455-1.166-0.066-1.296c7.002-1.297,9.531-5.251,9.531-10.892
		c0-6.288-3.635-10.374-10.378-10.374c-3.437,0-3.442,0.26-3.442,2.334V67.06c0,6.807,0.071,7.649,4.22,8.104l1.723,0.193
		c0.389,0.324,0.24,1.426-0.146,1.621c-3.696-0.131-5.843-0.195-8.438-0.195c-2.723,0-5.061,0.064-7.914,0.195
		c-0.388-0.195-0.521-1.232-0.131-1.621l1.579-0.193c3.761-0.52,4.107-1.299,4.107-8.104V43.138c0-5.511-0.347-6.678-3.266-6.938
		l-2.442-0.259c-0.454-0.389-0.443-1.361,0.076-1.621c3.435-0.454,7.428-0.519,12.809-0.519c5.383,0,9.387,0.713,12.434,2.593
		c2.982,1.881,5.182,5.252,5.182,9.726C71.355,52.084,67.652,55.067,64.865,56.428z"/>
</g>
</svg>
