<?xml version="1.0" encoding="utf-8"?>
<!-- Generator: Adobe Illustrator 16.0.0, SVG Export Plug-In . SVG Version: 6.00 Build 0)  -->
<!DOCTYPE svg PUBLIC "-//W3C//DTD SVG 1.1//EN" "http://www.w3.org/Graphics/SVG/1.1/DTD/svg11.dtd">
<svg version="1.1" id="Layer_1" xmlns="http://www.w3.org/2000/svg" xmlns:xlink="http://www.w3.org/1999/xlink" x="0px" y="0px"
	 width="110px" height="110px" viewBox="0 0 110 110" enable-background="new 0 0 110 110" xml:space="preserve">
<g>
	<g>
		<polygon fill="#191F1B" points="44.5,78.996 44.162,94.727 44.5,95.065 		"/>
		<polyline fill="#191F1B" points="57.5,48.5 57.5,99.517 45.012,108.067 45.032,99.335 43.98,98.37 44.031,110 58.5,100.03 
			58.5,48.5 		"/>
		<path fill="#191F1B" d="M44.985,47.693"/>
	</g>
	<path fill="#191F1B" d="M45.5,9.5v40h41v-40H45.5z M75.5,37.5h-18v-17h18V37.5z"/>
	<g>
		
			<rect x="67.139" y="2.867" transform="matrix(0.9618 0.2737 -0.2737 0.9618 3.8845 -21.1171)" fill="#191F1B" width="20.947" height="0.988"/>
	</g>
	<g>
		
			<rect x="48.527" y="-17.718" transform="matrix(0.0163 0.9999 -0.9999 0.0163 49.0242 -48.2234)" fill="#191F1B" width="0.987" height="37.043"/>
	</g>
	<g>
		<rect x="39.065" y="46.054" fill="#191F1B" width="26.951" height="0.988"/>
	</g>
	<polygon fill="#191F1B" points="33.5,46.953 33.5,84.222 44.5,95.065 44.5,57.794 	"/>
	<polygon fill="#191F1B" points="33.5,87.917 33.5,98.5 34.5,98.5 34.5,88.903 	"/>
	<polygon fill="#191F1B" points="31.5,79.802 22.886,71.53 22.358,72.229 31.5,81.199 	"/>
	<polygon fill="#191F1B" points="44.5,54.113 44.5,8.328 33.5,4.882 33.5,43.368 	"/>
</g>
</svg>
