<?xml version="1.0" encoding="utf-8"?>
<!-- Generator: Adobe Illustrator 16.0.0, SVG Export Plug-In . SVG Version: 6.00 Build 0)  -->
<!DOCTYPE svg PUBLIC "-//W3C//DTD SVG 1.1//EN" "http://www.w3.org/Graphics/SVG/1.1/DTD/svg11.dtd">
<svg version="1.1" id="Layer_1" xmlns="http://www.w3.org/2000/svg" xmlns:xlink="http://www.w3.org/1999/xlink" x="0px" y="0px"
	 width="110px" height="110px" viewBox="0 0 110 110" enable-background="new 0 0 110 110" xml:space="preserve">
<g>
	<path fill="#231F20" d="M78.467,41.047c2.91-2.637,4.367-6.815,4.367-12.537c0-5.72-1.457-9.801-4.367-12.238
		s-6.988-3.657-12.232-3.657H45.521v6.49h14.223c5.244,0,9.322,1.22,12.232,3.656c2.91,2.438,4.369,6.519,4.369,12.239
		c0,3.308-0.492,6.097-1.467,8.373C76.225,42.768,77.422,41.993,78.467,41.047z"/>
	<polygon fill="#231F20" points="22.685,103.509 22.685,0 16.196,0 16.196,110 39.031,110 39.031,103.509 	"/>
	<path fill="#231F20" d="M68.424,63.957H45.521v6.489h16.415c11.949,0,21.146-2.686,27.586-8.06
		c1.635-1.365,3.061-2.979,4.283-4.836C87.531,61.817,79.074,63.957,68.424,63.957z"/>
</g>
</svg>
