<?xml version="1.0" encoding="utf-8"?>
<!-- Generator: Adobe Illustrator 16.0.0, SVG Export Plug-In . SVG Version: 6.00 Build 0)  -->
<!DOCTYPE svg PUBLIC "-//W3C//DTD SVG 1.1//EN" "http://www.w3.org/Graphics/SVG/1.1/DTD/svg11.dtd">
<svg version="1.1" id="Layer_1" xmlns="http://www.w3.org/2000/svg" xmlns:xlink="http://www.w3.org/1999/xlink" x="0px" y="0px"
	 width="110px" height="110px" viewBox="0 0 110 110" enable-background="new 0 0 110 110" xml:space="preserve">
<g>
	<path d="M86.16,38.124c-0.002-0.002-0.004-0.004-0.006-0.006l-0.607-0.607l-0.021,0.023c-0.428-0.389-0.86-0.763-1.311-1.111
		l0.123-0.123l-1.389-1.388l-0.373,0.373c-1.695-1.068-3.52-1.878-5.469-2.403c-3.146-0.859-7.771-1.313-13.728-1.364l-1.071-1.071
		l-0.707,0.707l0.354,0.354h-1.693c0.805-2.452,1.217-5.144,1.217-8.072c0-4.277-0.936-8.117-2.771-11.486l0.64-0.64l-1.39-1.388
		l-0.295,0.296c-0.367-0.545-0.771-1.07-1.19-1.586l0.1-0.099l-0.69-0.69l-0.046,0.046c-0.188-0.213-0.386-0.421-0.584-0.629
		l0.023-0.023L54.656,6.62l0,0c-0.001,0-0.001-0.001-0.002-0.002c-2.593-2.56-5.64-4.324-9.053-5.245
		C42.265,0.461,37.273,0,30.763,0H17.014v78.493h0.293l0.47,0.47l0.469-0.47h10.755l0.47,0.47l0.707-0.706l-0.47-0.47V47.256
		l0.233-0.233h4.687c5.324,0,9.963-0.928,13.893-2.733v64.478l-0.47,0.471l0.47,0.47V110h12.693V78.529h4.922
		c8.152,0,14.73-2.135,19.552-6.346c4.844-4.229,7.299-10.031,7.299-17.241C92.986,48.214,90.689,42.555,86.16,38.124z
		 M47.503,17.054l0.017-0.017c1.108,1.675,1.666,3.751,1.666,6.248c0,8.006-5.106,11.897-15.611,11.897H29.71V11.791h3.363
		c6.831,0,11.446,1.496,13.928,4.534l-0.113,0.113L47.503,17.054z M85.031,71.43c-4.635,4.049-10.99,6.103-18.895,6.103h-5.216
		l-0.471-0.47l-0.705,0.707l0.471,0.47v30.528L59.982,109H49.521v-9.988l0.685,0.686l0.707-0.707l-1.389-1.389l-0.002,0.002v-30.06
		l0.684,0.683l0.707-0.705l-1.388-1.39l-0.002,0.002v-9.431l0.685,0.684l0.707-0.705l-1.389-1.39l-0.002,0.002V43.797
		c1.692-0.872,3.259-1.899,4.659-3.123c2.605-2.274,4.512-5.008,5.726-8.168h2.364c0.238,0,0.457,0.005,0.691,0.006l0.061,0.061
		l0.06-0.06c6.013,0.037,10.647,0.482,13.765,1.333c3.243,0.873,6.141,2.551,8.614,4.991c4.33,4.237,6.524,9.656,6.524,16.106
		C91.986,61.854,89.646,67.398,85.031,71.43z"/>
	<path d="M77.125,45.263l-0.615-0.614l-0.133,0.132c-0.588-0.344-1.234-0.646-1.92-0.918l0.633-0.634l-1.42-1.42l-0.707,0.707
		l1.258,1.257c-2.563-0.973-5.768-1.474-9.641-1.474h-4.363v24.158l-0.471,0.471l0.471,0.471v0.291h4.867
		c11.02,0,16.607-4.338,16.607-12.896C81.691,50.524,80.154,47.348,77.125,45.263z M65.084,66.689h-3.869V43.298h3.365
		c5.234,0,9.158,0.886,11.828,2.663l0.816,0.815l0.114-0.115c0.453,0.384,0.865,0.798,1.226,1.25l-0.104,0.104l0.617,0.617
		l0.006-0.007c1.071,1.661,1.606,3.712,1.606,6.167C80.691,62.798,75.586,66.689,65.084,66.689z"/>
	<rect x="76.751" y="29.906" transform="matrix(-0.7067 -0.7075 0.7075 -0.7067 111.1567 106.8895)" width="1.962" height="1"/>
	<rect x="65.647" y="18.798" transform="matrix(-0.7066 -0.7076 0.7076 -0.7066 100.0529 80.0817)" width="1.962" height="1"/>
	<rect x="73.974" y="27.129" transform="matrix(-0.7067 -0.7075 0.7075 -0.7067 108.3819 100.1856)" width="1.962" height="1"/>
	<rect x="68.421" y="21.576" transform="matrix(-0.7071 -0.7071 0.7071 -0.7071 102.8687 86.7619)" width="1.964" height="1"/>
	<rect x="71.203" y="24.351" transform="matrix(-0.7071 -0.7071 0.7071 -0.7071 105.6548 93.4648)" width="1.964" height="1"/>
	<rect x="60.093" y="13.245" transform="matrix(-0.7071 -0.7071 0.7071 -0.7071 94.5428 66.6507)" width="1.964" height="1"/>
	<rect x="79.531" y="32.682" transform="matrix(-0.7071 -0.7071 0.7071 -0.7071 113.9805 113.5765)" width="1.964" height="1"/>
	<rect x="62.87" y="16.022" transform="matrix(-0.707 -0.7072 0.7072 -0.707 97.3105 73.3608)" width="1.964" height="1"/>
	<rect x="64.503" y="33.849" transform="matrix(-0.7075 -0.7067 0.7067 -0.7075 87.5754 104.9457)" width="2.008" height="1"/>
	<rect x="67.344" y="36.689" transform="matrix(-0.7071 -0.7071 0.7071 -0.7071 90.381 111.815)" width="2.008" height="1.001"/>
	<rect x="70.182" y="39.53" transform="matrix(-0.7071 -0.7071 0.7071 -0.7071 93.2177 118.6716)" width="2.008" height="1"/>
	<rect x="40.553" y="47.509" transform="matrix(0.7071 0.7071 -0.7071 0.7071 46.1131 -15.3078)" width="1.962" height="1"/>
	<rect x="43.331" y="50.287" transform="matrix(0.7071 0.7071 -0.7071 0.7071 48.8905 -16.459)" width="1.964" height="1"/>
	<rect x="57.212" y="64.17" transform="matrix(0.7071 0.7071 -0.7071 0.7071 62.7733 -22.2082)" width="1.964" height="1"/>
	<rect x="51.656" y="58.616" transform="matrix(0.7071 0.7071 -0.7071 0.7071 57.2188 -19.9059)" width="1.964" height="1"/>
	<rect x="54.439" y="61.393" transform="matrix(0.7074 0.7069 -0.7069 0.7074 59.9686 -21.0619)" width="1.963" height="1.001"/>
	<rect x="46.108" y="53.063" transform="matrix(-0.707 -0.7072 0.7072 -0.707 42.5009 124.7338)" width="1.964" height="1"/>
	<rect x="30.29" y="79.055" transform="matrix(0.7066 0.7076 -0.7076 0.7066 65.3235 1.562)" width="0.977" height="1"/>
	<rect x="37.775" y="87.042" transform="matrix(0.7071 0.7071 -0.7071 0.7071 73.2532 -1.7648)" width="1.964" height="1"/>
	<rect x="32.224" y="81.483" transform="matrix(0.7074 0.7069 -0.7069 0.7074 67.6678 0.5201)" width="1.963" height="1"/>
	<rect x="35.001" y="84.267" transform="matrix(0.7072 0.707 -0.707 0.7072 70.4628 -0.6222)" width="1.963" height="0.999"/>
	<rect x="40.548" y="89.817" transform="matrix(0.707 0.7072 -0.7072 0.707 76.0443 -2.9067)" width="1.964" height="1"/>
	<rect x="51.655" y="100.924" transform="matrix(0.7069 0.7074 -0.7074 0.7069 87.1731 -7.5013)" width="1.965" height="1"/>
	<rect x="43.331" y="92.589" transform="matrix(0.7071 0.7071 -0.7071 0.7071 78.8027 -4.0689)" width="1.964" height="1"/>
	<rect x="46.109" y="95.376" transform="matrix(0.7074 0.7069 -0.7069 0.7074 81.5508 -5.2291)" width="1.963" height="0.999"/>
	<rect x="54.44" y="103.704" transform="matrix(0.7074 0.7069 -0.7069 0.7074 89.8766 -8.681)" width="1.965" height="1"/>
	<rect x="57.215" y="106.471" transform="matrix(0.7076 0.7066 -0.7066 0.7076 92.6028 -9.8442)" width="1.962" height="1"/>
	<rect x="28.855" y="89.816" transform="matrix(0.7069 0.7074 -0.7074 0.7069 72.6319 5.3701)" width="1.965" height="1"/>
	<rect x="26.078" y="87.04" transform="matrix(0.7071 0.7071 -0.7071 0.7071 69.8259 6.5054)" width="1.964" height="1"/>
	<rect x="23.307" y="84.26" transform="matrix(0.7071 0.7071 -0.7071 0.7071 67.0478 7.6508)" width="1.964" height="0.999"/>
	<rect x="18.594" y="79.06" transform="matrix(0.7076 0.7066 -0.7066 0.7076 61.7966 9.7795)" width="0.976" height="1"/>
	<rect x="20.53" y="81.489" transform="matrix(0.707 0.7072 -0.7072 0.707 64.2887 8.8105)" width="1.964" height="1"/>
	<rect x="42.738" y="103.7" transform="matrix(0.7071 0.7071 -0.7071 0.7071 86.4859 -0.395)" width="1.964" height="1"/>
	<rect x="34.414" y="95.366" transform="matrix(0.7074 0.7069 -0.7069 0.7074 78.1216 3.0345)" width="1.963" height="0.999"/>
	<rect x="37.185" y="98.147" transform="matrix(0.7067 0.7075 -0.7075 0.7067 80.9837 1.9276)" width="1.964" height="1"/>
	<rect x="45.521" y="106.471" transform="matrix(0.7074 0.7069 -0.7069 0.7074 89.2221 -1.5661)" width="1.963" height="1"/>
	<rect x="39.967" y="100.918" transform="matrix(0.7066 0.7076 -0.7076 0.7066 83.778 0.7789)" width="1.965" height="1"/>
	<rect x="31.637" y="92.597" transform="matrix(0.707 0.7072 -0.7072 0.707 75.3988 4.2099)" width="1.964" height="1"/>
	<rect x="46.588" y="63.422" transform="matrix(0.7071 -0.7071 0.7071 0.7071 -31.7482 52.1596)" width="1" height="1.964"/>
	<rect x="57.212" y="75.01" transform="matrix(0.7071 0.7071 -0.7071 0.7071 70.4382 -19.0333)" width="1.964" height="1"/>
	<rect x="51.659" y="69.457" transform="matrix(0.7071 0.7071 -0.7071 0.7071 64.8853 -16.7329)" width="1.964" height="1"/>
	<rect x="54.44" y="72.234" transform="matrix(0.7072 0.707 -0.707 0.7072 67.6477 -17.8878)" width="1.964" height="1"/>
	<rect x="40.554" y="58.351" transform="matrix(-0.7071 -0.7071 0.7071 -0.7071 29.293 129.8347)" width="1.964" height="1"/>
	<rect x="43.328" y="61.125" transform="matrix(-0.7071 -0.7071 0.7071 -0.7071 32.0665 136.5324)" width="1.964" height="1"/>
	<rect x="37.778" y="55.573" transform="matrix(-0.707 -0.7072 0.7072 -0.707 26.5051 123.128)" width="1.964" height="1"/>
	<rect x="32.218" y="50.019" transform="matrix(-0.7074 -0.7069 0.7069 -0.7074 20.9752 109.722)" width="1.964" height="1"/>
	<rect x="30.279" y="47.604" transform="matrix(-0.7069 0.7074 -0.7074 -0.7069 86.553 60.3147)" width="1" height="0.976"/>
	<rect x="34.998" y="52.796" transform="matrix(-0.7071 -0.7071 0.7071 -0.7071 23.7344 116.4234)" width="1.963" height="1"/>
</g>
</svg>
