<?xml version="1.0" encoding="utf-8"?>
<!-- Generator: Adobe Illustrator 16.0.0, SVG Export Plug-In . SVG Version: 6.00 Build 0)  -->
<!DOCTYPE svg PUBLIC "-//W3C//DTD SVG 1.1//EN" "http://www.w3.org/Graphics/SVG/1.1/DTD/svg11.dtd">
<svg version="1.1" id="Layer_1" xmlns="http://www.w3.org/2000/svg" xmlns:xlink="http://www.w3.org/1999/xlink" x="0px" y="0px"
	 width="110px" height="110px" viewBox="0 0 110 110" enable-background="new 0 0 110 110" xml:space="preserve">
<g>
	<path fill="#231F20" d="M86.16,38.124c-0.002-0.002-0.004-0.004-0.006-0.006l-0.607-0.607l-0.021,0.023
		c-0.428-0.389-0.861-0.763-1.311-1.111l0.123-0.123l-1.389-1.388l-0.373,0.373c-1.695-1.068-3.52-1.878-5.469-2.403
		c-3.145-0.859-7.771-1.313-13.727-1.364l-1.072-1.071l-0.707,0.707l0.354,0.354h-1.693c0.805-2.452,1.217-5.144,1.217-8.072
		c0-4.277-0.936-8.117-2.771-11.486l0.639-0.64l-1.389-1.388l-0.295,0.296c-0.367-0.545-0.771-1.07-1.191-1.586l0.1-0.099
		l-0.69-0.69l-0.046,0.046c-0.188-0.213-0.386-0.421-0.584-0.629l0.023-0.023L54.656,6.62l0,0c-0.001,0-0.001-0.001-0.002-0.002
		c-2.593-2.56-5.64-4.324-9.053-5.245C42.265,0.461,37.273,0,30.763,0H17.014v78.493h0.293l0.47,0.47l0.469-0.47h10.755l0.47,0.47
		l0.707-0.706l-0.47-0.47V47.256l0.233-0.233h4.687c5.324,0,9.963-0.928,13.893-2.733v64.478l-0.47,0.47l0.47,0.47V110h12.693V78.53
		h4.922c8.152,0,14.73-2.135,19.551-6.347c4.844-4.229,7.299-10.03,7.299-17.24C92.986,48.214,90.689,42.555,86.16,38.124z
		 M47.503,17.054l0.017-0.017c1.108,1.675,1.666,3.751,1.666,6.248c0,8.006-5.106,11.897-15.611,11.897h-3.865V11.791h3.363
		c6.831,0,11.446,1.496,13.928,4.534l-0.113,0.113L47.503,17.054z M85.031,71.43c-4.635,4.049-10.99,6.102-18.895,6.102h-5.215
		l-0.471-0.47l-0.705,0.707l0.471,0.47v30.528L59.982,109H49.521v-9.988l0.685,0.685l0.707-0.707l-1.389-1.389l-0.002,0.003v-30.06
		l0.684,0.683l0.707-0.706l-1.388-1.389l-0.002,0.002v-9.431l0.685,0.684l0.707-0.706l-1.389-1.389l-0.002,0.002V43.797
		c1.692-0.872,3.259-1.899,4.659-3.123c2.605-2.274,4.513-5.008,5.726-8.168h2.365c0.238,0,0.457,0.005,0.691,0.006l0.061,0.061
		l0.059-0.06c6.012,0.037,10.648,0.482,13.764,1.333c3.244,0.873,6.141,2.551,8.615,4.991c4.33,4.237,6.525,9.656,6.525,16.106
		C91.986,61.853,89.646,67.399,85.031,71.43z"/>
	<path fill="#231F20" d="M77.125,45.263l-0.615-0.614l-0.133,0.132c-0.588-0.344-1.234-0.646-1.92-0.918l0.633-0.634l-1.42-1.42
		l-0.707,0.707l1.258,1.257c-2.564-0.973-5.768-1.474-9.641-1.474h-4.363v24.158l-0.471,0.471l0.471,0.47v0.292h4.867
		c11.02,0,16.607-4.338,16.607-12.896C81.691,50.524,80.154,47.348,77.125,45.263z M65.084,66.689h-3.869V43.298h3.365
		c5.234,0,9.158,0.886,11.828,2.663l0.816,0.815l0.115-0.115c0.453,0.384,0.865,0.798,1.225,1.25l-0.104,0.104l0.617,0.617
		l0.006-0.007c1.072,1.661,1.607,3.712,1.607,6.167C80.691,62.798,75.586,66.689,65.084,66.689z"/>
	
		<rect x="76.755" y="29.906" transform="matrix(0.7067 0.7075 -0.7075 0.7067 44.3088 -46.08)" fill="#231F20" width="1.962" height="1"/>
	
		<rect x="65.648" y="18.799" transform="matrix(0.7066 0.7076 -0.7076 0.7066 33.2043 -41.4848)" fill="#231F20" width="1.962" height="1"/>
	
		<rect x="73.978" y="27.129" transform="matrix(0.7067 0.7075 -0.7075 0.7067 41.5299 -44.9293)" fill="#231F20" width="1.962" height="1"/>
	
		<rect x="68.424" y="21.575" transform="matrix(0.7072 0.707 -0.707 0.7072 35.9265 -42.6054)" fill="#231F20" width="1.964" height="1"/>
	
		<rect x="71.201" y="24.352" transform="matrix(0.707 0.7072 -0.7072 0.707 38.7271 -43.7676)" fill="#231F20" width="1.964" height="1"/>
	
		<rect x="60.094" y="13.246" transform="matrix(0.7071 0.7071 -0.7071 0.7071 27.6081 -39.1615)" fill="#231F20" width="1.964" height="0.999"/>
	
		<rect x="79.531" y="32.683" transform="matrix(0.7071 0.7071 -0.7071 0.7071 47.0451 -47.2122)" fill="#231F20" width="1.964" height="1"/>
	
		<rect x="62.871" y="16.022" transform="matrix(0.7071 0.7071 -0.7071 0.7071 30.3848 -40.3114)" fill="#231F20" width="1.964" height="1"/>
	
		<rect x="64.501" y="33.85" transform="matrix(0.7076 0.7066 -0.7066 0.7076 43.4269 -36.2436)" fill="#231F20" width="2.009" height="1"/>
	
		<rect x="67.342" y="36.691" transform="matrix(0.707 0.7072 -0.7072 0.707 46.3289 -37.4393)" fill="#231F20" width="2.008" height="1"/>
	
		<rect x="70.182" y="39.531" transform="matrix(0.7071 0.7071 -0.7071 0.7071 49.1564 -38.6116)" fill="#231F20" width="2.008" height="1"/>
	
		<rect x="40.552" y="47.51" transform="matrix(-0.7071 -0.7071 0.7071 -0.7071 36.9552 111.3259)" fill="#231F20" width="1.963" height="1"/>
	
		<rect x="43.329" y="50.286" transform="matrix(-0.7072 -0.707 0.707 -0.7072 39.744 118.0302)" fill="#231F20" width="1.964" height="1"/>
	
		<rect x="57.212" y="64.169" transform="matrix(-0.7071 -0.7071 0.7071 -0.7071 53.6161 151.5464)" fill="#231F20" width="1.964" height="1"/>
	
		<rect x="51.66" y="58.616" transform="matrix(-0.707 -0.7072 0.7072 -0.707 48.049 138.1399)" fill="#231F20" width="1.964" height="1"/>
	
		<rect x="54.436" y="61.392" transform="matrix(-0.7072 -0.707 0.707 -0.7072 50.8551 144.8448)" fill="#231F20" width="1.964" height="1"/>
	
		<rect x="46.106" y="53.063" transform="matrix(0.707 0.7072 -0.7072 0.707 51.6786 -17.6071)" fill="#231F20" width="1.964" height="1"/>
	
		<rect x="30.286" y="79.06" transform="matrix(-0.7069 -0.7074 0.7074 -0.7069 -3.7482 157.5658)" fill="#231F20" width="0.977" height="1"/>
	
		<rect x="37.775" y="87.041" transform="matrix(-0.7071 -0.7071 0.7071 -0.7071 4.2616 176.8473)" fill="#231F20" width="1.964" height="1"/>
	
		<rect x="32.222" y="81.488" transform="matrix(-0.7074 -0.7069 0.7069 -0.7074 -1.2634 163.4525)" fill="#231F20" width="1.963" height="1"/>
	
		<rect x="34.999" y="84.265" transform="matrix(-0.7072 -0.707 0.707 -0.7072 1.4995 170.1502)" fill="#231F20" width="1.963" height="0.999"/>
	
		<rect x="40.552" y="89.817" transform="matrix(-0.707 -0.7072 0.7072 -0.707 7.0224 183.5443)" fill="#231F20" width="1.964" height="1"/>
	
		<rect x="51.66" y="100.925" transform="matrix(-0.707 -0.7072 0.7072 -0.707 18.1271 210.36)" fill="#231F20" width="1.964" height="1"/>
	
		<rect x="43.329" y="92.594" transform="matrix(-0.7074 -0.7069 0.7069 -0.7074 9.8499 190.2664)" fill="#231F20" width="1.963" height="1"/>
	
		<rect x="46.106" y="95.372" transform="matrix(-0.7072 -0.707 0.707 -0.7072 12.6096 196.9659)" fill="#231F20" width="1.963" height="0.999"/>
	
		<rect x="54.436" y="103.701" transform="matrix(-0.7072 -0.707 0.707 -0.7072 20.9437 217.0753)" fill="#231F20" width="1.964" height="1"/>
	
		<rect x="57.213" y="106.478" transform="matrix(-0.7074 -0.7069 0.7069 -0.7074 23.7401 223.7847)" fill="#231F20" width="1.963" height="1"/>
	
		<rect x="28.858" y="89.818" transform="matrix(-0.707 -0.7072 0.7072 -0.707 -12.9392 175.2738)" fill="#231F20" width="1.964" height="1"/>
	
		<rect x="26.081" y="87.041" transform="matrix(-0.707 -0.7072 0.7072 -0.707 -15.7153 168.5709)" fill="#231F20" width="1.964" height="1"/>
	
		<rect x="23.305" y="84.264" transform="matrix(-0.7074 -0.7069 0.7069 -0.7074 -18.4504 161.8887)" fill="#231F20" width="1.963" height="0.999"/>
	
		<rect x="18.594" y="79.059" transform="matrix(-0.7071 -0.7071 0.7071 -0.7071 -23.6817 149.3089)" fill="#231F20" width="0.976" height="1"/>
	
		<rect x="20.528" y="81.487" transform="matrix(-0.7072 -0.707 0.707 -0.7072 -21.2415 155.1773)" fill="#231F20" width="1.963" height="1"/>
	
		<rect x="42.742" y="103.701" transform="matrix(-0.707 -0.7072 0.7072 -0.707 0.9416 208.7924)" fill="#231F20" width="1.964" height="1"/>
	
		<rect x="34.412" y="95.372" transform="matrix(-0.7074 -0.7069 0.7069 -0.7074 -7.3383 188.7041)" fill="#231F20" width="1.963" height="0.999"/>
	
		<rect x="37.188" y="98.148" transform="matrix(-0.707 -0.7072 0.7072 -0.707 -4.6108 195.3846)" fill="#231F20" width="1.964" height="1"/>
	
		<rect x="45.519" y="106.478" transform="matrix(-0.7074 -0.7069 0.7069 -0.7074 3.7742 215.5186)" fill="#231F20" width="1.963" height="1"/>
	
		<rect x="39.964" y="100.925" transform="matrix(-0.7069 -0.7074 0.7074 -0.7069 -1.8531 202.0807)" fill="#231F20" width="1.965" height="1"/>
	
		<rect x="31.635" y="92.594" transform="matrix(-0.7072 -0.707 0.707 -0.7072 -10.1322 181.9926)" fill="#231F20" width="1.963" height="1"/>
	
		<rect x="46.587" y="63.421" transform="matrix(-0.7071 0.7071 -0.7071 -0.7071 125.9225 76.6469)" fill="#231F20" width="1" height="1.963"/>
	
		<rect x="57.212" y="75.009" transform="matrix(-0.7071 -0.7071 0.7071 -0.7071 45.9512 170.0512)" fill="#231F20" width="1.964" height="1"/>
	
		<rect x="51.659" y="69.456" transform="matrix(-0.7071 -0.7071 0.7071 -0.7071 40.3976 156.6453)" fill="#231F20" width="1.964" height="1"/>
	
		<rect x="54.436" y="72.232" transform="matrix(-0.7072 -0.707 0.707 -0.7072 43.1916 163.3509)" fill="#231F20" width="1.964" height="1"/>
	
		<rect x="40.552" y="58.35" transform="matrix(0.707 0.7072 -0.7072 0.707 53.7903 -12.1298)" fill="#231F20" width="1.964" height="1"/>
	
		<rect x="43.328" y="61.126" transform="matrix(0.7071 0.7071 -0.7071 0.7071 56.5543 -13.2823)" fill="#231F20" width="1.964" height="1"/>
	
		<rect x="37.775" y="55.573" transform="matrix(0.707 0.7072 -0.7072 0.707 51.013 -10.9792)" fill="#231F20" width="1.964" height="1"/>
	
		<rect x="32.221" y="50.02" transform="matrix(0.7072 0.707 -0.707 0.7072 45.437 -8.6834)" fill="#231F20" width="1.964" height="1"/>
	
		<rect x="30.275" y="47.604" transform="matrix(0.7069 -0.7074 0.7074 0.7069 -24.9964 35.8659)" fill="#231F20" width="1" height="0.976"/>
	
		<rect x="34.998" y="52.797" transform="matrix(0.7071 0.7071 -0.7071 0.7071 48.2245 -9.8314)" fill="#231F20" width="1.963" height="1"/>
</g>
</svg>
